<svg width="788" height="780" viewBox="0 0 788 780" fill="none" xmlns="http://www.w3.org/2000/svg">
<path opacity="0.5" fill-rule="evenodd" clip-rule="evenodd" d="M777.525 -265C769.685 -259.314 759.692 -251.205 755.62 -245.485C748.655 -247.067 741.118 -228.729 733.547 -233.743C730.25 -230.849 735.701 -229.268 731.832 -226.307C728.534 -224.726 725.371 -224.187 722.04 -222.269C721.738 -218.232 716.287 -214.564 713.191 -215.742C714.201 -216.751 712.888 -217.458 713.595 -218.4C718.373 -219.443 725.607 -227.754 727.424 -232.161C721.771 -226.677 713.326 -220.924 709.759 -214.564C710.735 -215.372 711.845 -216.819 712.653 -216.28C710.264 -214.194 711.576 -212.647 709.187 -210.56C707.437 -211.301 709.557 -214.531 706.697 -211.502C706.226 -209.921 706.731 -208.474 705.351 -206.758C698.655 -203.461 689.974 -196.698 686.542 -190.272C674.799 -188.085 666.118 -167.224 657.168 -173.55C652.255 -166.08 646.166 -159.587 637.586 -156.323C636.206 -154.809 638.965 -153.9 637.013 -152.319C627.39 -149.661 622.949 -135.26 613.965 -129.372C612.148 -132.131 622.208 -136.472 617.06 -137.01C608.346 -123.888 594.785 -119.581 586.34 -110.968C585.297 -112.549 589.167 -114.871 587.115 -116.318C584.86 -113.794 578.635 -109.656 576.347 -105.618C575.337 -106.123 574.16 -105.618 573.285 -107.098C568.944 -100.1 561.509 -97.7111 554.073 -92.5296C554.308 -90.1744 558.211 -92.3614 556.36 -90.2417C554.812 -88.7276 553.299 -87.1799 551.751 -85.6659C551.987 -87.4155 550.606 -88.795 548.689 -87.18C543.069 -79.6769 533.48 -73.1495 529.678 -64.8052C529.846 -69.2129 527.154 -63.3584 526.784 -63.0892C526.649 -62.9883 525.775 -64.3342 525.641 -64.2333C511.239 -55.317 493.07 -26.2803 484.355 -24.2279C486.979 -24.2279 484.624 -17.1958 479.913 -16.3883C477.794 -17.364 480.283 -19.0464 479.14 -20.1903C461.576 -0.641876 439.805 18.3345 418.439 40.2718C419.18 39.8007 419.988 38.7912 420.56 39.2959C409.624 48.6832 403.702 51.3416 396.366 61.1327C387.753 67.8282 374.025 82.8006 369.684 86.569C370.694 86.2325 375.27 83.4065 373.722 85.9636C361.777 90.4721 354.744 97.6386 343.372 109.348C339.771 107.531 331.393 115.707 334.152 118.533C336.979 116.379 337.854 114.529 337.618 112.813C339.401 112.645 341.723 108.809 343.002 112.006C339.032 115.875 327.39 128.694 331.293 120.249C321.468 134.145 313.594 133.573 304.61 145.686C297.14 142.085 287.315 160.961 285.229 157.024C283.816 161.264 279.173 165.301 274.092 165.84C279.274 157.764 284.926 154.265 287.752 148.848C285.397 151.573 283.109 153.626 281.225 153.088C279.677 158.37 275.976 161.465 271.232 163.047C273.923 165.436 268.473 166.479 267.396 166.849C268.305 169.641 270.323 164.796 271.232 167.589C267.16 173.544 260.195 178.759 253.365 181.956C254.711 180.442 255.552 179.029 255.283 177.75C251.851 182.864 243.944 184.614 246.434 188.853C248.385 187.609 250.774 183.133 252.389 184.076C247.813 190.569 243.102 193.9 238.19 195.953C239.266 195.011 243.842 190.502 240.68 192.319C236.541 195.314 236.776 197.669 234.926 200.327C223.015 203.893 218.877 210.925 209.388 217.789C210.397 220.885 205.215 224.922 201.884 228.657C201.11 227.849 200.269 227.782 199.394 227.715C197.644 226.436 201.918 224.283 199.394 223.139C196.097 226.1 190.074 233.973 183.075 235.992C182.335 239.087 174.361 249.618 169.65 247.095C174.495 241.24 178.566 235.891 182.705 234.074C181.595 231.315 199.63 219.404 195.021 217.251C196.535 217.419 197.981 217.89 199.832 215.905C200.034 213.886 201.615 210.723 201.75 207.157C205.485 211.598 204.408 200.663 208.849 203.489C211.844 201.538 208.951 200.427 210.195 198.712C212.82 197.197 215.175 197.702 217.866 195.616C230.955 173.881 255.888 159.278 271.837 140.706C267.396 144.003 262.753 149.083 258.782 149.151C259.96 147.67 264.233 146.93 263.391 144.575C261.507 145.382 259.354 148.209 257.638 148.041C260.801 142.926 266.622 143.195 267.228 140.773C262.517 144.878 265.276 138.418 264.94 138.485C262.45 139.024 261.676 142.893 257.066 142.926C257.975 144.171 259.186 143.33 260.128 144.407C258.378 145.82 257.066 144.373 255.316 145.752C250.471 162.205 228.398 173.41 218.809 188.954C215.208 186.7 214.031 190.906 215.747 192.016C211.406 194.607 209.656 193.934 206.931 193.968C207.604 200.966 194.011 206.08 192.328 213.079C184.152 214.323 177.355 228.96 171.601 233.737C172.308 233.266 172.981 233.334 173.519 234.107C171.029 237.068 170.02 239.323 166.79 239.659C167.194 236.463 169.078 239.087 171.198 236.396C161.575 237.842 155.955 249.786 146.601 256.314C146.231 258.333 144.818 260.486 143.742 262.606C140.713 262.438 136.945 267.215 133.344 270.647C134.421 272.868 134.253 275.29 130.283 278.285C138.19 278.285 144.381 270.042 148.722 264.49C148.217 269.335 152.86 265.499 151.211 269.974C145.828 268.999 135.834 283.466 131.83 285.889C133.546 284.644 135.363 282.793 136.608 284.509C134.32 286.831 131.595 292.584 128.163 292.921C132.436 289.489 129.139 287.941 133.546 287.571C130.316 287.268 126.952 287.605 123.385 289.725C124.596 292.046 126.716 287.773 127.793 291.037C127.019 291.811 127.355 292.416 126.817 293.123C124.193 292.585 117.799 300.861 117.799 296.387C113.156 302.88 104.34 310.686 98.7885 309.61C90.7803 320.242 85.0939 329.192 74.394 337.334C73.3846 336.628 72.5437 334.979 71.3324 335.853C72.0053 337.704 70.0875 339.925 69.7847 341.944C67.564 340.194 67.7658 344.063 66.319 343.121C67.2611 341.91 65.9485 341.002 66.1168 339.891C64.5354 341.843 63.0547 342.751 61.7089 343.155C62.9202 345.476 65.0737 341.203 66.1168 344.467C64.1316 346.284 64.6362 347.731 63.4249 349.447C58.3441 350.288 57.4019 358.666 49.7975 361.896C49.2592 360.886 49.7977 359.743 48.2836 358.868C45.6591 361.862 48.149 364.116 45.7937 367.077C45.1544 366.068 46.0963 364.857 45.6252 363.847C45.9617 371.788 32.2336 376.263 29.6763 378.584C30.6521 377.878 32.4694 377.676 31.5945 378.954C18.0682 390.226 8.68048 402.036 -2.99518 413.408C-3.70178 412.836 -2.76001 411.423 -4.13953 412.264C-8.88385 417.95 -29.1058 450.823 -31.0237 439.046C-31.764 439.517 -32.5712 440.527 -33.1432 440.022C-32.3356 439.047 -30.8552 437.936 -31.4271 437.162C-34.6909 438.643 -37.3495 444.733 -40.2769 448.232C-41.8246 448.232 -43.2711 447.794 -44.8861 448.232C-46.5685 457.888 -56.6964 455.499 -60.835 462.969C-62.5847 461.724 -58.3114 459.571 -60.835 458.427C-64.0315 470.943 -81.3605 480.196 -90.8154 492.813C-92.5987 491.534 -85.9697 489.045 -89.4691 488.035C-95.8621 497.591 -112.854 510.511 -121.367 522.085C-120.761 518.014 -125.001 524.138 -126.751 522.893C-123.823 512.362 -113.123 508.627 -107.134 496.548C-108.379 496.144 -109.22 492.712 -110.768 494.495C-107.908 502.234 -120.661 508.559 -125.169 516.803C-126.414 516.231 -128.063 518.721 -129.005 516.063C-131.663 525.282 -144.281 536.217 -155.317 543.417C-155.082 548.161 -163.225 550.516 -165.681 556.034C-164.873 553.544 -167.767 551.559 -165.311 548.8C-162.888 549.406 -165.21 553.612 -162.249 550.314C-165.445 545.133 -152.659 538.033 -152.054 534.467C-154.173 536.284 -151.986 532.448 -154.341 532.179C-156.057 537.024 -160.734 538.303 -161.845 543.047C-165.31 543.047 -173.42 547.69 -166.455 547.623C-172.41 546.95 -175.943 555.698 -181.428 555.698C-172.612 547.825 -172.141 542.172 -166.051 535.847C-171.67 537.495 -172.646 540.624 -176.414 543.888C-177.256 543.148 -177.323 542.273 -177.39 541.432C-188.83 552.199 -195.661 560.173 -207.74 564.816C-207.168 565.59 -205.957 566.296 -206.798 567.272C-214.1 569.829 -222.275 579.99 -227.154 585.273C-226.145 584.398 -225.17 583.624 -224.463 584.869C-227.794 588.267 -231.294 592.742 -233.851 590.824C-235.399 592.809 -232.067 594.054 -234.625 596.14C-238.292 597.251 -241.623 596.04 -245.358 597.722C-240.715 597.52 -252.357 611.45 -252.861 604.047C-258.043 608.455 -258.951 612.728 -265.344 613.064C-265.715 615.521 -265.647 617.876 -267.06 620.5C-261.038 625.446 -262.013 627.667 -257.471 631.469C-254.611 626.186 -252.29 622.519 -247.31 624.74C-247.983 622.384 -241.724 616.328 -238.864 616.328C-237.249 607.546 -225.136 605.225 -217.531 596.241C-215.21 599.438 -214.301 594.357 -210.802 595.266C-213.359 598.26 -215.21 601.12 -217.329 604.047C-218.002 601.188 -219.685 601.961 -222.309 602.163C-221.67 604.888 -226.044 608.388 -228.467 608.287C-226.986 611.584 -224.193 606.066 -222.343 606.739C-224.463 610.507 -227.693 614.478 -229.241 618.179C-233.918 616.496 -239.402 622.317 -241.724 627.196C-244.584 627.398 -244.786 627.196 -244.584 624.37C-249.194 633.925 -258.716 641.832 -265.916 644.457C-263.763 650.648 -275.473 651.354 -276.684 655.156C-275.271 654.382 -273.924 654.18 -272.646 654.55C-275.405 656.502 -273.925 657.78 -276.684 659.698C-278.737 657.309 -281.63 660.505 -284.154 661.448C-283.817 663.231 -279.947 661.044 -281.865 663.702C-288.998 669.557 -291.893 671.542 -295.123 678.035C-297.68 676.824 -298.655 674.603 -303.198 679.213C-302.121 680.155 -301.583 681.164 -301.65 682.241C-298.992 681.064 -300.136 677.396 -297.814 678.405C-301.179 683.991 -308.144 683.486 -308.178 691.023C-309.793 691.628 -311.61 693.546 -312.788 691.023C-311.072 689.778 -309.961 692.604 -308.009 689.643C-311.609 687.961 -307.706 684.024 -305.486 681.467C-310.735 686.211 -319.921 683.015 -317.801 689.172C-326.785 695.363 -334.288 698.156 -344.281 704.145C-344.921 703.169 -344.012 701.924 -344.483 700.915C-349.732 703.774 -348.05 710.268 -351.987 707.24C-348.285 703.438 -343.306 699.434 -343.138 696.171C-344.652 697.517 -346.099 698.358 -347.377 698.122C-342.633 696.07 -348.891 695.229 -341.623 690.114C-344.449 688.567 -341.152 686.144 -342.767 684.395C-345.526 685.337 -348.656 688.735 -351.213 688.264C-346.906 680.66 -342.835 677.396 -336.98 676.387C-337.788 677.8 -341.623 679.684 -340.244 680.794C-336.307 676.252 -340.917 685.505 -336.98 680.963C-337.047 676.353 -334.389 673.56 -332.74 669.927C-331.966 673.762 -330.788 664.913 -326.414 667.033C-325.64 665.182 -326.784 663.601 -325.64 661.717C-316.017 659.396 -304.813 647.317 -297.814 641.967C-299.631 642.438 -301.751 644.894 -303.198 642.774C-302.424 642 -302.76 641.395 -302.256 640.688C-297.309 640.857 -295.055 632.916 -290.917 635.103C-287.014 631.133 -287.687 630.729 -284.187 629.551C-284.759 627.6 -287.283 627.297 -282.64 623.461C-281.698 624.841 -283.582 626.624 -282.64 628.003C-276.348 622.216 -267.532 609.161 -260.735 608.489C-259.557 589.781 -231.495 586.383 -229.812 571.983C-229.039 572.723 -227.929 571.175 -227.121 571.579C-229.443 573.227 -229.645 574.573 -227.693 575.583C-223.958 571.511 -223.857 571.881 -217.329 567.541C-221.636 565.556 -227.155 571.915 -231.731 571.612C-231.159 568.921 -226.481 565.623 -223.857 562.629C-226.515 561.956 -233.48 568.786 -235.566 570.872C-235.667 570.973 -234.12 573.127 -235.365 574.102C-236.542 575.044 -238.965 574.472 -240.176 575.448C-245.863 580.024 -250.472 590.32 -256.697 589.613C-253.668 587.224 -253.232 585.206 -253.804 583.321C-265.378 597.385 -275.001 603.576 -289.133 618.515C-289.705 617.943 -289.2 617.237 -289.537 616.631C-293.238 622.889 -300.91 626.22 -303.938 634.396C-304.577 633.387 -303.635 632.175 -304.14 631.166C-306.899 634.833 -308.582 638.333 -310.298 641.866C-310.062 638.871 -314.773 642.539 -316.825 641.529C-315.446 642.64 -315.647 643.952 -317.431 645.533C-319.954 646.408 -317.868 643.178 -319.92 644.591C-323.184 649.2 -327.39 653.945 -329.14 658.352C-330.25 657.343 -327.155 652.498 -330.486 653.978C-332.337 661.717 -349.429 670.465 -354.477 674.469C-351.516 672.887 -355.048 678.675 -356.966 678.103C-356.563 680.525 -352.121 676.858 -353.905 679.617C-357.202 678.405 -360.634 685.068 -362.552 684.798C-365.783 683.957 -360.297 681.871 -361.98 680.794C-366.421 682.611 -370.964 685.269 -375.607 688.667C-370.897 679.011 -352.189 669.354 -346.401 655.055C-348.387 654.382 -349.295 658.891 -350.439 660.203C-354.746 656.973 -353.433 662.558 -356.764 663.096C-359.456 656.569 -348.185 655.189 -346.401 650.479C-347.411 651.354 -348.387 652.128 -349.093 650.883C-348.319 650.109 -348.656 649.503 -348.117 648.797C-342.936 644.389 -332.336 637.996 -334.86 634.463C-330.822 630.998 -323.992 631.94 -322.007 627.33C-327.02 630.258 -332 632.68 -336.408 631.402C-337.148 630.561 -331.226 625.547 -334.49 627.196C-338.225 634.598 -340.613 636.381 -345.829 641.899C-344.348 642.236 -342.195 638.03 -341.018 640.553C-343.507 642.707 -346.367 647.114 -348.319 645.533C-347.006 642.404 -352.492 643.716 -351.583 645.365C-348.992 643.817 -350.136 648.09 -350.842 649.167C-351.852 648.46 -353.232 650.513 -354.477 651.656C-355.419 650.613 -356.428 650.075 -357.538 650.143C-359.994 652.464 -360.499 654.483 -361.778 656.636C-374.799 663.298 -382.438 683.183 -393.676 690.686C-393.239 690.182 -392.835 689.711 -393.474 689.34C-392.599 693.479 -399.295 696.238 -397.31 697.718C-398.723 698.055 -403.871 701.285 -403.265 702.496C-401.785 703.001 -399.665 698.829 -398.286 699.804C-397.781 700.612 -398.252 701.52 -398.656 702.463C-402.223 702.934 -401.785 704.044 -403.265 707.072C-404.611 707.24 -405.957 707.442 -407.269 707.677C-411.206 713.296 -413.494 715.181 -417.667 720.295C-418.508 719.555 -418.575 718.68 -418.642 717.839C-420.089 720.429 -421.94 722.314 -424.598 722.617C-422.983 719.79 -422.377 717.065 -422.108 714.44C-424.564 718.713 -430.587 723.525 -429.207 727.226C-427.491 726.183 -427.694 722.381 -425.372 723.39C-427.189 726.284 -428.501 729.077 -429.241 731.768C-430.15 730.658 -431.327 731.196 -432.673 732.912C-432.438 729.783 -436.745 730.658 -438.999 731.263C-437.418 733.854 -435.129 731.768 -433.447 733.686C-437.518 736.748 -433.346 735.368 -434.625 737.118C-438.293 741.29 -441.085 739.406 -444.618 742.501C-445.527 739.81 -442.633 736.546 -442.7 733.753C-447.377 737.69 -445.224 740.651 -448.858 744.419C-450.204 742.905 -449.194 741.189 -451.919 742.905C-453.232 751.25 -464.235 759.897 -469.786 766.39C-467.364 766.76 -468.508 763.059 -466.152 763.901C-465.547 764.91 -467.196 766.222 -467.297 767.332C-469.113 766.356 -471.502 769.082 -473.05 766.222C-475.338 772.547 -481.765 775.475 -486.509 781.901C-488.057 781.767 -492.667 779.512 -492.667 783.449C-491.657 782.574 -490.682 781.8 -489.975 783.045C-492.667 786.813 -494.921 789.068 -500.17 794.316C-504.713 790.851 -510.702 797.446 -515.917 798.59C-516.792 801.113 -513.562 798.993 -514.975 801.046C-525.675 806.093 -530.184 811.14 -542.061 820.022C-537.956 814.1 -547.647 824.06 -545.897 819.282C-548.051 823.891 -553.266 830.856 -556.26 831.899C-555.419 830.251 -552.29 833.346 -553.972 834.187C-556.563 834.725 -556.328 832.303 -558.178 836.105C-559.793 833.615 -561.711 833.178 -563.932 834.995C-564.639 836.408 -561.846 837.283 -563.158 838.797C-566.456 840.244 -566.657 841.286 -568.912 842.262C-568.104 840.849 -567.936 839.503 -568.34 838.259C-570.493 841.186 -570.763 838.326 -570.83 837.316C-573.724 839.167 -576.617 840.917 -579.275 841.186C-576.449 843.945 -573.084 843.44 -572.949 847.41C-570.224 845.29 -568.205 847.881 -565.85 848.319C-576.886 859.893 -594.147 872.678 -608.279 878.028C-608.649 874.731 -610.365 873.049 -614.235 873.688C-607.976 888.997 -635.231 891.285 -640.547 905.585C-638.428 909.79 -636.375 908.411 -632.876 911.641C-639.437 917.159 -637.788 921.499 -638.26 926.109C-641.792 931.66 -644.282 933.04 -648.622 938.726C-649.43 938.12 -650.204 937.616 -651.314 939.13C-652.896 941.72 -648.219 938.154 -647.681 941.182C-652.526 946.767 -648.353 953.463 -654.612 957.198C-649.935 958.779 -649.632 962.211 -649.06 964.196C-649.834 963.456 -651.92 965.609 -651.348 966.484C-649.935 965.441 -650.574 967.359 -652.324 968.57C-651.617 966.013 -660.501 968.099 -658.65 971.464C-654.814 969.849 -648.993 966.013 -648.084 971.195C-645.662 968.2 -643.643 967.729 -641.725 968.301C-641.793 970.051 -642.028 971.834 -642.499 973.617C-640.615 974.122 -638.495 973.314 -636.543 973.382C-638.226 978.563 -645.325 988.893 -653.266 988.893C-655.588 992.695 -653.973 1001.01 -660.769 999.794C-659.895 998.583 -658.38 995.117 -659.02 992.358C-662.082 995.386 -662.452 1002.86 -667.667 1002.12C-665.077 992.089 -657.169 979.909 -646.906 972.339C-655.722 974.761 -663.697 987.782 -669.013 997.775C-673.589 999.659 -680.184 1007.5 -682.472 1013.45C-684.659 1014.83 -686.443 1013.62 -688.596 1015C-694.215 1020.96 -701.988 1039.4 -708.179 1032.23C-711.813 1034.08 -706.698 1034.62 -708.751 1036.23C-710.635 1037.04 -712.486 1037.85 -713.933 1035.69C-711.577 1023.18 -703.737 1009.85 -700.474 997.203C-704.074 997.842 -707.943 1000.26 -711.039 997.472C-728.266 1014.3 -720.662 1034.15 -738.529 1051.07C-730.622 1053.86 -735.467 1063.35 -726.651 1064.29C-728.031 1065.57 -728.906 1066.82 -729.141 1067.93C-723.724 1071.63 -719.215 1073.48 -719.754 1080.21C-718.778 1081.15 -717.297 1078.39 -716.288 1079.03C-718.879 1081.59 -716.086 1083.34 -715.917 1085.49C-714.639 1085.79 -712.889 1082.63 -711.678 1083.54C-695.762 1092.93 -684.626 1094.57 -664.303 1101.3C-655.521 1098.01 -647.546 1100.6 -638.764 1097.54C-638.36 1101.71 -630.184 1098.71 -629.747 1103.39C-628.165 1101.47 -626.718 1100.63 -625.541 1101.47C-627.425 1103.05 -628.3 1104.5 -627.459 1105.68C-624.195 1101.44 -623.354 1106.86 -623.051 1106.99C-616.422 1109.24 -606.529 1106.52 -599.834 1110.09C-605.991 1120.35 -621.368 1120.89 -625.17 1130.78C-629.511 1131.92 -634.255 1135.99 -638.024 1133.34C-635.702 1130.81 -633.818 1128.39 -635.702 1126.47C-643.138 1129.53 -650.675 1133.17 -658.717 1140.3C-664.941 1136.33 -673.421 1147.87 -680.79 1152.04C-681.934 1150.9 -679.41 1149.25 -681.563 1148.24C-688.966 1157.26 -700.44 1166.38 -710.736 1172.77C-720.46 1169.17 -736.342 1187.74 -743.576 1181.52C-747.95 1184.51 -752.392 1188.04 -756.228 1187.3C-758.045 1183.43 -756.833 1179.13 -761.779 1175.73C-766.894 1174.62 -773.085 1181.21 -778.468 1182.09C-776.584 1184.44 -779.411 1190.87 -783.852 1192.01C-784.458 1190.37 -782.843 1188.38 -783.078 1186.66C-789.539 1186.26 -791.658 1182.73 -797.479 1181.62C-799.834 1184.34 -802.963 1188.95 -806.126 1186.8C-805.083 1185.08 -801.248 1185.29 -802.291 1182.96C-804.814 1185.32 -806.699 1183.13 -809.222 1185.29C-805.387 1189.09 -812.116 1188.48 -813.832 1189.86C-814.74 1193.33 -810.636 1192.28 -810.77 1195.92C-819.99 1205.88 -837.856 1201.77 -839 1213.75C-837.217 1213.55 -835.097 1210.99 -833.044 1208.97C-823.152 1208.84 -812.856 1205.71 -802.526 1202.51C-801.987 1203.52 -802.526 1204.7 -800.978 1205.54C-798.623 1202.58 -798.421 1199.95 -795.796 1196.96C-793.609 1197.03 -791.423 1197.03 -788.697 1193.29C-789.202 1199.05 -783.852 1193.43 -781.799 1195.55C-783.448 1198.84 -782.876 1198.81 -779.881 1200.49C-781.395 1202.01 -779.276 1203.02 -781.799 1204.7C-790.043 1210.18 -799.902 1216.17 -809.054 1225.02C-801.887 1225.56 -793.677 1218.73 -786.005 1215.77C-782.001 1221.93 -777.594 1220.65 -769.518 1219.84C-766.322 1218.06 -770.797 1217.42 -767.6 1215.63C-759.558 1219.13 -747.849 1216.27 -742.668 1224.99C-752.627 1234.07 -745.763 1240.67 -756.127 1249.78C-753.704 1252.48 -756.126 1255.87 -754.78 1258.7C-753.367 1259.64 -751.719 1258.7 -750.171 1258.7C-749.128 1260.72 -750.373 1263.08 -751.147 1265.36C-745.999 1275.32 -737.721 1263.55 -731.967 1269.03C-737.183 1277.17 -747.95 1286.16 -750.036 1293.86C-746.571 1291.37 -741.524 1294 -742.735 1298C-736.679 1295.61 -731.564 1299.62 -725.473 1296.76C-720.729 1286.32 -727.661 1280.2 -721.402 1268.79C-707.27 1272.9 -685.837 1249.18 -677.055 1244C-678.266 1244.74 -679.377 1244.84 -680.319 1243.83C-677.089 1239.66 -674.363 1238.95 -671.469 1237.3C-674.329 1235.55 -668.643 1232.52 -669.181 1230.44C-670.796 1231.08 -672.479 1232.02 -673.791 1230.47C-661.476 1218.83 -658.38 1208.77 -647.075 1195.92C-647.647 1195.14 -648.824 1194.44 -648.017 1193.46C-631.126 1177.75 -623.084 1164.12 -609.221 1147.97C-609.793 1147.2 -610.971 1146.49 -610.164 1145.52C-605.958 1143.4 -601.953 1139.29 -599.8 1137.47C-600.506 1137.94 -601.18 1137.88 -601.718 1137.1C-588.932 1126.2 -576.314 1107.5 -565.446 1113.52C-567.196 1113.99 -567.936 1114.76 -567.162 1116.38C-564.066 1115.03 -558.279 1112.95 -558.145 1117.66C-554.915 1113.05 -548.925 1113.82 -548.925 1117.59C-547.882 1118.13 -546.739 1117.59 -545.864 1119.1C-542.936 1117.12 -543.778 1117.99 -543.374 1115.47C-542.634 1116.28 -541.725 1116.34 -540.884 1116.41C-542.028 1117.66 -543.609 1119 -542.027 1119.84C-537.317 1114.19 -538.394 1121.36 -534.928 1120.75C-532.304 1117.56 -536.61 1115.37 -531.664 1111.8C-532.168 1114.83 -529.174 1113.75 -527.626 1115.77C-528.266 1116.08 -532.001 1117.29 -530.689 1118.83C-528.67 1116.92 -527.324 1119.71 -525.507 1119.37C-524.127 1118.09 -523.252 1116.85 -523.017 1115.74C-523.724 1120.58 -519.114 1111.73 -517.835 1116.28C-524.464 1119.84 -527.761 1125.13 -531.832 1131.38C-537.687 1129.53 -545.358 1140 -551.213 1138.18C-550.574 1137 -550.07 1135.86 -550.07 1134.75C-552.223 1135.99 -554.006 1134.68 -556.025 1134.98C-563.63 1144.07 -574.027 1135.96 -583.683 1144.27C-580.756 1147.5 -584.524 1151.47 -589.067 1154.2C-586.173 1157.02 -589.37 1158.81 -592.734 1161.26C-585.668 1164.9 -593.408 1173.81 -586.241 1175.29C-587.99 1175.56 -589.841 1177.38 -588.731 1178.93C-587.25 1179.26 -585.096 1175.06 -583.918 1177.58C-583.212 1178.56 -585.264 1179.94 -586.408 1181.21C-579.982 1186.73 -571.402 1177.55 -564.336 1178.62C-573.118 1193.87 -587.183 1191.27 -595.46 1202.78C-596.234 1202.04 -596.974 1201.27 -597.748 1200.53C-609.087 1207.76 -599.396 1216.98 -608.313 1223.61C-608.784 1231.08 -611.543 1238.85 -616.96 1247.06C-615.547 1247.09 -620.056 1253.55 -618.879 1255.81C-631.631 1268.56 -608.178 1266.68 -606.799 1272.26C-602.155 1271.99 -597.311 1270.21 -592.97 1272.19C-595.729 1275.09 -594.148 1275.46 -592.028 1274.65C-593.071 1275.66 -594.08 1276.7 -595.09 1277.71C-591.287 1281.08 -593.912 1283.97 -588.562 1282.62C-582.707 1273.4 -573.286 1269 -565.144 1270.71C-566.288 1271.96 -564.268 1272.77 -566.287 1274.14C-564.336 1277.37 -561.106 1271.65 -558.986 1273.71C-565.11 1278.15 -570.056 1274.45 -576.079 1278.18C-573.825 1279.16 -575.675 1280.74 -573.959 1281.78C-572.377 1280.47 -572.916 1279.46 -571.469 1278.15C-571.873 1280.74 -568.172 1278.35 -566.489 1280C-563.259 1276.6 -562.72 1278.11 -558.615 1275.59C-559.288 1274.31 -556.025 1269.2 -553.804 1269.67C-558.851 1274.25 -550.978 1269.97 -553.804 1274.25C-546.301 1268.59 -542.835 1268.22 -539.202 1264.25C-540.985 1267.55 -541.557 1270.71 -539.202 1273.37C-537.519 1270.95 -536.509 1273.07 -535.163 1272.77C-524.228 1264.19 -514.47 1265.97 -501.752 1255.47C-501.684 1261.63 -510.567 1266.74 -517.129 1275.32C-516.624 1278.28 -517.667 1281.48 -514.437 1284.07C-506.63 1275.36 -491.624 1269.47 -486.207 1257.09C-477.492 1255.5 -470.863 1238.08 -460.668 1230.51C-456.664 1227.54 -448.487 1219 -450.304 1213.35C-439.133 1202.81 -429.477 1189.66 -415.917 1175.7C-413.528 1176.27 -415.816 1180.51 -412.855 1177.21C-411.879 1170.31 -401.011 1163.15 -398.824 1157.56C-412.283 1170.08 -425.17 1180.34 -438.192 1193.36C-439.168 1192.72 -440.412 1193.66 -441.456 1193.19C-431.967 1186.13 -429.477 1166.75 -426.65 1172.77C-426.616 1171.25 -421.065 1170.21 -418.575 1167.02C-421.839 1160.08 -410.533 1159.11 -406.092 1153.46C-407.842 1152.18 -403.568 1150.02 -406.092 1148.88C-408.077 1147.4 -410.668 1150.26 -412.619 1148.54C-411.913 1139.93 -404.14 1137.57 -397.444 1130C-396.3 1130.51 -395.526 1130.04 -395.728 1131.72C-394.315 1129.47 -390.076 1122.77 -387.653 1125.97C-390.345 1130.85 -389.234 1127.08 -392.06 1129.23C-391.522 1132.83 -388.696 1132.33 -385.735 1130.91C-386.946 1134.34 -383.817 1137.14 -386.509 1140.8C-384.995 1139.46 -383.548 1138.62 -382.269 1138.89C-381.529 1140.74 -383.952 1143.06 -382.471 1144.78C-380.318 1141.28 -376.28 1138.11 -371.334 1135.96C-374.429 1133 -368.541 1129.23 -366.926 1128.15C-366.287 1130.71 -368.171 1133.17 -371.165 1134.65C-367.128 1135.79 -373.454 1138.48 -370.594 1139.8C-366.691 1137.61 -365.412 1122.17 -356.395 1123.38C-364.234 1129.3 -362.316 1133.81 -365.243 1139.02C-360.062 1148.98 -353.064 1137.54 -345.661 1135.49C-339.84 1128.15 -326.718 1121.63 -323.555 1114.63C-326.65 1116.31 -330.889 1122.57 -334.86 1120.21C-336.105 1115.77 -328.904 1117.12 -330.654 1113.72C-334.792 1116.34 -334.894 1119.1 -338.528 1118.13C-337.518 1117.12 -338.831 1116.45 -338.158 1115.47C-334.356 1113.05 -329.174 1111.2 -327.996 1113.32C-330.049 1111.77 -324.329 1112.54 -326.28 1110.46C-327.895 1111.1 -329.241 1109.75 -330.688 1109.14C-334.321 1113.05 -337.619 1114.66 -340.479 1113.18C-337.855 1104.6 -330.015 1103.32 -329.308 1095.25C-327.39 1095.85 -321.435 1092.09 -321.233 1089.49C-322.545 1090.94 -323.588 1090.71 -324.497 1089.33C-310.87 1080.61 -304.746 1073.92 -293.945 1064.63C-295.055 1069.07 -297.478 1069.78 -299.9 1073.98C-297.377 1073.34 -294.685 1071.22 -292.397 1072.2C-293.777 1075.97 -294.92 1079.06 -292.969 1080.78C-296.771 1085.42 -297.411 1090.2 -303.366 1093.4C-299.228 1094.24 -296.973 1089.36 -295.123 1086.3C-294.551 1086.87 -293.81 1086.37 -293.205 1086.67C-293.81 1093.4 -289.671 1094.24 -283.615 1097.64C-296.468 1116.31 -316.321 1122.47 -328.77 1141.44C-334.995 1146.52 -344.08 1149.25 -351.617 1158.5C-352.694 1156.82 -354.275 1158.67 -355.25 1156.42C-360.634 1164.56 -368.709 1169.07 -375.237 1171.76C-372.007 1176.37 -383.009 1176.97 -383.884 1181.52C-384.995 1181.01 -385.769 1181.48 -385.6 1179.8C-387.855 1189.22 -399.093 1185.92 -404.241 1194.94C-400.54 1192.08 -403.938 1200.86 -398.286 1194.71C-398.555 1192.38 -402.424 1194.54 -400.607 1192.45C-397.31 1196.12 -391.691 1189.05 -386.408 1189.69C-385.331 1182.26 -377.929 1181.01 -371.805 1175.16C-370.089 1175.66 -365.243 1177.78 -365.109 1174.18C-367.969 1177.58 -366.556 1171.59 -367.195 1170.58C-362.821 1166.14 -357 1163.95 -352.592 1160.62C-351.313 1164.66 -352.054 1163.62 -356.058 1166.34C-353.837 1168.39 -353.568 1167.12 -352.592 1169.74C-348.319 1166.95 -349.901 1165 -348.959 1162.67C-346.233 1167.52 -338.662 1155.34 -333.985 1154.6C-335.364 1153.52 -335.196 1152.18 -333.413 1150.6C-332.908 1151.71 -333.379 1152.48 -331.697 1152.28C-317.094 1137.54 -305.553 1122.3 -290.782 1110.39C-288.225 1104.03 -276.751 1089.36 -271.57 1095.82C-252.424 1082.9 -238.494 1064.06 -219.315 1048.35C-216.354 1039.77 -208.446 1033.04 -202.02 1028.86C-202.962 1029.47 -201.717 1025.94 -199.53 1025.23C-191.32 1022.61 -199.294 1033.24 -203.971 1037.61C-200.203 1033.41 -200.169 1041.35 -199.563 1043.5C-206.697 1053.53 -213.796 1060.29 -219.752 1069.27C-221.973 1071.02 -223.79 1069.88 -226.078 1072.17C-227.054 1077.62 -233.985 1077.85 -237.417 1082.29C-239.368 1084.85 -238.527 1088.92 -240.681 1091.24C-243.103 1093.83 -247.78 1093.7 -249.9 1095.85C-251.179 1097.13 -252.39 1100.36 -253.366 1101.57C-253.265 1101.44 -253.972 1099.92 -253.736 1099.69C-256.024 1101.98 -255.553 1104.67 -257.404 1106.75C-257.741 1107.12 -259.625 1105.71 -259.894 1105.81C-263.662 1107.63 -264.032 1113.99 -266.825 1117.25C-270.694 1117.82 -266.825 1112.07 -270.459 1115.2C-268.709 1117.32 -272.276 1120.25 -272.209 1122.64C-277.559 1121.66 -280.586 1131.52 -282.774 1127.45C-286.946 1133.67 -294.752 1144.2 -299.698 1148.85C-298.723 1148.07 -297.949 1148.91 -297.208 1149.79C-303.029 1155.47 -304.88 1157.39 -306.798 1161.63C-307.404 1161.06 -306.865 1160.35 -307.202 1159.71C-315.546 1168.7 -322.579 1176.47 -328.703 1181.15C-328.703 1182.66 -328.232 1184.11 -328.703 1185.69C-332.135 1186.13 -331.967 1187.27 -331.967 1190.06C-334.591 1190.57 -336.239 1187.64 -337.35 1190.87C-333.11 1189.86 -338.461 1195.75 -339.672 1197.73C-340.816 1196.62 -342.498 1199.11 -343.507 1196.99C-345.055 1195.92 -341.926 1194.13 -342.936 1192.99C-347.848 1198.21 -346.098 1199.85 -343.709 1202.88C-340.95 1201.97 -337.855 1198.88 -335.062 1197.7C-336.912 1193.06 -326.65 1186.77 -323.555 1186.23C-324.564 1187.24 -323.251 1187.91 -323.958 1188.89C-324.732 1188.35 -325.438 1187.14 -326.448 1187.94C-327.39 1195.88 -334.154 1198.71 -340.648 1204.36C-336.577 1204.8 -340.345 1207.53 -338.158 1209.85C-332.101 1203.79 -326.213 1197.5 -320.493 1192.25C-324.026 1193.56 -319.954 1188.31 -319.718 1186.93C-317.397 1186.29 -311.408 1183.6 -311.072 1181.75C-312.081 1182.56 -312.821 1181.68 -313.561 1180.81C-307.774 1180.14 -304.14 1174.45 -298.958 1170.85C-304.106 1175.36 -300.473 1174.52 -303.366 1178.66C-299.228 1176.07 -296.603 1174.92 -296.266 1170.45C-295.694 1171.02 -295.122 1171.59 -294.55 1172.13C-289.234 1163.05 -274.261 1155.61 -266.892 1144.57C-266.085 1145.11 -265.378 1146.32 -264.402 1145.52C-258.48 1135.39 -242.834 1127.51 -241.152 1121.22C-238.696 1123.04 -241.69 1127.65 -244.819 1128.29C-240.31 1131.69 -238.965 1124.25 -237.316 1121.96C-237.417 1122.1 -236.071 1122.94 -236.172 1123.07C-233.75 1119.44 -234.927 1115.54 -231.933 1112.04C-228.097 1107.56 -223.925 1109.35 -219.45 1103.02C-223.79 1101.94 -213.965 1097.2 -213.494 1093.67C-222.074 1101.61 -206.932 1081.76 -203.13 1085.63C-205.856 1087.98 -204.746 1089.76 -206.024 1091.92C-202.02 1087.48 -203.198 1090.27 -200.069 1091.68C-197.31 1087.68 -195.256 1088.86 -192.767 1086.7C-194.954 1085.26 -197.847 1088.52 -200.236 1088.45C-199.159 1087.41 -198.824 1086.5 -198.521 1085.59C-196.031 1084.52 -191.959 1086.16 -192.767 1082.13C-191.824 1083.17 -190.815 1083.74 -189.705 1083.64C-200.741 1097.3 -204.375 1102.68 -218.137 1111.97C-223.319 1120.58 -234.321 1124.22 -238.494 1134.55C-239.638 1133.57 -241.421 1136.67 -242.498 1135.15C-250.405 1146.32 -266.623 1150.63 -270.156 1162.71C-267.901 1160.62 -265.378 1156.95 -263.628 1158.47C-266.186 1160.69 -275.002 1173.44 -276.684 1166.91C-278.164 1169.1 -279.375 1171.22 -282.235 1173.61C-280.991 1177.18 -278.164 1169.74 -276.684 1171.49C-279.914 1175.19 -286.542 1184.01 -292.229 1183.57C-306.125 1197.63 -315.95 1209.01 -328.332 1214.96C-325.842 1218.36 -331.192 1215.16 -332.572 1216.88C-333.817 1219.57 -329.039 1218.93 -330.453 1220.48C-331.226 1221.25 -330.89 1221.86 -331.428 1222.6C-333.885 1226.06 -335.567 1223.94 -337.754 1225.49C-337.081 1228.02 -341.421 1231.25 -344.281 1234.27C-349.194 1230.57 -352.02 1238.85 -355.217 1241.74C-368.406 1253.69 -387.014 1268.29 -396.704 1278.52C-387.249 1272.36 -386.038 1268.36 -376.919 1264.52C-370.055 1253.12 -355.116 1244.97 -345.628 1234.48C-344.315 1235.99 -342.633 1235.01 -341.22 1235.79C-341.253 1237.54 -343.238 1239.56 -343.339 1241.31C-339.133 1239.56 -334.49 1227.91 -326.045 1226.37C-327.491 1224.05 -323.959 1222.67 -322.007 1221.22C-323.42 1214.86 -311.643 1203.59 -306.461 1200.02C-305.553 1201.27 -313.359 1207.05 -309.927 1205.74C-307.606 1203.45 -305.284 1201.03 -303.602 1202.85C-304.611 1204.53 -308.817 1206.65 -307.639 1208C-304.342 1206.38 -300.405 1200.36 -298.05 1205.27C-294.382 1202.48 -301.28 1204.16 -298.05 1200.7C-297.444 1200.96 -296.738 1200.69 -295.93 1199.72C-292.296 1201.37 -294.551 1203.86 -294.214 1205.98C-289.234 1204.06 -291.387 1201.54 -292.094 1200.46C-288.157 1199.58 -291.926 1204.63 -288.628 1203.86C-284.389 1201.54 -280.621 1198.34 -279.039 1196.59C-280.015 1197.33 -280.89 1197.16 -281.731 1196.99C-280.015 1195.98 -280.216 1192.15 -277.895 1193.16C-278.702 1194.13 -280.183 1195.24 -279.611 1196.02C-273.756 1193.29 -268.171 1184.95 -262.922 1185.08C-261.812 1182.46 -266.051 1184.75 -264.436 1182.05C-260.836 1176.87 -258.447 1180.07 -255.216 1177.41C-255.62 1176.17 -259.086 1175.39 -257.337 1173.81C-254.342 1171.39 -250.876 1165.5 -248.689 1168.63C-249.093 1169.84 -254.039 1174.96 -251.381 1173.61C-248.185 1168.19 -243.877 1166.48 -244.449 1162.17C-240.647 1159.78 -241.892 1165.77 -238.696 1163.28C-237.989 1161.87 -240.782 1160.99 -239.47 1159.48C-237.417 1159.48 -226.852 1153.83 -232.942 1155.27C-229.174 1152.55 -228.635 1151.84 -223.924 1147.43C-224.631 1146.46 -226.313 1145.62 -225.472 1144.41C-210.499 1133.67 -201.986 1120.01 -188.965 1110.36C-189.671 1109.08 -191.589 1110.02 -190.681 1108.64C-185.466 1105.24 -181.125 1102.55 -180.486 1097.37C-179.678 1098.11 -179.577 1098.98 -179.543 1099.86C-177.424 1095.69 -172.107 1092.93 -168.406 1091.04C-168.238 1095.42 -174.16 1097.4 -171.3 1101.91C-166.32 1096.29 -168.709 1089.26 -161.509 1084.18C-161.778 1081.82 -165.647 1084.01 -163.83 1081.92C-160.768 1080.31 -160.398 1079.37 -159.793 1076.74C-157.875 1078.73 -155.385 1076.61 -153.063 1075.77C-149.093 1067.56 -139.301 1065.57 -137.114 1056.49C-123.319 1045.86 -105.923 1027.55 -98.3187 1015.57C-96.2326 1016.28 -93.4062 1011.91 -91.5892 1014.56C-89.3012 1008.1 -83.3115 1009.18 -82.7396 1003.49C-83.749 1004.37 -84.7249 1005.14 -85.4315 1003.9C-84.0856 1001.58 -83.7493 1001.51 -80.6201 997.977C-79.6443 998.784 -78.736 1000.03 -77.3564 998.145C-78.6014 992.022 -68.7761 989.531 -64.5029 986.47C-65.4114 985.124 -66.6899 986.369 -67.7666 986.302C-65.0748 983.038 -59.8932 977.116 -56.2257 979.37C-57.5716 981.927 -61.3732 979.606 -60.6329 982.634C-59.3879 981.726 -58.4796 983.004 -57.3692 982.802C-52.2885 971.228 -39.6369 960.764 -33.715 955.852C-31.5279 954.035 -32.5377 951.141 -31.5955 950.3C-29.072 948.046 -24.6304 948.685 -21.4339 943.604C-22.0396 944.547 -20.2902 942.562 -18.3723 940.543C-17.632 939.769 -10.8015 930.55 -6.46094 930.953C-4.67761 932.064 -11.6423 937.716 -8.58038 936.472C-6.02313 933.511 -5.75452 931.929 -2.4234 930.348C-5.99005 927.993 -0.80835 923.989 1.81616 923.854C0.234741 927.118 -3.09619 930.651 -2.22137 933.578C1.61444 927.925 8.04163 916.587 12.5504 922.273C11.9783 921.701 13.1895 920.221 14.098 920.759C12.382 925.301 14.8713 925.267 13.5255 929.305C18.4716 914.534 34.6226 914.568 36.3722 898.552C37.6508 899.461 36.7759 900.672 37.9199 901.58C40.3762 899.259 38.29 897.61 42.1594 895.087C43.0679 896.332 44.3134 895.491 45.2219 896.601C47.0052 894.38 49.125 892.126 49.4615 890.107C46.2986 893.741 43.6398 894.01 41.2172 892.631C47.2065 888.391 47.1055 883.311 54.6762 881.527C51.0423 884.017 54.0713 885.531 50.4374 888.021C52.5572 888.627 54.3403 891.352 56.9648 888.358C56.2582 887.382 54.576 886.541 55.4509 885.329C57.537 888.425 68.3712 879.206 72.7453 874.967C71.3994 872.039 69.1787 875.269 67.7655 873.116C69.3133 872.847 71.1304 871.064 72.9474 869.079C72.7455 872.073 73.0821 871.366 75.6393 873.251C78.6003 871.299 74.7978 870.323 76.9849 868.473C79.071 870.727 82.2001 865.613 84.4545 866.723C85.9014 861.474 88.4586 862.08 89.4343 864.032C90.7802 859.557 92.4962 858.951 92.698 855.082C95.1207 854.947 93.3716 855.889 94.9866 857.336C97.6785 853.466 97.6104 854.072 100.941 852.558C101.48 850.741 101.178 849.059 101.716 847.242C104.24 847.04 105.215 844.516 104.206 848.184C113.829 840.916 110.128 831.63 115.545 828.905C111.81 824.228 116.991 822.344 121.298 820.897C121.029 818.542 117.16 820.729 119.011 818.609C122.409 817.768 124.024 815.817 126.48 812.284C128.97 813.428 127.053 815.244 127.827 816.657C128.6 814.033 132.1 812.62 131.864 811.51C130.451 812.283 129.105 812.485 127.827 812.115C129.644 810.332 129.105 808.885 131.864 806.967C132.436 807.539 133.008 808.111 133.58 808.683C136.945 799.094 148.889 792.904 149.125 787.487C151.076 784.526 152.22 787.385 153.936 786.141C153.162 785.333 152.321 785.232 151.446 785.198C152.018 782.002 165.478 777.359 157.604 779.075C161.474 775.677 164.805 776.854 165.68 773.321C163.728 774.936 162.349 773.59 163.964 771.639C163.695 773.557 165.209 774.028 167.228 771.807C166.992 770.091 168.371 768.173 169.347 766.289C168.842 769.889 173.923 763.8 174.529 762.252C173.822 762.723 173.015 763.732 172.41 763.227C173.722 761.478 176.682 756.162 179.307 756.33C179.643 757.575 176.447 759.358 177.389 760.536C180.99 758.955 180.047 756.364 182.403 753.268C187.012 755.489 187.484 743.107 192.564 746.573C184.186 750.509 187.55 761.781 179.307 760.906C182.402 764.237 177.894 764.91 175.471 769.284C178.163 770.192 175.673 771.875 176.245 773.086C180.249 770.024 177.793 770.293 178.163 768.914C179.509 768.813 181.158 766.256 182.201 768.308C181.393 769.284 179.913 770.394 180.485 771.168C183.21 767.568 185.531 766.659 187.584 767.5C190.276 762.184 194.717 760.973 202.389 751.62C202.826 749.197 199.563 750.913 201.649 747.818C214.267 740.449 218.338 726.351 227.389 719.891C227.221 716.594 222.645 718.041 226.245 714.205C228.971 713.095 229.576 714.811 230.484 716.83C235.262 707.577 243.271 706.466 250.269 698.257C248.553 690.283 263.863 684.428 264.671 675.916C261.911 680.256 257.335 684.866 253.533 684.731C254.341 679.785 262.685 670.162 265.444 675.142C267.598 668.917 275.606 669.691 273.519 664.812C278.028 667.538 286.608 658.722 290.411 652.565C289.839 653.473 292.194 652.094 294.078 650.075C303.836 639.51 317.194 627.902 324.024 615.655C325 616.463 325.908 617.741 327.288 615.824C325.908 614.276 324.462 612.762 326.716 610.676C328.466 611.416 326.38 614.646 329.206 611.618C328.971 609.936 329.913 607.546 332.47 607.21C333.345 604.687 330.114 606.773 331.528 604.754C333.042 603.408 334.489 602.567 335.767 602.836C336.609 603.812 334.253 605.225 335.969 606.066C337.551 602.029 338.729 601.86 341.151 597.486C339.334 595.4 338.627 600.111 335.801 598.26C345.088 574.64 367.026 556.808 383.244 538.471C385.566 539.077 379.409 544.123 382.672 542.475C388.561 533.558 388.392 530.194 396.703 527.368C399.53 524.541 397.645 522.422 398.453 519.932C402.625 518.653 406.595 506.743 413.426 507.315C411.744 504.791 417.43 503.781 417.094 500.249C419.281 502.267 420.155 500.484 419.953 498.533C423.621 501.46 424.967 495.101 428.197 496.01C427.49 492.847 430.115 491.097 433.783 489.314C434.658 486.79 431.427 488.91 432.807 486.858C437.921 484.435 440.58 475.889 446.636 477.672C446.098 472.894 457.201 463.574 461.811 463.675C459.152 459.907 468.44 451.899 469.886 453.38C471.165 449.073 472.848 444.699 475.068 440.224C475.506 441.469 475.371 442.781 475.842 444.026C490.613 430.568 498.622 416.1 518.877 401.161C517.834 400.219 518.002 399.109 518.709 397.931C528.298 397.022 532.74 377.037 539.84 383.732C543.743 379.863 538.157 381.411 540.041 377.844C549.429 369.668 553.87 361.458 561.172 359.069C564.402 352.71 567.262 351.095 571.939 343.794C573.487 344.871 570.357 346.62 571.367 347.798C578.433 340.16 580.789 334.844 589.436 332.085C586.441 329.696 591.556 326.13 590.008 323.539C585.634 327.509 580.25 332.691 575.035 331.614C577.255 327.206 581.932 328.956 581.764 326.063C570.391 329.73 570.425 338.344 561.004 346.721C560.196 345.981 560.095 345.106 560.062 344.265C556.024 346.216 554.005 351.028 551.986 354.561C533.648 365.429 522.612 389.553 504.139 398.772C502.221 405.838 493.708 413.879 487.046 421.483C485.566 417.58 495.189 412.029 493.574 408.126C489.739 411.861 476.179 428.784 474.362 422.694C475.876 424.208 478.163 425.622 476.279 427.64C474.597 430.13 473.587 428.044 472.04 429.558C473.856 434.168 459.355 444.968 454.745 449.039C455.452 448.568 456.125 448.635 456.663 449.409C454.14 449.746 452.255 458.023 447.444 458.595C449.362 457.014 450.202 455.567 449.361 454.423C444.112 455.499 449.025 459.302 444.954 462.229C443.373 461.152 446.535 459.402 445.526 458.225C439.806 465.459 426.918 475.687 422.275 482.517C423.183 485.31 425.203 480.465 426.111 483.258C424.698 484.065 422.813 487.867 421.703 486.521C421.064 485.545 422.006 484.301 421.535 483.291C409.422 494.731 399.025 507.281 383.883 520.773C379.307 520.067 373.217 532.482 368.506 536.082C362.315 540.826 354.611 551.189 347.376 559.399C335.835 572.487 321.265 583.086 313.762 596.309C312.786 595.501 311.878 594.222 310.498 596.14C311.238 597.116 312.888 597.957 312.047 599.169C308.11 602.298 304.375 603.778 300.909 603.408C301.279 605.326 301.01 607.311 300.707 609.296C302.221 608.118 302.928 603.879 305.317 604.72C304.106 606.436 305.586 607.715 302.625 609.666C295.828 609.161 299.967 609.801 294.179 613.502C295.525 612.223 295.727 611.113 295.357 610.07C293.641 615.352 285.128 617.64 283.647 622.889C288.594 619.827 289.267 618.011 293.809 616.194C290.209 620.568 288.897 621.106 286.508 625.749C284.691 625.413 286.878 621.544 284.22 623.461C283.009 629.45 270.76 629.148 268.472 636.886C269.549 634.834 273.62 633.555 271.938 635.708C270.121 637.693 268.674 637.189 266.958 638.4C267.934 645.23 258.748 647.249 256.965 652.902C254.273 654.046 253.533 653.103 252.355 652.935C252.994 656.098 246.434 663.769 244.684 665.149C242.497 663.735 247.779 661.212 246.803 659.631C239.468 667.706 238.862 672.215 236.44 676.824C234.858 678.742 233.95 676.05 232.402 677.43C236.171 678.641 230.888 684.966 227.389 689.239C225.639 686.985 224.461 686.279 224.697 685.067C226.177 684.899 228.432 681.77 228.735 679.919C225.404 680.996 228.937 675.613 227.591 674.233C229.509 672.955 230.115 673.493 230.081 675.176C234.421 668.211 243.001 662.625 247.375 655.694C247.947 656.468 247.308 658.352 249.091 657.377C245.861 656.569 251.346 654.449 249.664 653.372C246.333 654.449 248.99 649.2 249.865 647.484C249.865 649.167 250.437 649.705 252.355 648.427C250.572 643.211 258.513 643.043 258.311 639.073C260.935 638.131 258.648 642.37 261.575 639.241C260.801 638.501 260.027 637.727 259.287 636.987C261.776 633.959 269.583 625.749 271.77 623.428C273.99 621.779 266.79 622.755 270.996 619.626C273.048 622.755 278.399 610.07 283.109 613.266C288.358 604.317 293.978 604.115 297.511 595.501C298.789 596.141 303.937 592.91 303.466 590.69C302.659 592.338 298.991 592.877 300.808 591.093C314.704 582.413 328.297 565.758 341.521 555.092C340.545 555.832 339.671 555.664 338.863 555.496C339.873 554.487 340.916 553.443 341.925 552.434C342.766 553.174 342.834 554.049 342.867 554.89C344.112 550.819 351.649 550.415 352.456 547.623C349.596 549.137 353.029 545.739 354.005 546.075C352.928 543.989 352.827 544.662 354.005 541.499C352.76 542.542 351.38 544.527 350.337 543.989C354.543 535.106 366.757 528.175 373.958 521.581C375.303 518.149 369.415 522.253 371.063 518.754C375.538 518.451 374.226 510.107 377.961 511.891C378.769 513.977 370.997 520.706 376.818 519.865C378.971 514.75 377.827 508.559 384.724 506.339C378.399 501.393 391.353 493.62 392.026 487.665C394.987 486.958 401.784 483.594 403.163 478.85C396.972 483.728 391.017 487.16 385.7 485.983C386.508 485.007 387.988 483.897 387.417 483.123C382.134 486.521 387.214 488.372 382.235 491.703C384.321 493.957 387.584 488.069 389.738 489.953C383.883 496.38 378.634 502.234 373.015 505.464C376.01 503.513 372.174 502.537 374.361 500.686C375.572 500.484 380.35 497.995 379.543 496.682C377.591 492.611 384.187 481.912 391.824 479.859C390.849 474.341 398.621 473.164 399.496 472.222C396.905 473.769 398.015 469.496 398.722 468.419C401.312 471.078 408.48 462.498 401.986 464.012C405.115 460.816 407.201 461.657 408.109 462.464C409.287 458.797 410.835 455.096 411.003 451.63C412.349 453.144 411.34 454.86 414.065 453.144C415.142 450.52 413.392 451.529 413.863 449.914C414.603 449.443 415.243 449.51 415.781 450.284C414.435 443.454 427.019 442.983 426.548 439.585C425.539 440.46 424.563 441.234 423.857 439.989C427.625 436.759 431.427 433.057 434.59 433.831C433.177 430.13 438.157 432.149 440.546 429.054C437.82 424.209 450.438 410.851 452.457 414.922C453.635 410.918 453.433 407.554 458.985 406.14C456.932 402.17 453.096 410.615 450.539 409.976C451.313 406.41 459.085 401.766 460.162 398.133C463.661 397.796 466.185 397.494 467.834 399.613C469.516 397.191 468.036 395.239 468.776 392.951C467.766 393.759 466.69 395.206 465.916 394.667C466.589 389.822 473.453 384.809 476.683 388.51C474.261 389.822 476.717 393.59 477.457 392.312C476.111 388.813 481.663 384.304 481.125 380.704C476.852 383.295 480.452 384.708 476.885 387.198C474.093 386.39 475.303 384.136 471.905 385.314C476.885 381.007 478.904 378.719 481.326 374.782C482.437 375.926 479.947 377.609 482.1 378.584C485.566 376.33 481.663 375.152 482.874 373.268C484.96 372.528 487.215 370.61 489.032 371.72C492.396 362.266 498.688 359.271 507.302 350.119C505.855 346.553 502.693 354.696 500.943 353.013C506.394 341.405 515.95 333.128 521.905 321.891C522.545 322.866 521.603 324.111 522.107 325.12C524.16 317.954 530.418 317.483 529.005 313.681C543.003 305.236 565.714 278.487 579.14 271.758C584.927 265.836 589.099 254.699 597.376 254.733C598.117 249.45 608.043 244.47 608.716 240.029C607.404 241.072 607.639 239.222 608.345 238.112C622.948 228.421 623.554 217.049 639.469 204.835C636.104 202.346 630.485 215.468 627.558 209.849C619.55 217.015 615.344 217.385 608.345 224.417C609.153 223.408 610.633 222.331 610.095 221.557C609.355 222.029 608.548 223.072 607.976 222.533C611.845 219.337 613.662 216.477 613.158 213.953C608.11 219.909 601.448 227.58 594.348 230.406C593.238 226.47 606.092 219.337 605.486 217.049C599.699 220.75 594.011 223.61 588.022 228.758C588.695 224.485 585.499 230.844 584.187 228.018C586.138 223.173 589.402 222.634 591.287 219.808C590.547 220.918 586.98 220.817 588.797 218.866C592.027 217.217 591.488 216.443 594.18 213.516C595.055 214.155 592.8 218.327 595.728 216.544C597.275 212.137 600.338 204.028 605.351 204.701C604.409 203.456 603.231 204.331 602.289 203.187C604.24 201.37 606.092 199.587 606.327 198.039C606.899 198.611 607.471 199.183 608.043 199.755C611.542 193.968 612.787 190.771 613.258 186.599C616.353 184.58 626.718 176.539 625.742 173.006C620.896 176.135 618.171 184.513 611.744 183.538C601.582 194.102 588.157 205.138 582.538 212.607C578.938 217.419 571.401 221.759 568.137 225.831C564.839 229.935 560.667 236.967 555.452 236.193C558.985 235.049 559.691 230.036 563.695 229.094C564.57 226.571 561.306 228.69 562.753 226.638C604.308 192.588 634.288 139.528 678.4 100.061C672.881 95.2161 686.812 85.4922 692.027 83.0696C690.816 77.9554 699.227 76.5088 697.41 73.1442C694.247 73.7498 690.21 80.4789 687.417 78.5275C686.845 77.0807 683.11 76.1386 684.725 74.3554C693.002 64.026 703.13 63.3868 705.082 56.3548C700.304 61.2671 692.128 60.7623 684.927 68.4673C685.937 67.2897 681.327 62.7476 682.034 65.6411C686.812 68.7366 679.14 69.8804 679.544 73.8506C676.785 76.3404 674.496 75.4993 672.242 74.288C672.074 69.5439 678.971 63.7232 679.745 58.8445C677.222 56.5902 673.689 58.2727 672.074 61.9401C655.856 69.1404 641.253 94.3074 626.919 105.747C625.371 107.261 624.395 105.175 622.713 107.665C616.488 115.034 608.446 129.199 597.545 131.588C593.709 137.274 589.032 140.537 583.716 145.349C584.961 147.132 583.951 149.252 580.822 151.641C580.957 149.252 580.015 151.002 578.534 149.387C580.318 147.166 582.471 144.878 582.774 142.893C580.99 143.061 578.668 146.896 577.39 143.7C582.572 138.586 581.798 134.346 586.038 129.4C584.322 130.612 583.009 129.165 581.058 132.092C581.058 138.62 572.645 146.358 575.472 152.448C573.251 153.693 569.651 152.314 569.92 150.026C561.037 152.886 554.947 164.594 546.871 168.43C544.718 166.344 547.646 163.518 547.242 161.196C541.354 166.412 546.535 158.875 545.155 157.596C542.968 163.585 535.365 170.348 530.553 176.707C485.162 208.2 447.578 259.51 407.234 292.685C397.746 305.034 386.306 316.709 379.576 324.784C377.692 331.783 369.92 342.246 364.2 344.635C363.224 348.605 351.75 359.978 348.25 363.915C353.028 359.171 347.207 363.376 345.76 362.972C352.086 356.411 357.47 352.811 355.755 348.471C356.932 347.831 358.109 347.327 359.219 347.293C358.748 348 357.706 348.807 358.244 349.379C364.099 345.173 353.433 346.755 357.302 342.347C360.902 344.803 362.113 336.459 365.377 341.17C363.257 343.862 360.869 342.953 362.114 345.544C369.28 338.949 374.899 331.715 377.86 327.577C373.183 328.182 370.492 336.224 366.319 339.05C364.772 339.084 363.426 337.704 361.911 337.738C356.461 340.362 354.61 345.981 349.63 345.409C358.244 332.994 359.859 338.983 366.724 331.816C366.286 332.253 365.377 332.22 366.151 331.244C370.593 325.894 373.755 324.582 377.086 319.199C379.677 318.29 388.594 316.675 384.018 312.301C381.528 315.767 377.995 319.636 374.597 318.257C366.891 323.741 367.564 331.917 361.138 333.936C364.233 330.437 365.814 327.173 365.175 324.212C361.508 327.139 365.041 329.023 360.768 332.051C360.129 331.076 361.071 329.831 360.566 328.822C358.042 333.465 352.389 341.001 348.452 339.723C353.836 332.354 359.287 326.366 363.056 320.612C363.796 321.487 365.411 322.631 364.974 320.982C364.57 320.612 364.2 320.208 363.829 319.838C354.442 324.245 356.191 331.984 347.51 332.657C351.312 329.595 352.524 324.582 356.729 323.472C354.946 319.064 361.945 310.989 366.925 307.624C352.221 314.118 350.842 329.259 341.959 339.319C339.233 337.94 345.323 331.917 340.243 333.061C333.008 346.89 313.358 355.94 303.937 365.799C311.036 354.695 318.17 345.846 326.817 339.622C329.375 337.401 323.183 339.925 325.841 337.166C334.152 333.061 344.886 318.627 353.13 307.725C353.668 308.836 353.197 309.576 354.846 309.441C355.317 300.66 367.362 295.142 370.996 288.816C370.289 289.287 369.482 290.297 368.877 289.758C381.595 279.698 397.039 264.456 404.812 250.56C405.586 251.334 406.36 252.075 407.101 252.815C416.791 238.852 431.898 218.832 448.419 208.267C447.039 207.157 447.208 205.845 448.991 204.263C483.951 172.535 516.522 128.357 549.664 99.4553C548.386 100.599 547.073 102.181 546.199 100.633C563.763 89.53 574.867 75.8022 587.888 62.5455C590.412 61.7717 592.7 62.6129 595.156 62.1418C592.666 59.6856 592.7 61.94 589.604 59.7194C598.083 56.3211 606.226 47.8421 611.475 40.1707C612.047 40.7427 612.618 41.3148 613.224 41.8867C615.815 34.8883 621.401 27.8226 627.424 25.4337C626.448 26.2412 625.674 25.3667 624.934 24.4919C628.434 20.0506 631.495 16.4503 633.783 17.9643C635.331 15.3736 638.393 12.9849 641.657 13.5569C644.079 10.125 638.763 10.8649 639.739 8.6106C671.536 -17.8353 710.769 -58.4125 741.724 -91.8232C714.672 -66.3867 687.081 -41.3538 661.812 -12.2499C660.331 -13.9995 657.471 -6.56366 656.259 -10.1302C643.339 6.62564 619.214 21.1943 607.841 38.0847C607.034 37.5464 606.327 36.3354 605.351 37.1429C608.177 38.6906 605.923 40.9786 605.149 43.031C601.01 42.0889 598.016 50.1975 591.522 50.9041C593.002 54.437 581.024 61.2334 578.669 62.5792C578.669 64.0933 580.082 65.4055 578.669 67.1551C576.112 65.5064 575.136 71.1255 571.569 70.7891C571.872 75.5669 566.253 78.0565 563.292 82.4305C559.187 79.6379 556.327 86.0306 552.356 89.8999C551.482 92.4234 554.712 90.3036 553.332 92.356C532.235 110.39 514.739 130.646 491.084 149.757C491.556 149.05 492.599 148.243 492.06 147.671C489.268 149.588 492.161 150.699 489.368 152.616C487.854 151.001 486.912 152.751 487.08 150.362C484.59 155.14 478.467 158.606 474.193 162.038C475.135 164.696 476.784 162.239 478.029 162.778C475.943 164.393 477.423 165.469 474.765 167.185C473.621 166.041 476.145 164.359 474.025 163.383C469.684 166.209 473.352 167.824 469.012 170.651C466.724 167.488 464.503 173.881 460.566 174.52C461.172 178.12 460.869 178.49 462.484 179.466C459.86 181.014 457.941 182.158 458.446 184.614C457.874 184.042 457.303 183.47 456.731 182.932C455.721 184.917 451.818 193.194 448.285 191.343C452.323 188.719 452.558 182.427 459.052 180.61C454.072 176.337 444.819 196.626 437.921 194.809C454.24 177.145 468.204 165.166 486.138 147.94C485.465 146.661 483.514 147.637 484.422 146.224C486.105 145.214 488.257 141.042 489.603 142.186C490.142 144.474 484.994 144.003 487.686 146.392C491.791 142.826 498.621 135.221 500.169 132.832C498.588 134.313 493.641 136.197 494.987 132.294C511.306 121.46 525.943 103.123 538.392 91.3469C556.461 74.2883 575.606 58.037 595.829 39.868C596.199 40.2382 596.603 40.6418 596.973 41.0119C601.482 31.2209 611.71 28.8658 614.469 20.1851C617.128 18.6037 619.752 17.0223 621.973 18.4354C622.982 16.7531 627.188 14.6333 626.01 13.2875C622.847 16.854 620.089 17.7624 617.767 15.8109C621.805 11.3023 633.48 0.333893 639.671 -3.73727C644.685 -13.0236 657.673 -22.1754 661.946 -30.486C655.789 -27.7607 649.429 -13.764 643.137 -18.5754C649.328 -22.0746 649.16 -29.645 656.394 -32.9087C654.241 -34.6919 655.99 -36.3741 659.86 -38.6284C658.85 -46.7371 675.203 -53.7356 678.501 -62.921C681.63 -63.3248 684.961 -65.1081 688.292 -66.9586C686.912 -69.2465 684.726 -64.9735 685.23 -68.439C683.548 -67.4297 681.428 -63.2575 680.048 -64.4351C695.594 -81.9984 706.192 -95.3222 720.19 -110.126C714.705 -115.342 727.457 -119.413 728.635 -123.114C722.545 -122.307 734.524 -129.944 737.283 -132.871C744.08 -140.004 750.035 -149.291 752.861 -154.069C746.636 -153.295 746.199 -145.321 739.975 -142.393C738.898 -143.975 738.292 -145.623 739.402 -147.508C740.984 -147.171 744.618 -152.588 742.296 -153.799C738.797 -148.82 735.735 -147.575 731.159 -144.984C733.952 -151.108 736.307 -160.428 744.82 -161.975C745.594 -167.796 752.29 -172.136 757.875 -179.539C753.4 -181.322 761.542 -187.547 766.32 -192.526C767.531 -198.885 762.586 -196.564 767.869 -203.192C764.773 -202.351 764.941 -199.087 762.687 -199.154C761.509 -203.327 760.129 -207.465 765.95 -212.68C766.59 -211.704 765.648 -210.459 766.152 -209.45C769.82 -213.723 772.848 -219.746 772.478 -221.462C777.424 -223.548 775.068 -224.456 777.289 -227.384C780.822 -232.027 789.201 -236.165 787.855 -241.313C783.716 -239.765 782.068 -233.776 777.862 -235.93C779.241 -240.371 784.49 -239.429 782.673 -241.851C778.871 -241.246 773.69 -231.354 770.392 -234.18C771.94 -235.728 773.454 -237.242 775.001 -238.79C773.353 -240.573 769.382 -236.401 770.022 -240.674C769.214 -239.261 765.378 -237.377 766.758 -236.266C768.339 -238.049 769.685 -238.251 770.795 -236.872C768.878 -234.853 764.335 -231.085 761.004 -228.258C762.956 -237.107 775.876 -249.691 782.707 -255.579C782.236 -257.261 781.361 -258.876 782.135 -260.727C778.501 -257.228 774.934 -253.728 780.217 -256.521C777.559 -253.392 775.506 -254.233 773.319 -254.2C776.146 -262.443 778.333 -257.833 782.538 -263.385C779.375 -261.03 777.289 -260.929 778.13 -264.664L777.525 -265ZM580.654 331.11C582.067 333.7 578.635 334.441 576.818 334.945C575.674 333.431 579.88 331.244 580.654 331.11ZM463.46 454.658C462.652 455.937 460.162 460.008 458.278 463.238C458.245 462.363 458.143 461.522 457.336 460.748C459.658 458.662 461.105 456.711 460.802 455.028C461.778 454.355 462.45 455.634 463.493 454.625L463.46 454.658ZM184.893 766.256C183.95 765.246 182.84 765.347 181.629 766.087C180.485 764.741 182.301 762.958 184.32 761.141C184.152 763.631 186.003 761.68 185.835 764.17C187.551 762.958 189.704 758.786 190.815 761.478C189.031 761.68 186.911 764.237 184.859 766.289L184.893 766.256ZM-354.308 1139.12C-352.996 1140.77 -356.428 1139.66 -357.404 1142.18C-357.976 1141.61 -358.548 1141.04 -359.12 1140.5C-357.774 1138.65 -356.697 1138.85 -355.452 1138.01C-355.419 1138.99 -355.351 1139.96 -354.308 1139.16V1139.12ZM-646.436 991.281C-651.113 993.805 -652.626 1001.71 -656.227 999.895C-655.15 997.035 -649.969 988.859 -646.436 991.281ZM125.875 293.964C122.611 298.372 119.212 302.207 113.593 306.211C116.251 300.895 120.861 297.194 125.875 293.964ZM772.545 -253.156C773.656 -252.013 771.166 -250.33 773.319 -249.354C771.166 -246.663 769.584 -247.672 767.363 -244.577C766.825 -245.351 768.272 -246.461 769.079 -247.437C768.541 -248.211 767.868 -248.278 767.161 -247.807C766.421 -249.489 771.368 -253.056 772.545 -253.156ZM759.052 -200.971C759.49 -199.087 757.337 -196.799 754.813 -194.478C753.534 -196.463 756.091 -199.02 757.135 -201.341C757.673 -200.568 758.346 -200.5 759.052 -200.971ZM736.341 -144.177C736.778 -142.091 731.832 -133.982 729.409 -137.279C733.11 -139.836 732.471 -140.442 736.341 -144.177ZM591.219 -113.626C595.089 -115.678 587.417 -105.012 585.835 -108.276C587.181 -109.319 590.782 -111.91 591.219 -113.626ZM568.373 -96.5672C570.223 -96.0625 565.614 -91.5538 568.575 -93.3371C568.743 -92.0249 562.517 -84.4208 561.071 -87.0116C565.478 -90.4772 566.286 -93.4381 568.373 -96.5672ZM602.592 243.192C604.274 244.975 598.925 249.518 597.007 249.888C596.065 246.658 601.28 244.235 602.592 243.192ZM466.992 171.963C469.718 174.083 464.166 175.765 462.955 177.111C461.407 175.563 465.209 172.165 466.992 171.963ZM378.802 263.178C375.842 261.664 382.437 258.737 381.697 256.886C380.384 256.65 379.913 259.207 377.288 260.149C375.303 273.743 356.528 284.375 345.76 296.084C336.945 305.673 331.629 316.103 324.26 322.059C323.183 321.991 321.905 323.236 320.996 321.891C319.92 326.096 314.873 327.274 311.777 331.076C308.85 330.268 311.205 328.754 307.571 332.994C307.908 330.47 306.225 331.48 304.711 330.167C306.393 327.711 307.369 329.864 308.748 329.562C308.95 327.577 309.758 325.49 308.95 323.674C310.868 322.53 312.45 323.674 314.334 322.866C315.714 321.15 314.267 319.838 315.68 318.122C312.248 317.786 308.278 325.087 303.601 324.481C307.033 320.376 309.758 321.319 313.19 317.18C310.431 318.089 307.436 320.713 304.542 322.361C299.966 330.975 306.326 335.517 299.529 343.323C301.346 344.265 303.702 341.674 305.855 340.429C302.961 348.908 293.91 351.163 292.799 357.993C291.218 358.43 289.401 360.314 288.022 359.372C286.238 361.896 283.816 368.894 280.923 367.582C279.543 369.096 282.302 370.004 280.35 371.586C271.534 372.965 266.386 388.544 258.445 391.101C257.234 397.426 247.51 406.006 243.472 408.294C243.775 416.705 227.792 429.02 219.65 432.014C213.963 438.172 216.083 439.013 210.633 444.43C212.449 442.949 217.53 441.805 217.16 440.19C219.179 442.411 215.175 445.742 209.69 451.058C209.825 450.957 209.825 449.578 210.666 448.972C201.918 455.735 192.665 477.74 176.682 479.422C179.946 476.36 182.47 473.366 183.21 470.64C182.335 473.332 170.928 479.287 173.418 483.83C171.298 486.521 169.549 486.252 167.867 485.949C166.79 484.368 165.646 482.786 168.641 480.599C167.564 478.951 165.478 484.402 164.637 481.205C169.516 476.158 173.89 474.678 178.836 469.328C175.909 469.866 172.174 472.625 167.127 477.571C175.269 463.406 182.032 455.769 195.559 444.699C192.867 442.176 189.031 447.458 186.171 446.078C195.558 439.181 197.544 430.197 204.206 425.823C204.61 426.193 204.979 426.564 205.35 426.968C206.931 427.809 205.35 429.155 204.206 430.4C207.268 430.736 207.975 425.992 204.98 425.083C207.504 422.526 207.84 420.306 211.305 417.614C212.449 418.96 210.599 420.743 208.613 422.56C213.358 422.694 215.781 414.316 218.405 409.404C220.256 405.804 220.828 410.851 222.443 408.799C224.327 404.66 240.512 387.904 246.063 386.424C247.308 383.698 247.275 382.858 244.718 382.05C247.141 378.955 249.26 377.945 251.043 379.156C251.144 373.369 258.21 370.98 263.123 368.255C265.781 365.496 259.59 368.019 262.181 365.799C264.099 363.814 263.527 365.294 264.099 366.169C267.026 363.342 263.964 361.425 268.54 358.363C269.347 360.415 270.626 362.4 272.948 364.217C274.563 362.468 270.828 361.492 270.256 360.045C273.015 356.21 274.832 358.7 277.356 356.378C273.722 355.032 274.865 346.082 281.191 348C279.004 351.095 277.322 350.591 275.438 351.465C276.952 352.778 278.668 351.802 278.298 354.292C280.418 349.043 282.066 350.119 286.575 347.192C285.532 345.577 285.7 342.011 281.393 342.078C284.691 340.531 288.123 338.007 291.386 336.695C292.766 338.242 289.939 340.396 287.921 342.415C286.709 343.895 291.218 343.391 292.329 343.727C293.742 341.675 290.512 343.761 291.386 341.237C293.372 339.622 295.189 339.252 297.342 336.459C299.765 336.325 298.015 337.233 299.664 338.714C302.826 332.186 296.602 330.538 302.187 325.962C301.144 325.592 300.034 325.76 298.721 327.139C302.389 313.883 321.67 308.297 324.664 297.867C328.332 296.69 327.456 298.674 329.071 294.603C333.547 296.05 331.192 300.256 329.644 304.293C328.13 303.419 328.634 302.275 328.096 301.266C323.957 304.529 315.546 307.894 313.493 315.8C320.223 308.802 326.885 306.75 332.706 301.232C333.648 303.856 333.884 303.082 336.34 303.284C338.426 300.121 330.99 302.073 333.076 298.54C335.835 298.977 338.425 291.07 344.213 289.725C345.088 288.446 343.271 288.682 342.296 289.355C342.094 286.663 346.804 288.278 348.823 285.149C347.746 285.149 346.568 285.687 345.357 286.293C344.146 284.106 347.544 285.216 348.419 283.231C347.847 282.726 347.04 283.736 346.299 284.207C345.054 282.423 349.697 279.799 349.193 277.915C351.548 277.848 355.989 276.771 355.148 273.137C367.8 265.701 379.004 254.867 389.536 244.605C390.108 245.177 390.68 245.749 391.252 246.321C396.501 236.799 404.509 231.382 411.609 223.778C410.397 233.435 397.915 239.558 390.277 248.441C386.105 253.353 384.657 259.342 378.937 263.144L378.802 263.178ZM434.523 200.865C433.648 210.286 419.617 216.746 413.19 225.528C414.637 217.116 428.635 207.089 434.523 200.865ZM298.688 149.218C298.654 154.097 294.146 155.611 290.411 160.86C291.016 157.529 294.145 151.069 298.688 149.218ZM314.435 330.706C316.185 331.984 315.276 333.633 313.089 335.45C312.517 334.878 311.945 334.306 311.339 333.734C312.349 332.724 313.392 331.715 314.402 330.672L314.435 330.706ZM190.579 219.27C190.478 222.533 185.027 224.653 182.873 226.941C182.873 224.182 188.56 220.616 190.579 219.27ZM298.52 331.749C296.266 333.969 293.472 330.369 293.742 328.552C297.174 326.164 296.602 330.268 298.52 331.749ZM295.66 333.465C296.198 334.239 294.751 335.349 293.944 336.325C292.934 334.07 291.386 335.921 290.309 334.272C292.362 332.253 293.876 333.902 295.693 333.465H295.66ZM194.818 235.588C195.491 237.472 191.554 242.586 189.636 239.592C191.554 236.833 193.035 237.371 194.818 235.588ZM164.67 253.05C162.618 254.531 159.589 255.843 159.286 258.4C156.763 259.645 161.676 249.013 164.67 253.05ZM288.526 378.181C290.074 380.536 285.7 382.723 283.715 384.102C282.234 381.242 286.373 380.603 288.526 378.181ZM156.427 251.032C158.883 253.286 150.505 257.122 151.211 259.611C148.351 262.135 150.067 255.708 148.149 258.097C149.663 255.876 153.533 253.387 156.427 250.998V251.032ZM381.292 500.081C382.234 501.46 380.35 503.277 381.292 504.656C379.845 505.599 378.836 503.512 377.053 506.574C375.505 504.858 379.206 502.335 381.292 500.081ZM372.443 506.608C369.314 510.141 367.564 514.111 363.022 517.139C361.878 513.64 369.651 509.064 372.443 506.608ZM384.522 523.061C381.326 523.801 380.687 527.94 378.567 527.839C375.976 526.224 383.648 519.764 384.522 523.061ZM371.097 511.352C372.039 513.135 370.525 516.668 367.631 517.072C367.968 515.12 368.809 511.655 371.097 511.352ZM358.244 523.027C357.841 525.82 356.663 528.747 353.231 530.295C351.851 529.185 355.687 527.334 356.495 525.921C355.384 524.575 353.5 528.377 352.087 529.185C352.423 525.383 355.149 525.281 358.244 523.061V523.027ZM336.34 551.66C338.46 555.193 330.013 557.716 329.812 560.442C329.307 556.471 333.917 555.832 336.34 551.66ZM330.956 552.468C331.259 554.453 325.673 559.029 324.058 559.365C322.376 558.289 327.861 556.202 324.631 555.361C326.649 554.991 328.836 553.578 330.956 552.468ZM217.665 445.338C213.863 453.952 210.835 457.047 204.98 464.82C204.172 463.406 208.446 461.253 204.98 460.244C210.902 455.029 212.887 450.385 217.665 445.338ZM327.894 560.072C327.12 562.393 323.083 571.545 317.901 570.031C322.073 568.786 324.698 563.234 327.894 560.072ZM319.449 559.365C320.593 561.115 319.448 564.58 317.329 564.883C317.026 563.201 316.757 561.485 319.449 559.365ZM317.901 565.455C316.151 568.988 310.667 573.194 306.932 577.501C305.552 573.059 315.243 570.401 311.743 567.003C313.123 565.152 314.166 565.388 315.411 564.513C314.671 566.33 314.839 569.291 317.901 565.455ZM65.1746 349.85C67.9 350.961 63.694 353.114 62.4827 354.796C59.9591 353.383 63.1221 350.086 65.1746 349.85ZM298.116 584.028C293.271 590.993 284.522 598.058 276.783 608.691C279.845 610.508 279.98 604.451 283.311 604.451C284.96 606.605 279.779 609.767 277.558 612.459C273.924 611.921 275.842 608.556 272.376 607.345C282.066 598.26 286.979 590.219 298.116 583.994V584.028ZM164.266 482.551C166.924 485.411 161.844 489.415 158.109 493.217C155.754 489.785 161.204 485.344 164.266 482.551ZM158.849 497.019C161.642 499.912 146.837 509.098 156.36 500.653C156.595 499.542 157.47 498.331 158.849 497.019ZM266.387 621.274C269.213 622.822 263.493 625.614 262.147 627.768C261.642 625.009 263.527 625.11 266.387 621.274ZM258.513 625.682C259.758 627.465 258.446 629.618 256.965 631.772C257.066 630.661 256.494 629.686 255.417 628.744C256.427 627.734 257.47 626.691 258.479 625.682H258.513ZM246.4 650.277C246.703 651.018 245.458 655.021 243.91 653.911C243.17 654.685 244.011 655.19 244.28 655.795C241.555 657.545 242.564 655.795 241.218 654.281C243.17 651.522 244.482 653.003 246.4 650.244V650.277ZM238.156 657.377C238.19 658.352 238.257 659.328 239.3 658.52C240.68 659.631 236.844 661.482 236.036 662.928C235.734 661.246 235.464 659.53 238.156 657.41V657.377ZM224.899 680.828C226.211 683.452 221.669 683.755 220.659 687.322C217.867 685.774 223.553 682.981 224.899 680.828ZM242.161 702.395C238.527 704.717 234.892 707.038 232.167 703.203C235.43 703.337 239.132 700.376 242.161 702.395ZM223.957 687.49C223.755 689.509 220.659 694.488 225.505 690.518C226.918 694.017 220.895 695.632 218.405 698.728C219.045 694.253 220.626 692.907 223.99 687.49H223.957ZM-32.9411 441.873C-33.1094 444.362 -31.2589 442.411 -31.4271 444.901C-37.551 448.568 -38.8633 449.847 -43.3384 454.49C-43.7086 450.856 -36.5751 446.112 -32.9748 441.873H-32.9411ZM231.259 705.322C234.624 706.836 227.456 714.003 225.875 710.672C229.105 708.384 228.298 705.693 231.259 705.322ZM215.915 693.244C217.631 695.027 212.247 699.569 210.363 699.939C211.238 696.978 213.358 697.046 215.915 693.244ZM-45.425 455.466C-42.5986 456.845 -48.4195 460.513 -49.4626 460.614C-49.9 458.898 -47.6458 455.735 -45.425 455.466ZM209.388 711.177C211.272 712.691 208.681 715.887 206.696 716.123C206.494 714.642 207.403 712.96 209.388 711.177ZM198.62 730.994C193.136 735.739 191.387 742.266 186.71 745.126C184.388 743.948 186.339 742.131 184.018 740.954C186.238 740.819 189.165 735.604 190.948 738.632C189.973 735.503 195.794 733.552 198.62 730.994ZM196.501 731.97C194.246 732.307 192.497 729.245 195.929 726.856C197.039 732.542 199.058 723.121 202.659 725.846C199.058 728.505 199.933 728.404 196.501 731.97ZM198.957 751.148C198.587 754.85 196.467 754.614 193.573 756.498C193.943 752.763 196.063 753.033 198.957 751.148ZM-128.197 523.061C-127.053 523.767 -127.962 524.743 -127.255 525.517C-129.61 528.108 -131.528 527.771 -133.985 531.069C-135.465 528.949 -130.755 523.734 -128.231 523.061H-128.197ZM132.166 794.889C132.335 798.657 127.019 799.431 128.331 803.266C123.99 806.799 121.265 807.035 119.885 811.678C118.91 810.736 117.967 809.794 116.991 808.852C121.971 805.386 126.076 798.556 132.166 794.889ZM-140.68 536.62C-144.382 538.471 -144.314 540.423 -147.41 542.172C-149.025 540.019 -142.363 534.097 -140.68 536.62ZM117.934 811.308C118.304 816.658 111.877 822.546 106.965 823.353C106.729 828.938 105.854 833.75 97.7451 837.115C98.0816 833.515 105.585 830.251 102.153 824.733C109.488 819.248 113.761 813.192 117.9 811.342L117.934 811.308ZM108.916 805.487C110.565 807.136 105.956 811.14 104.105 811.409C103.028 809.39 103.97 807.068 106.426 804.545C107.167 805.42 107.907 806.295 108.916 805.487ZM100.875 811.24C102.456 813.831 97.6779 814.168 95.2889 817.936C94.3468 816.826 93.1357 817.667 92.2273 816.422C95.1546 814.403 98.1158 812.149 100.875 811.24ZM-179.24 548.834C-179.88 551.492 -181.764 553.343 -184.052 554.756C-185.499 551.795 -181.495 552.03 -179.24 548.834ZM109.32 834.759C110.498 836.105 106.292 838.259 105.282 839.941C105.686 837.047 103.869 838.931 101.85 841.085C100.47 837.888 106.897 836.711 109.353 834.759H109.32ZM96.8365 830.082C97.4086 830.654 97.9806 831.226 98.5526 831.798C97.274 833.077 95.9957 834.355 94.7172 835.634C92.6983 834.187 96.0291 831.967 96.8365 830.116V830.082ZM-187.316 554.587C-187.013 556.27 -188.46 558.221 -190.782 560.307C-191.724 558.558 -190.21 554.991 -187.316 554.587ZM-180.99 565.388C-179.981 566.532 -184.321 567.777 -185.398 568.652C-186.845 565.556 -182.74 565.253 -180.99 565.388ZM-184.86 573.766C-183.48 575.314 -186.307 577.467 -188.326 579.486C-190.378 577.871 -187.047 574.069 -184.86 573.766ZM-194.281 579.721C-193.306 578.947 -193.271 579.856 -193.709 580.293C-192.43 582.009 -190.277 577.77 -189.099 580.293C-191.186 581.908 -189.705 582.985 -192.363 584.701C-193.204 584.533 -194.046 584.364 -195.055 585.105C-196.468 583.557 -192.868 581.302 -194.281 579.755V579.721ZM83.5123 862.652C82.7048 862.114 81.6285 863.561 80.6191 864.368C78.8022 864.032 80.9886 860.196 78.3305 862.114C78.1959 860.465 83.2766 860.835 85.0599 861.104C82.5364 863.998 84.7573 864.536 81.0224 866.286C80.4841 865.276 82.4692 863.897 83.5123 862.652ZM-213.09 573.362C-211.004 575.044 -214.739 580.125 -216.926 577.198C-216.657 575.482 -214.839 573.631 -213.09 573.362ZM-201.785 586.046C-199.631 587.46 -202.323 589.613 -201.212 591.161C-202.625 591.8 -203.871 591.363 -205.048 590.421C-204.645 589.075 -203.736 587.628 -201.785 586.013V586.046ZM65.8474 871.131C65.9147 872.006 65.9821 872.847 66.7896 873.621C65.7129 874.294 63.8284 874.563 64.8715 873.251C63.7948 873.15 62.5163 874.428 61.6078 873.082C62.6509 872.746 63.6937 872.41 63.1554 871.568C64.1312 870.862 64.8043 872.174 65.8474 871.165V871.131ZM62.7858 878.768C60.094 877.052 59.7913 877.086 59.5221 874.024C61.8774 874.024 65.915 875.505 62.7858 878.768ZM-228.096 599.707C-227.558 600.481 -226.886 600.548 -226.179 600.077C-226.717 602.971 -228.837 600.279 -230.788 604.653C-231.495 603.408 -232.471 604.182 -233.48 605.057C-233.379 602.129 -228.938 603.913 -228.096 599.707ZM30.1479 872.51C27.086 881.023 11.944 893.977 7.67078 900.605C6.32483 894.784 22.7455 880.922 30.1479 872.51ZM25.7062 884.892C26.2782 885.464 26.8502 886.036 27.4222 886.608C25.6052 888.56 23.7882 890.376 22.2404 890.612C20.8609 889.064 23.6537 886.945 25.7062 884.892ZM22.072 891.958C22.644 892.53 23.2161 893.068 23.7881 893.64C22.0721 894.851 20.2553 896.736 18.9767 895.02C19.9861 894.01 21.0289 892.967 22.0384 891.958H22.072ZM27.4222 904.844C27.9269 905.652 26.9512 905.921 26.6484 905.618C26.6484 910.867 24.5286 904.71 22.4088 907.536C21.8704 906.526 23.8556 905.147 24.8987 903.902C25.6389 904.777 26.4128 905.652 27.3885 904.844H27.4222ZM0.740051 907.469C2.5907 909.588 -2.45667 912.718 -3.66797 915.308C-5.28308 911.708 -0.572205 911.035 0.740051 907.469ZM-319.517 649.705C-319.719 651.623 -321.839 655.257 -324.328 655.627C-325.271 654.012 -320.762 651.623 -319.517 649.705ZM-114.335 1002.69C-124.631 1005.04 -122.814 998.28 -113.157 990.137C-114.671 989.936 -116.454 991.786 -118.137 992.829C-120.324 991.416 -115.042 988.892 -116.017 987.311C-114.806 986.436 -113.931 988.119 -112.955 988.825C-106.057 980.817 -105.788 979.976 -97.9482 971.632C-94.7181 972.776 -94.045 967.763 -90.2766 968.536C-88.6951 965.946 -93.9102 969.579 -92.5643 966.282C-86.7097 961.37 -85.6672 963.456 -80.6538 956.693C-82.1679 954.943 -84.994 962.379 -86.2053 958.813C-81.7639 956.188 -79.4756 952.891 -77.5577 949.055C-75.9763 950.132 -75.472 951.343 -75.4384 952.656C-73.2512 950.805 -73.7223 949.358 -75.4384 948.08C-72.1409 943.571 -69.6509 944.412 -66.9927 944.244C-66.7908 952.521 -85.0278 961.942 -87.1475 970.05C-97.7465 977.722 -105.62 986.335 -115.782 995.117C-114.604 996.059 -112.821 992.862 -111.542 993.199C-109.86 995.083 -115.142 998.953 -116.724 997.237C-117.733 1000.53 -117.397 1001.17 -114.234 1002.75L-114.335 1002.69ZM-361.004 663.635C-360.264 665.452 -362.686 669.119 -364.47 669.354C-364.772 667.672 -363.326 665.721 -361.004 663.635ZM-367.33 661.952C-364.504 663.534 -368.777 667.807 -370.392 665.014C-369.349 664.005 -368.339 662.962 -367.33 661.952ZM-324.766 703.909C-325.169 706.365 -331.832 713.599 -333.413 709.091C-329.443 708.216 -327.827 706.13 -324.766 703.909ZM-365.21 670.129C-366.859 677.026 -376.751 681.03 -380.015 686.01C-379.443 683.957 -379.813 682.073 -381.159 680.323C-377.188 676.555 -372.142 675.815 -370.022 671.508C-368.508 671.676 -367.161 673.089 -365.21 670.129ZM-89.1331 951.377C-88.3928 953.228 -93.204 955.885 -94.6846 958.073C-96.0977 953.9 -92.4642 954.338 -89.1331 951.377ZM-348.925 698.357C-348.992 699.468 -348.454 700.444 -347.377 701.386C-349.329 704.178 -350.439 701.319 -352.391 704.078C-353.77 702.53 -350.944 700.376 -348.925 698.357ZM-346.031 705.76C-345.459 706.332 -344.887 706.904 -344.315 707.476C-346.737 712.523 -350.439 712.758 -355.452 716.291C-353.736 711.782 -348.622 710.639 -346.031 705.793V705.76ZM-354.881 716.83C-359.625 724.972 -368.104 726.721 -374.093 735.974C-374.733 733.821 -375.069 734.494 -376.751 731.802C-371.334 730.086 -362.788 723.862 -363.898 720.127C-362.384 718.916 -361.172 719.353 -360.062 720.867C-358.312 718.142 -360.062 719.151 -361.61 717.839C-359.12 715.887 -357.337 718.478 -354.881 716.83ZM-110.431 962.346C-107.773 964.836 -113.022 964.398 -114.469 967.494C-114.805 965.004 -112.82 963.86 -110.431 962.346ZM-134.22 954.136C-140.311 965.205 -155.553 976.982 -164.368 985.326C-165.714 987.816 -161.206 987.21 -159.759 985.326C-158.918 987.681 -163.191 988.421 -164.368 989.902C-165.479 988.96 -164.637 987.782 -165.916 986.873C-167.531 985.931 -169.92 990.406 -171.872 991.651C-166.993 975.737 -152.087 969.411 -136.71 953.227C-135.97 954.102 -135.196 954.943 -134.22 954.169V954.136ZM-102.39 988.556C-102.188 990.272 -105.015 992.425 -105.856 994.276C-106.798 993.166 -108.009 994.006 -108.917 992.761C-106.427 989.161 -104.88 992.156 -102.39 988.556ZM-378.501 734.695C-376.348 736.983 -379.746 740.079 -382.337 743.073C-383.447 742.165 -382.606 740.953 -383.884 740.045C-380.856 739.641 -381.092 736.849 -378.501 734.695ZM-125.606 999.154C-124.496 1000.74 -124.664 1002.49 -122.343 1003.9C-127.02 1007.7 -130.115 1008.27 -135.97 1011.77C-135.903 1006.72 -129.341 1004.74 -125.606 999.154ZM-139.065 1033.07C-137.787 1031.79 -136.508 1030.51 -135.23 1029.23C-145.963 1043.47 -162.013 1061.1 -179.779 1073.61C-180.486 1074.59 -179.173 1075.26 -180.149 1076.27C-182.134 1077.85 -184.019 1078.73 -185.903 1079.74C-187.518 1077.82 -183.042 1074.99 -180.889 1072.47C-181.663 1071.59 -182.404 1070.75 -183.38 1071.53C-177.02 1062.88 -162.08 1051.04 -153.971 1036.57C-150.842 1034.68 -147.78 1033.1 -144.954 1033.27C-143.204 1030.55 -147.276 1031.89 -147.814 1030.45C-146.3 1028.06 -142.027 1029.13 -142.632 1026.44C-139.907 1024.69 -140.916 1026.44 -139.571 1027.92C-136.542 1023.21 -134.422 1019.68 -131.495 1017.59C-132.639 1014.9 -134.792 1019.11 -136.474 1020.28C-136.071 1015.91 -129.88 1011.27 -126.481 1010.33C-123.722 1011.91 -126.313 1017.63 -121.704 1013.52C-123.083 1018.87 -135.802 1023.75 -134.96 1027.85C-127.76 1023.45 -119.381 1011.1 -112.888 1011.57C-118.574 1022.24 -128.769 1025.73 -136.71 1035.29C-137.484 1034.52 -138.258 1033.78 -138.998 1033L-139.065 1033.07ZM-139.402 990.104C-137.888 991.685 -138.392 994.578 -140.748 994.848C-142.497 993.603 -140.613 991.786 -139.402 990.104ZM-143.642 1001.17C-143.945 1000.57 -143.439 999.828 -144.011 999.289C-153.836 1008.95 -154.106 1010.8 -161.509 1020.12C-170.526 1017.32 -151.279 1000.97 -147.477 995.891C-142.733 994.208 -139.772 995.891 -143.642 1001.21V1001.17ZM-139.604 1014.26C-138.797 1016.08 -140.613 1018.3 -139.805 1020.15C-142.565 1019.48 -146.434 1026.68 -149.025 1024.76C-143.978 1023.08 -144.82 1016.92 -139.604 1014.26ZM-193.54 1018.94C-194.112 1018.4 -194.92 1019.44 -195.661 1019.91C-196.3 1018.94 -193.574 1017.42 -194.516 1016.48C-196.636 1016.01 -199.563 1021.09 -202.02 1022.81C-201.448 1016.92 -192.767 1009.92 -191.657 1005.65C-189.234 1005.65 -187.989 1008.21 -188.191 1009.05C-185.566 1010.26 -186.408 1007.4 -183.951 1007.13C-182.538 1004.27 -187.552 1008.37 -188.359 1005.82C-182.471 999.895 -180.418 999.323 -179.51 994.747C-176.212 993.166 -178.702 995.79 -174.328 990.709C-169.954 994.276 -178.433 996.429 -178.938 999.861C-173.958 999.693 -171.098 987.782 -167.229 991.618C-177.424 1000.53 -185.264 1016.75 -200.069 1023.18C-199.598 1020.42 -196.064 1022.17 -193.54 1018.94ZM-153.063 1020.79C-150.203 1018.27 -152.861 1024.83 -150.001 1022.3C-148.991 1024.79 -152.861 1024.62 -153.635 1024.79C-155.216 1023.72 -152.054 1021.93 -153.063 1020.79ZM-153.837 1026.14C-158.11 1033.17 -171.973 1045.12 -171.502 1039.16C-165.244 1037.75 -162.484 1030.01 -153.837 1026.14ZM-212.921 993.771C-211.508 992.762 -212.552 995.453 -211.004 994.141C-209.927 998.212 -217.431 1000.77 -220.223 1003.33C-222.276 999.424 -212.652 997.102 -212.921 993.771ZM-220.593 1001.44C-221.872 1002.72 -223.151 1004 -224.429 1005.28C-224.429 1004.3 -224.53 1003.33 -225.573 1004.13C-226.246 1003.16 -223.487 1001.64 -224.429 1000.7C-222.949 999.491 -221.703 999.928 -220.593 1001.44ZM-171.502 1043.74C-175.102 1050.26 -187.989 1059.95 -195.694 1070.11C-194.819 1060.39 -182.807 1054.81 -175.708 1045.65C-174.732 1048.14 -172.982 1044.95 -171.468 1043.74H-171.502ZM-247.679 1020.42C-250.506 1021.13 -253.332 1027.82 -257.101 1026.37C-258.279 1028.49 -258.245 1030.45 -261.341 1032.87C-262.956 1032.13 -265.378 1033.24 -264.975 1030.82C-263.393 1028.86 -262.451 1031.59 -260.936 1030.21C-259.321 1028.26 -260.701 1026.88 -262.652 1028.49C-255.856 1019.68 -252.222 1015.74 -244.214 1010.12C-245.425 1012.34 -245.324 1016.08 -248.453 1016.62C-244.954 1020.22 -243.372 1014.56 -242.498 1011.84C-241.589 1012.34 -237.283 1011.2 -238.662 1012.58C-236.744 1014.26 -242.431 1016.42 -243.642 1019.85C-239.873 1019.41 -235.162 1010.73 -233.076 1010.46C-234.96 1009.58 -237.585 1009.08 -234.423 1006.09C-230.89 1010.49 -226.28 1007.36 -221.569 1003.53C-221.67 1004.64 -221.098 1005.65 -220.021 1006.56C-230.317 1012.88 -243.709 1033.91 -256.327 1043.84C-257.471 1042.93 -256.596 1041.72 -257.875 1040.81C-260.062 1043.53 -258.379 1045.65 -260.936 1048.45C-261.71 1047.71 -262.485 1046.93 -263.225 1046.19C-264.672 1047.47 -264.133 1048.51 -265.715 1049.79C-267.128 1051.84 -263.898 1049.76 -264.773 1052.25C-266.051 1053.53 -267.329 1054.81 -268.608 1056.08C-269.146 1055.31 -269.82 1055.24 -270.526 1055.71C-270.291 1053.06 -271.468 1050.63 -268.036 1047.54C-269.147 1047.64 -270.156 1047.07 -271.098 1046.02C-268.171 1045.35 -267.834 1040.67 -264.368 1040.47C-263.729 1039.06 -264.167 1037.85 -265.142 1036.67C-258.11 1031.05 -254.14 1027.72 -247.679 1020.42ZM-194.954 1078.49C-197.444 1077.31 -195.526 1075.53 -196.3 1074.12C-191.286 1070.48 -190.647 1069 -185.735 1064.73C-192.834 1066.31 -177.962 1053.26 -175.001 1054.03C-179.88 1063.69 -192.767 1070.59 -194.988 1078.49H-194.954ZM-189.57 1077.68C-188.426 1079.2 -192.633 1081.39 -193.406 1081.52C-194.82 1078.93 -191.387 1078.19 -189.57 1077.68ZM-199.362 1077.18C-196.704 1078.76 -198.05 1080.91 -200.91 1083.27C-203.03 1082.26 -200.54 1080.61 -201.684 1079.47C-209.49 1083.91 -214.032 1091.88 -220.324 1090.03C-214.032 1085.59 -213.359 1082.16 -210.533 1076.84C-208.917 1076.41 -207.471 1076.88 -205.721 1075.5C-205.519 1077.95 -206.73 1078.22 -208.985 1079.87C-206.125 1081.39 -202.928 1080.41 -199.395 1077.15L-199.362 1077.18ZM-223.386 1102.25C-222.68 1104.16 -227.592 1107.53 -228.366 1104.94C-228.13 1103.83 -227.255 1102.62 -225.876 1101.3C-225.136 1102.18 -224.362 1103.05 -223.386 1102.25ZM-541.119 822.579C-540.648 826.785 -545.56 825.978 -548.622 828.905C-550.574 827.66 -543.979 825.17 -545.931 823.959C-544.08 821.772 -543.104 825.54 -541.119 822.613V822.579ZM-558.817 853.87C-562.384 859.119 -568.912 861.138 -570.729 868.002C-573.32 870.828 -574.935 866.858 -577.627 870.323C-579.444 869.987 -577.256 866.151 -579.948 868.069C-577.559 862.719 -574.935 860.229 -570.931 855.653C-569.181 855.418 -567.835 856.764 -568.037 858.48C-564.941 856.764 -561.711 854.173 -558.817 853.87ZM-292.532 1143.73C-291.354 1145.08 -295.56 1147.23 -296.569 1148.88C-298.117 1147.33 -294.315 1143.93 -292.532 1143.73ZM-284.692 1157.56C-283.75 1159.14 -288.258 1161.56 -289.503 1163.48C-292.464 1159.92 -287.215 1160.89 -284.692 1157.56ZM-320.795 1179.83C-317.532 1178.56 -320.426 1183.64 -322.916 1185.35C-326.482 1183.3 -319.954 1180.78 -320.795 1179.83ZM-597.68 954.136C-599.363 957.399 -602.93 960.798 -599.43 961.572C-604.545 967.965 -613.663 963.12 -611.139 956.121C-606.53 954.607 -601.55 950.367 -597.714 954.136H-597.68ZM-433.413 1172.36C-431.26 1173.78 -433.212 1175.8 -435.534 1177.88C-436.476 1176.77 -437.687 1177.61 -438.595 1176.37C-436.778 1174.42 -434.995 1172.6 -433.413 1172.33V1172.36ZM-671.638 1038.05C-668.239 1040.17 -672.21 1043.33 -672.782 1046.02C-668.576 1050.87 -664.37 1049.12 -664.942 1055.31C-667.6 1058.44 -669.686 1057.77 -672.042 1058.94C-677.694 1054.81 -677.357 1054.4 -679.713 1048.35C-678.232 1045.75 -673.421 1042.63 -676.617 1040.71C-675.036 1040.3 -673.219 1038.45 -671.638 1038.02V1038.05ZM-563.124 1155.64C-562.182 1157.22 -566.759 1160.15 -567.735 1160.25C-568.004 1158.97 -567.162 1157.56 -565.816 1156.05C-565.11 1157.29 -564.134 1156.52 -563.124 1155.64ZM-679.343 1059.38C-680.655 1060.83 -681.665 1060.29 -682.977 1061.87C-685.232 1060.9 -683.381 1059.31 -685.097 1058.27C-683.145 1058.27 -680.992 1057.16 -679.343 1059.38ZM-494.316 1247.8C-491.624 1249.38 -498.724 1254.97 -499.497 1251.8C-499.161 1249.04 -496.301 1248.94 -494.316 1247.8ZM-535.029 1270.11C-535.533 1270.61 -536.072 1271.12 -536.577 1271.62C-538.327 1269.64 -541.153 1270.68 -537.923 1267.25C-536.543 1269.5 -534.692 1267.55 -535.029 1270.07V1270.11Z" fill="#E0C4EE"/>
</svg>
