<svg width="652" height="780" viewBox="0 0 652 780" fill="none" xmlns="http://www.w3.org/2000/svg">
<path opacity="0.5" fill-rule="evenodd" clip-rule="evenodd" d="M1616.52 -677C1608.69 -671.314 1598.69 -663.205 1594.62 -657.485C1587.66 -659.067 1580.12 -640.729 1572.55 -645.743C1569.25 -642.849 1574.7 -641.268 1570.83 -638.307C1567.53 -636.726 1564.37 -636.187 1561.04 -634.269C1560.74 -630.232 1555.29 -626.564 1552.19 -627.742C1553.2 -628.751 1551.89 -629.458 1552.59 -630.4C1557.37 -631.443 1564.61 -639.754 1566.42 -644.161C1560.77 -638.677 1552.33 -632.924 1548.76 -626.564C1549.74 -627.372 1550.85 -628.819 1551.65 -628.28C1549.26 -626.194 1550.58 -624.647 1548.19 -622.56C1546.44 -623.301 1548.56 -626.531 1545.7 -623.502C1545.23 -621.921 1545.73 -620.474 1544.35 -618.758C1537.66 -615.461 1528.97 -608.698 1525.54 -602.272C1513.8 -600.085 1505.12 -579.224 1496.17 -585.55C1491.26 -578.08 1485.17 -571.587 1476.59 -568.323C1475.21 -566.809 1477.96 -565.9 1476.01 -564.319C1466.39 -561.661 1461.95 -547.26 1452.97 -541.372C1451.15 -544.131 1461.21 -548.472 1456.06 -549.01C1447.35 -535.888 1433.79 -531.581 1425.34 -522.968C1424.3 -524.549 1428.17 -526.871 1426.11 -528.318C1423.86 -525.794 1417.63 -521.656 1415.35 -517.618C1414.34 -518.123 1413.16 -517.618 1412.29 -519.098C1407.94 -512.1 1400.51 -509.711 1393.07 -504.53C1393.31 -502.174 1397.21 -504.361 1395.36 -502.242C1393.81 -500.728 1392.3 -499.18 1390.75 -497.666C1390.99 -499.415 1389.61 -500.795 1387.69 -499.18C1382.07 -491.677 1372.48 -485.149 1368.68 -476.805C1368.85 -481.213 1366.15 -475.358 1365.78 -475.089C1365.65 -474.988 1364.78 -476.334 1364.64 -476.233C1350.24 -467.317 1332.07 -438.28 1323.36 -436.228C1325.98 -436.228 1323.62 -429.196 1318.91 -428.388C1316.79 -429.364 1319.28 -431.046 1318.14 -432.19C1300.58 -412.642 1278.81 -393.666 1257.44 -371.728C1258.18 -372.199 1258.99 -373.209 1259.56 -372.704C1248.62 -363.317 1242.7 -360.658 1235.37 -350.867C1226.75 -344.172 1213.02 -329.199 1208.68 -325.431C1209.69 -325.767 1214.27 -328.594 1212.72 -326.036C1200.78 -321.528 1193.74 -314.361 1182.37 -302.652C1178.77 -304.469 1170.39 -296.293 1173.15 -293.467C1175.98 -295.621 1176.85 -297.471 1176.62 -299.187C1178.4 -299.355 1180.72 -303.191 1182 -299.994C1178.03 -296.125 1166.39 -283.306 1170.29 -291.751C1160.47 -277.855 1152.59 -278.427 1143.61 -266.314C1136.14 -269.915 1126.31 -251.039 1124.23 -254.976C1122.82 -250.736 1118.17 -246.699 1113.09 -246.16C1118.27 -254.236 1123.93 -257.735 1126.75 -263.152C1124.4 -260.427 1122.11 -258.374 1120.22 -258.912C1118.68 -253.63 1114.98 -250.535 1110.23 -248.953C1112.92 -246.564 1107.47 -245.521 1106.4 -245.151C1107.3 -242.359 1109.32 -247.204 1110.23 -244.411C1106.16 -238.456 1099.2 -233.241 1092.36 -230.044C1093.71 -231.558 1094.55 -232.971 1094.28 -234.25C1090.85 -229.136 1082.94 -227.386 1085.43 -223.147C1087.39 -224.391 1089.77 -228.867 1091.39 -227.924C1086.81 -221.431 1082.1 -218.1 1077.19 -216.047C1078.27 -216.989 1082.84 -221.498 1079.68 -219.681C1075.54 -216.686 1075.78 -214.331 1073.93 -211.673C1062.01 -208.107 1057.88 -201.075 1048.39 -194.211C1049.4 -191.115 1044.21 -187.078 1040.88 -183.343C1040.11 -184.151 1039.27 -184.218 1038.39 -184.285C1036.64 -185.564 1040.92 -187.717 1038.39 -188.861C1035.1 -185.9 1029.07 -178.027 1022.08 -176.008C1021.34 -172.913 1013.36 -162.382 1008.65 -164.905C1013.5 -170.76 1017.57 -176.109 1021.7 -177.926C1020.59 -180.685 1038.63 -192.596 1034.02 -194.749C1035.53 -194.581 1036.98 -194.11 1038.83 -196.095C1039.03 -198.114 1040.62 -201.277 1040.75 -204.843C1044.48 -200.402 1043.41 -211.337 1047.85 -208.511C1050.84 -210.462 1047.95 -211.573 1049.2 -213.288C1051.82 -214.803 1054.17 -214.298 1056.87 -216.384C1069.96 -238.119 1094.89 -252.722 1110.84 -271.294C1106.4 -267.997 1101.75 -262.917 1097.78 -262.849C1098.96 -264.33 1103.23 -265.07 1102.39 -267.425C1100.51 -266.618 1098.35 -263.791 1096.64 -263.959C1099.8 -269.074 1105.62 -268.805 1106.23 -271.227C1101.52 -267.122 1104.28 -273.582 1103.94 -273.515C1101.45 -272.976 1100.68 -269.107 1096.07 -269.074C1096.97 -267.829 1098.19 -268.67 1099.13 -267.593C1097.38 -266.18 1096.07 -267.627 1094.32 -266.248C1089.47 -249.795 1067.4 -238.59 1057.81 -223.046C1054.21 -225.3 1053.03 -221.094 1054.75 -219.984C1050.41 -217.393 1048.66 -218.066 1045.93 -218.032C1046.6 -211.034 1033.01 -205.92 1031.33 -198.921C1023.15 -197.677 1016.35 -183.04 1010.6 -178.263C1011.31 -178.734 1011.98 -178.666 1012.52 -177.893C1010.03 -174.932 1009.02 -172.677 1005.79 -172.341C1006.19 -175.537 1008.08 -172.913 1010.2 -175.604C1000.57 -174.158 994.955 -162.214 985.601 -155.686C985.231 -153.667 983.818 -151.514 982.742 -149.394C979.713 -149.562 975.945 -144.785 972.344 -141.353C973.421 -139.132 973.253 -136.71 969.283 -133.715C977.19 -133.715 983.381 -141.958 987.722 -147.51C987.217 -142.665 991.86 -146.501 990.211 -142.026C984.828 -143.001 974.834 -128.534 970.83 -126.111C972.546 -127.356 974.363 -129.207 975.608 -127.491C973.32 -125.169 970.595 -119.416 967.163 -119.079C971.436 -122.511 968.139 -124.059 972.546 -124.429C969.316 -124.732 965.952 -124.395 962.385 -122.275C963.596 -119.954 965.716 -124.227 966.793 -120.963C966.019 -120.189 966.355 -119.584 965.817 -118.877C963.193 -119.415 956.799 -111.139 956.799 -115.613C952.156 -109.12 943.34 -101.314 937.788 -102.39C929.78 -91.7581 924.094 -82.8083 913.394 -74.666C912.385 -75.3725 911.544 -77.0214 910.332 -76.1465C911.005 -74.296 909.088 -72.0752 908.785 -70.0564C906.564 -71.806 906.766 -67.9368 905.319 -68.8789C906.261 -70.0901 904.949 -70.9985 905.117 -72.1088C903.535 -70.1573 902.055 -69.249 900.709 -68.8452C901.92 -66.5236 904.074 -70.7966 905.117 -67.533C903.132 -65.7161 903.636 -64.2693 902.425 -62.5534C897.344 -61.7122 896.402 -53.3345 888.798 -50.1044C888.259 -51.1138 888.798 -52.2574 887.284 -53.1323C884.659 -50.1378 887.149 -47.8837 884.794 -44.9228C884.154 -45.9322 885.096 -47.1433 884.625 -48.1527C884.962 -40.2122 871.234 -35.7372 868.676 -33.4156C869.652 -34.1223 871.469 -34.3242 870.595 -33.0456C857.068 -21.7741 847.68 -9.96436 836.005 1.40808C835.298 0.836121 836.24 -0.576965 834.86 0.264221C830.116 5.95044 809.894 38.8226 807.976 27.0464C807.236 27.5175 806.429 28.527 805.857 28.0223C806.664 27.0466 808.145 25.9359 807.573 25.162C804.309 26.6425 801.651 32.7326 798.723 36.2318C797.175 36.2318 795.729 35.7944 794.114 36.2318C792.432 45.8882 782.304 43.4993 778.165 50.9688C776.415 49.7239 780.689 47.5707 778.165 46.4267C774.969 58.9431 757.64 68.1957 748.185 80.813C746.401 79.5344 753.03 77.0449 749.531 76.0355C743.138 85.591 726.146 98.5112 717.633 110.085C718.239 106.014 713.999 112.138 712.249 110.893C715.177 100.362 725.877 96.6266 731.866 84.5477C730.621 84.1439 729.78 80.712 728.232 82.4953C731.092 90.2339 718.339 96.5594 713.831 104.803C712.586 104.231 710.937 106.721 709.995 104.063C707.337 113.282 694.719 124.217 683.683 131.417C683.918 136.161 675.775 138.516 673.319 144.034C674.127 141.544 671.233 139.559 673.689 136.8C676.112 137.406 673.79 141.612 676.751 138.314C673.555 133.133 686.341 126.033 686.946 122.467C684.827 124.284 687.014 120.448 684.659 120.179C682.943 125.024 678.266 126.303 677.155 131.047C673.69 131.047 665.58 135.69 672.545 135.623C666.59 134.95 663.057 143.698 657.572 143.698C666.388 135.825 666.859 130.172 672.949 123.847C667.33 125.495 666.354 128.624 662.586 131.888C661.744 131.148 661.677 130.273 661.61 129.432C650.17 140.199 643.339 148.173 631.26 152.816C631.832 153.59 633.043 154.296 632.202 155.272C624.9 157.829 616.725 167.99 611.846 173.273C612.855 172.398 613.83 171.624 614.537 172.869C611.206 176.267 607.706 180.742 605.149 178.824C603.601 180.809 606.933 182.054 604.375 184.14C600.708 185.251 597.377 184.04 593.642 185.722C598.285 185.52 586.643 199.45 586.139 192.047C580.957 196.455 580.049 200.728 573.656 201.064C573.285 203.521 573.353 205.876 571.94 208.5C577.962 213.446 576.987 215.667 581.529 219.469C584.389 214.186 586.71 210.519 591.69 212.74C591.017 210.384 597.276 204.328 600.136 204.328C601.751 195.546 613.864 193.225 621.469 184.241C623.79 187.438 624.699 182.357 628.198 183.266C625.641 186.26 623.79 189.12 621.671 192.047C620.998 189.188 619.315 189.961 616.691 190.163C617.33 192.888 612.956 196.388 610.533 196.287C612.014 199.584 614.807 194.066 616.657 194.739C614.537 198.507 611.307 202.478 609.759 206.179C605.082 204.496 599.598 210.317 597.276 215.196C594.416 215.398 594.214 215.196 594.416 212.37C589.806 221.925 580.284 229.832 573.084 232.457C575.237 238.648 563.527 239.354 562.316 243.156C563.729 242.382 565.076 242.18 566.354 242.55C563.595 244.502 565.075 245.78 562.316 247.698C560.263 245.309 557.37 248.505 554.846 249.448C555.183 251.231 559.053 249.044 557.135 251.702C550.002 257.557 547.107 259.542 543.877 266.035C541.32 264.824 540.345 262.603 535.802 267.213C536.879 268.155 537.417 269.164 537.35 270.241C540.008 269.064 538.864 265.396 541.186 266.405C537.821 271.991 530.856 271.486 530.822 279.023C529.207 279.628 527.39 281.546 526.212 279.023C527.928 277.778 529.039 280.604 530.991 277.643C527.391 275.961 531.294 272.024 533.514 269.467C528.265 274.211 519.079 271.015 521.199 277.172C512.215 283.363 504.712 286.156 494.719 292.145C494.079 291.169 494.988 289.924 494.517 288.915C489.268 291.774 490.95 298.268 487.013 295.24C490.715 291.438 495.694 287.434 495.862 284.171C494.348 285.517 492.901 286.358 491.623 286.122C496.367 284.07 490.109 283.229 497.377 278.114C494.551 276.567 497.848 274.144 496.233 272.395C493.474 273.337 490.344 276.735 487.787 276.264C492.094 268.66 496.165 265.396 502.02 264.387C501.212 265.8 497.377 267.684 498.756 268.794C502.693 264.252 498.083 273.505 502.02 268.963C501.953 264.353 504.611 261.56 506.26 257.927C507.034 261.762 508.212 252.913 512.586 255.033C513.36 253.182 512.216 251.601 513.36 249.717C522.983 247.396 534.187 235.317 541.186 229.967C539.369 230.438 537.249 232.894 535.802 230.774C536.576 230 536.24 229.395 536.744 228.688C541.691 228.857 543.945 220.916 548.083 223.103C551.986 219.133 551.313 218.729 554.813 217.551C554.241 215.6 551.717 215.297 556.36 211.461C557.302 212.841 555.418 214.624 556.36 216.003C562.652 210.216 571.468 197.161 578.265 196.489C579.443 177.781 607.505 174.383 609.188 159.983C609.961 160.723 611.071 159.175 611.879 159.579C609.557 161.227 609.355 162.573 611.307 163.583C615.042 159.511 615.143 159.881 621.671 155.541C617.364 153.556 611.845 159.915 607.269 159.612C607.841 156.921 612.519 153.623 615.143 150.629C612.485 149.956 605.52 156.786 603.434 158.872C603.333 158.973 604.88 161.127 603.635 162.102C602.458 163.044 600.035 162.472 598.824 163.448C593.137 168.024 588.528 178.32 582.303 177.613C585.332 175.224 585.768 173.206 585.196 171.321C573.622 185.385 563.999 191.576 549.867 206.515C549.295 205.943 549.8 205.237 549.463 204.631C545.762 210.889 538.09 214.22 535.062 222.396C534.423 221.387 535.365 220.175 534.86 219.166C532.101 222.833 530.418 226.333 528.702 229.866C528.938 226.871 524.227 230.539 522.175 229.529C523.554 230.64 523.353 231.952 521.569 233.533C519.046 234.408 521.132 231.178 519.08 232.591C515.816 237.2 511.61 241.945 509.86 246.352C508.75 245.343 511.845 240.498 508.514 241.978C506.663 249.717 489.571 258.465 484.523 262.469C487.484 260.887 483.952 266.675 482.034 266.103C482.437 268.525 486.879 264.858 485.095 267.617C481.798 266.405 478.366 273.068 476.448 272.798C473.217 271.957 478.703 269.871 477.02 268.794C472.579 270.611 468.036 273.269 463.393 276.667C468.103 267.011 486.811 257.354 492.599 243.055C490.613 242.382 489.705 246.891 488.561 248.203C484.254 244.973 485.567 250.558 482.236 251.096C479.544 244.569 490.815 243.189 492.599 238.479C491.589 239.354 490.613 240.128 489.907 238.883C490.681 238.109 490.344 237.503 490.883 236.797C496.064 232.389 506.664 225.996 504.14 222.463C508.178 218.998 515.008 219.94 516.993 215.33C511.98 218.258 507 220.68 502.592 219.402C501.852 218.561 507.774 213.547 504.51 215.196C500.775 222.598 498.387 224.381 493.171 229.899C494.652 230.236 496.805 226.03 497.982 228.553C495.493 230.707 492.633 235.114 490.681 233.533C491.994 230.404 486.508 231.716 487.417 233.365C490.008 231.817 488.864 236.09 488.158 237.167C487.148 236.46 485.768 238.513 484.523 239.656C483.581 238.613 482.572 238.075 481.462 238.143C479.006 240.464 478.501 242.483 477.222 244.636C464.201 251.298 456.562 271.183 445.324 278.686C445.761 278.182 446.165 277.711 445.526 277.34C446.401 281.479 439.705 284.238 441.69 285.718C440.277 286.055 435.129 289.285 435.735 290.496C437.215 291.001 439.335 286.829 440.714 287.804C441.219 288.612 440.748 289.52 440.344 290.463C436.777 290.934 437.215 292.044 435.735 295.072C434.389 295.24 433.043 295.442 431.731 295.677C427.794 301.296 425.506 303.181 421.333 308.295C420.492 307.555 420.425 306.68 420.358 305.839C418.911 308.429 417.06 310.314 414.402 310.617C416.017 307.79 416.623 305.065 416.892 302.44C414.436 306.713 408.413 311.525 409.793 315.226C411.509 314.183 411.306 310.381 413.628 311.39C411.811 314.284 410.499 317.077 409.759 319.768C408.85 318.658 407.673 319.196 406.327 320.912C406.562 317.783 402.255 318.658 400.001 319.263C401.582 321.854 403.871 319.768 405.553 321.686C401.482 324.748 405.654 323.368 404.375 325.118C400.707 329.29 397.915 327.406 394.382 330.501C393.473 327.81 396.367 324.546 396.3 321.753C391.623 325.69 393.776 328.651 390.142 332.419C388.796 330.905 389.806 329.189 387.081 330.905C385.768 339.25 374.765 347.897 369.214 354.39C371.636 354.76 370.492 351.059 372.848 351.901C373.453 352.91 371.804 354.222 371.703 355.332C369.887 354.356 367.498 357.082 365.95 354.222C363.662 360.547 357.235 363.475 352.491 369.901C350.943 369.767 346.333 367.512 346.333 371.449C347.343 370.574 348.318 369.8 349.025 371.045C346.333 374.813 344.079 377.068 338.83 382.316C334.287 378.851 328.298 385.446 323.083 386.59C322.208 389.113 325.438 386.993 324.025 389.046C313.325 394.093 308.816 399.14 296.939 408.022C301.044 402.1 291.353 412.06 293.103 407.282C290.949 411.891 285.734 418.856 282.74 419.899C283.581 418.251 286.71 421.346 285.028 422.187C282.437 422.725 282.672 420.303 280.822 424.105C279.207 421.615 277.289 421.178 275.068 422.995C274.361 424.408 277.154 425.283 275.842 426.797C272.544 428.244 272.343 429.286 270.088 430.262C270.896 428.849 271.064 427.503 270.66 426.259C268.507 429.186 268.237 426.326 268.17 425.316C265.276 427.167 262.383 428.917 259.725 429.186C262.551 431.945 265.916 431.44 266.051 435.41C268.776 433.29 270.795 435.881 273.15 436.319C262.114 447.893 244.853 460.678 230.721 466.028C230.351 462.731 228.635 461.049 224.765 461.688C231.024 476.997 203.769 479.285 198.453 493.585C200.572 497.79 202.625 496.411 206.124 499.641C199.563 505.159 201.212 509.499 200.74 514.109C197.208 519.66 194.718 521.04 190.378 526.726C189.57 526.12 188.796 525.616 187.686 527.13C186.104 529.72 190.781 526.154 191.319 529.182C186.474 534.767 190.647 541.463 184.388 545.198C189.065 546.779 189.368 550.211 189.94 552.196C189.166 551.456 187.08 553.609 187.652 554.484C189.065 553.441 188.426 555.359 186.676 556.57C187.383 554.013 178.499 556.099 180.35 559.464C184.186 557.849 190.007 554.013 190.916 559.195C193.338 556.2 195.357 555.729 197.275 556.301C197.207 558.051 196.972 559.834 196.501 561.617C198.385 562.122 200.505 561.314 202.457 561.382C200.774 566.563 193.675 576.893 185.734 576.893C183.412 580.695 185.027 589.005 178.231 587.794C179.105 586.583 180.62 583.117 179.98 580.358C176.918 583.386 176.548 590.855 171.333 590.115C173.923 580.089 181.831 567.909 192.094 560.339C183.278 562.761 175.303 575.782 169.987 585.775C165.411 587.659 158.816 595.499 156.528 601.454C154.341 602.833 152.557 601.623 150.404 603.002C144.785 608.957 137.012 627.396 130.821 620.229C127.187 622.079 132.302 622.618 130.249 624.233C128.365 625.04 126.514 625.847 125.067 623.694C127.423 611.178 135.263 597.854 138.526 585.203C134.926 585.842 131.057 588.265 127.961 585.472C110.734 602.295 118.338 622.147 100.471 639.071C108.378 641.863 103.533 651.351 112.349 652.293C110.969 653.572 110.094 654.817 109.859 655.927C115.276 659.629 119.785 661.479 119.246 668.208C120.222 669.151 121.703 666.391 122.712 667.03C120.121 669.588 122.914 671.337 123.083 673.491C124.361 673.793 126.111 670.631 127.322 671.539C143.238 680.927 154.374 682.575 174.697 689.304C183.479 686.007 191.454 688.598 200.236 685.536C200.64 689.708 208.816 686.713 209.253 691.39C210.835 689.472 212.282 688.631 213.459 689.473C211.575 691.054 210.7 692.501 211.541 693.678C214.805 689.439 215.646 694.856 215.949 694.991C222.578 697.245 232.471 694.519 239.166 698.086C233.009 708.348 217.632 708.886 213.83 718.778C209.489 719.922 204.745 723.993 200.976 721.335C203.298 718.812 205.182 716.39 203.298 714.472C195.862 717.534 188.325 721.167 180.283 728.3C174.059 724.33 165.579 735.871 158.21 740.043C157.066 738.899 159.59 737.25 157.437 736.241C150.034 745.258 138.56 754.376 128.264 760.769C118.54 757.168 102.658 775.742 95.4238 769.517C91.0496 772.511 86.6081 776.044 82.7723 775.304C80.9553 771.435 82.1669 767.128 77.2208 763.729C72.1064 762.619 65.9154 769.214 60.5318 770.089C62.416 772.444 59.5893 778.871 55.1478 780.015C54.5422 778.366 56.1572 776.38 55.9217 774.665C49.4613 774.261 47.3423 770.728 41.5213 769.618C39.1659 772.343 36.0365 776.953 32.8736 774.799C33.9167 773.083 37.7522 773.285 36.7091 770.964C34.1855 773.319 32.3011 771.132 29.7775 773.285C33.6133 777.087 26.8843 776.482 25.1682 777.861C24.2598 781.327 28.3645 780.283 28.2299 783.917C19.0105 793.876 1.14401 789.772 0 801.75C1.78332 801.548 3.90317 798.991 5.95567 796.972C15.848 796.837 26.1444 793.709 36.4741 790.512C37.0125 791.522 36.474 792.699 38.0218 793.54C40.3771 790.58 40.5791 787.955 43.2036 784.96C45.3907 785.028 47.5774 785.028 50.3028 781.293C49.7981 787.047 55.1482 781.427 57.2007 783.547C55.552 786.844 56.1242 786.811 59.1188 788.494C57.6047 790.008 59.7243 791.017 57.2007 792.699C48.9571 798.184 39.098 804.172 29.9459 813.021C37.1128 813.56 45.3231 806.729 52.9948 803.769C56.9988 809.926 61.4063 808.648 69.4817 807.84C72.6782 806.057 68.2033 805.417 71.3998 803.634C79.4416 807.133 91.1506 804.273 96.3323 812.988C86.3727 822.072 93.2367 828.667 82.8733 837.785C85.2959 840.477 82.8738 843.875 84.2197 846.701C85.6329 847.643 87.2812 846.701 88.829 846.701C89.8721 848.72 88.627 851.075 87.8531 853.363C93.0011 863.322 101.279 851.547 107.033 857.031C101.817 865.173 91.0499 874.157 88.9637 881.862C92.4294 879.372 97.4763 881.996 96.2649 886C102.321 883.611 107.436 887.615 113.527 884.755C118.271 874.325 111.339 868.201 117.598 856.795C131.73 860.9 153.163 837.179 161.945 831.998C160.734 832.738 159.623 832.839 158.681 831.829C161.911 827.657 164.637 826.951 167.531 825.302C164.671 823.553 170.357 820.524 169.819 818.438C168.204 819.078 166.521 820.02 165.209 818.472C177.524 806.83 180.62 796.77 191.925 783.917C191.353 783.143 190.176 782.437 190.983 781.461C207.874 765.748 215.916 752.122 229.779 735.971C229.207 735.198 228.029 734.491 228.836 733.515C233.042 731.396 237.047 727.291 239.2 725.474C238.494 725.945 237.82 725.878 237.282 725.104C250.068 714.202 262.686 695.495 273.554 701.518C271.804 701.989 271.064 702.763 271.838 704.378C274.934 703.032 280.721 700.946 280.855 705.656C284.085 701.047 290.075 701.821 290.075 705.589C291.118 706.128 292.261 705.589 293.136 707.103C296.064 705.118 295.222 705.993 295.626 703.469C296.366 704.277 297.275 704.344 298.116 704.411C296.972 705.656 295.391 707.002 296.973 707.843C301.683 702.191 300.606 709.357 304.072 708.752C306.696 705.555 302.39 703.368 307.336 699.802C306.832 702.83 309.826 701.753 311.374 703.772C310.734 704.075 306.999 705.286 308.311 706.834C310.33 704.916 311.676 707.709 313.493 707.372C314.873 706.094 315.748 704.849 315.983 703.739C315.276 708.584 319.886 699.735 321.165 704.277C314.536 707.844 311.239 713.126 307.168 719.384C301.313 717.534 293.642 727.998 287.787 726.181C288.426 725.003 288.93 723.859 288.93 722.749C286.777 723.994 284.994 722.681 282.975 722.984C275.37 732.068 264.973 723.96 255.317 732.27C258.244 735.5 254.476 739.471 249.933 742.196C252.827 745.023 249.63 746.806 246.266 749.262C253.332 752.896 245.592 761.812 252.759 763.292C251.01 763.561 249.159 765.378 250.269 766.926C251.75 767.263 253.904 763.057 255.082 765.58C255.788 766.556 253.736 767.935 252.592 769.214C259.018 774.732 267.598 765.547 274.664 766.624C265.882 781.865 251.817 779.274 243.54 790.781C242.766 790.041 242.026 789.267 241.252 788.527C229.913 795.761 239.604 804.98 230.687 811.608C230.216 819.078 227.457 826.85 222.04 835.06C223.453 835.093 218.944 841.553 220.121 843.808C207.369 856.559 230.822 854.675 232.201 860.261C236.845 859.992 241.689 858.208 246.03 860.193C243.271 863.087 244.852 863.457 246.972 862.649C245.929 863.659 244.92 864.702 243.91 865.711C247.713 869.076 245.088 871.969 250.438 870.624C256.293 861.405 265.714 856.997 273.856 858.713C272.712 859.958 274.732 860.765 272.713 862.145C274.664 865.375 277.894 859.655 280.014 861.707C273.89 866.148 268.944 862.448 262.921 866.182C265.175 867.158 263.325 868.739 265.041 869.782C266.623 868.47 266.084 867.461 267.531 866.149C267.127 868.739 270.828 866.35 272.511 867.999C275.741 864.601 276.28 866.115 280.385 863.592C279.712 862.313 282.975 857.199 285.196 857.67C280.149 862.246 288.022 857.973 285.196 862.246C292.699 856.593 296.165 856.223 299.798 852.253C298.015 855.55 297.443 858.713 299.798 861.371C301.481 858.948 302.491 861.068 303.837 860.765C314.772 852.186 324.53 853.969 337.248 843.471C337.316 849.628 328.433 854.743 321.871 863.323C322.376 866.283 321.333 869.48 324.563 872.07C332.37 863.356 347.376 857.468 352.793 845.086C361.508 843.505 368.137 826.076 378.332 818.506C382.336 815.545 390.513 806.999 388.696 801.346C399.867 790.815 409.523 777.659 423.083 763.696C425.472 764.268 423.184 768.507 426.145 765.21C427.121 758.313 437.989 751.146 440.176 745.561C426.717 758.077 413.83 768.339 400.808 781.36C399.832 780.721 398.588 781.663 397.544 781.192C407.033 774.126 409.523 754.746 412.35 760.769C412.384 759.255 417.935 758.212 420.425 755.015C417.161 748.084 428.467 747.108 432.908 741.456C431.158 740.177 435.432 738.024 432.908 736.88C430.923 735.4 428.332 738.26 426.381 736.544C427.087 727.93 434.86 725.575 441.556 718.005C442.7 718.509 443.474 718.038 443.272 719.72C444.685 717.466 448.924 710.771 451.347 713.967C448.655 718.846 449.766 715.077 446.94 717.231C447.478 720.831 450.304 720.326 453.265 718.913C452.054 722.345 455.183 725.137 452.491 728.805C454.005 727.459 455.452 726.618 456.731 726.887C457.471 728.738 455.048 731.059 456.529 732.775C458.682 729.276 462.72 726.113 467.666 723.96C464.571 720.999 470.459 717.231 472.074 716.154C472.713 718.711 470.829 721.167 467.835 722.648C471.872 723.792 465.546 726.483 468.406 727.796C472.309 725.609 473.588 710.165 482.605 711.376C474.766 717.298 476.684 721.807 473.757 727.022C478.938 736.981 485.936 725.541 493.339 723.489C499.16 716.154 512.282 709.627 515.445 702.628C512.35 704.311 508.111 710.569 504.14 708.213C502.895 703.772 510.096 705.118 508.346 701.72C504.208 704.344 504.106 707.103 500.472 706.127C501.482 705.118 500.169 704.445 500.842 703.469C504.644 701.047 509.826 699.196 511.004 701.316C508.951 699.768 514.671 700.542 512.72 698.456C511.105 699.096 509.759 697.75 508.312 697.144C504.679 701.047 501.381 702.662 498.521 701.181C501.145 692.602 508.985 691.323 509.692 683.248C511.61 683.854 517.565 680.085 517.767 677.494C516.455 678.941 515.412 678.706 514.503 677.326C528.13 668.612 534.254 661.917 545.055 652.63C543.945 657.072 541.522 657.778 539.1 661.983C541.623 661.344 544.315 659.225 546.603 660.201C545.223 663.969 544.08 667.064 546.031 668.78C542.229 673.423 541.589 678.201 535.634 681.397C539.772 682.239 542.027 677.36 543.877 674.298C544.449 674.87 545.19 674.365 545.795 674.668C545.19 681.397 549.329 682.239 555.385 685.637C542.532 704.311 522.679 710.468 510.23 729.444C504.005 734.525 494.92 737.25 487.383 746.503C486.306 744.82 484.725 746.671 483.75 744.417C478.366 752.559 470.291 757.068 463.763 759.759C466.993 764.369 455.991 764.975 455.116 769.517C454.005 769.012 453.231 769.483 453.4 767.801C451.145 777.222 439.907 773.925 434.759 782.942C438.46 780.082 435.062 788.863 440.714 782.706C440.445 780.384 436.576 782.538 438.393 780.452C441.69 784.119 447.309 777.053 452.592 777.693C453.669 770.257 461.071 769.012 467.195 763.158C468.911 763.662 473.757 765.782 473.891 762.182C471.031 765.58 472.444 759.591 471.805 758.582C476.179 754.141 482 751.953 486.408 748.622C487.687 752.66 486.946 751.617 482.942 754.343C485.163 756.395 485.432 755.116 486.408 757.741C490.681 754.948 489.099 752.996 490.041 750.675C492.767 755.52 500.338 743.34 505.015 742.6C503.636 741.523 503.804 740.177 505.587 738.596C506.092 739.706 505.621 740.48 507.303 740.278C521.906 725.541 533.447 710.3 548.218 698.389C550.775 692.03 562.249 677.36 567.43 683.82C586.576 670.9 600.506 652.058 619.685 636.345C622.646 627.765 630.554 621.036 636.98 616.864C636.038 617.47 637.283 613.937 639.47 613.23C647.68 610.606 639.706 621.238 635.029 625.612C638.797 621.406 638.831 629.347 639.437 631.5C632.303 641.527 625.204 648.29 619.248 657.273C617.027 659.023 615.21 657.879 612.922 660.167C611.946 665.618 605.015 665.853 601.583 670.294C599.632 672.852 600.473 676.922 598.319 679.244C595.897 681.835 591.22 681.7 589.1 683.854C587.821 685.132 586.61 688.362 585.634 689.574C585.735 689.439 585.028 687.925 585.264 687.689C582.976 689.977 583.447 692.669 581.596 694.755C581.259 695.125 579.375 693.712 579.106 693.813C575.338 695.63 574.968 701.989 572.175 705.252C568.306 705.824 572.175 700.071 568.541 703.2C570.291 705.32 566.724 708.247 566.791 710.636C561.441 709.66 558.414 719.519 556.226 715.447C552.054 721.672 544.248 732.203 539.302 736.846C540.277 736.072 541.051 736.914 541.792 737.788C535.971 743.475 534.12 745.392 532.202 749.632C531.596 749.06 532.135 748.353 531.798 747.714C523.454 756.697 516.421 764.47 510.297 769.147C510.297 770.661 510.768 772.108 510.297 773.689C506.865 774.126 507.033 775.27 507.033 778.063C504.409 778.568 502.761 775.64 501.65 778.87C505.89 777.861 500.539 783.749 499.328 785.734C498.184 784.624 496.502 787.114 495.493 784.994C493.945 783.917 497.074 782.134 496.064 780.99C491.152 786.205 492.902 787.854 495.291 790.882C498.05 789.974 501.145 786.878 503.938 785.701C502.088 781.057 512.35 774.765 515.445 774.227C514.436 775.236 515.749 775.91 515.042 776.885C514.268 776.347 513.562 775.136 512.552 775.943C511.61 783.884 504.846 786.71 498.352 792.362C502.423 792.8 498.655 795.525 500.842 797.847C506.899 791.791 512.787 785.499 518.507 780.25C514.974 781.562 519.046 776.313 519.282 774.934C521.603 774.295 527.592 771.603 527.928 769.752C526.919 770.56 526.179 769.685 525.439 768.81C531.226 768.137 534.86 762.451 540.042 758.851C534.894 763.359 538.527 762.518 535.634 766.657C539.772 764.066 542.397 762.922 542.734 758.447C543.306 759.019 543.878 759.591 544.45 760.13C549.766 751.045 564.739 743.609 572.108 732.573C572.915 733.111 573.622 734.323 574.598 733.515C580.52 723.388 596.166 715.515 597.848 709.223C600.304 711.04 597.31 715.649 594.181 716.288C598.69 719.687 600.035 712.251 601.684 709.963C601.583 710.098 602.929 710.939 602.828 711.074C605.25 707.44 604.073 703.537 607.067 700.037C610.903 695.563 615.075 697.346 619.55 691.02C615.21 689.943 625.035 685.2 625.506 681.667C616.926 689.607 632.068 669.756 635.87 673.625C633.144 675.981 634.254 677.764 632.976 679.917C636.98 675.476 635.802 678.268 638.931 679.681C641.69 675.677 643.744 676.855 646.233 674.702C644.046 673.255 641.153 676.519 638.764 676.452C639.841 675.409 640.176 674.5 640.479 673.592C642.969 672.515 647.041 674.164 646.233 670.126C647.176 671.169 648.185 671.741 649.295 671.64C638.259 685.3 634.625 690.684 620.863 699.97C615.681 708.584 604.679 712.217 600.506 722.547C599.362 721.571 597.579 724.667 596.502 723.152C588.595 734.323 572.377 738.63 568.844 750.708C571.099 748.622 573.622 744.955 575.372 746.469C572.814 748.69 563.998 761.442 562.316 754.914C560.836 757.101 559.625 759.221 556.765 761.61C558.009 765.176 560.836 757.74 562.316 759.49C559.086 763.191 552.458 772.007 546.771 771.569C532.875 785.633 523.05 797.006 510.668 802.961C513.158 806.359 507.808 803.163 506.428 804.879C505.183 807.571 509.961 806.931 508.547 808.479C507.774 809.253 508.11 809.859 507.572 810.599C505.115 814.064 503.433 811.945 501.246 813.492C501.919 816.016 497.579 819.246 494.719 822.274C489.806 818.573 486.98 826.85 483.783 829.743C470.594 841.688 451.986 856.29 442.296 866.519C451.751 860.362 452.962 856.358 462.081 852.522C468.945 841.116 483.884 832.974 493.372 822.476C494.685 823.99 496.367 823.014 497.78 823.788C497.747 825.538 495.762 827.556 495.661 829.306C499.867 827.556 504.51 815.915 512.955 814.367C511.509 812.046 515.041 810.666 516.993 809.219C515.58 802.86 527.357 791.589 532.539 788.022C533.447 789.267 525.641 795.054 529.073 793.742C531.394 791.454 533.716 789.032 535.398 790.849C534.389 792.531 530.183 794.651 531.361 795.996C534.658 794.381 538.595 788.359 540.95 793.271C544.618 790.478 537.72 792.161 540.95 788.695C541.556 788.964 542.262 788.695 543.07 787.719C546.704 789.368 544.449 791.858 544.786 793.977C549.766 792.06 547.613 789.536 546.906 788.46C550.843 787.585 547.074 792.632 550.372 791.858C554.611 789.536 558.379 786.34 559.961 784.59C558.985 785.331 558.11 785.162 557.269 784.994C558.985 783.985 558.784 780.149 561.105 781.158C560.298 782.134 558.817 783.244 559.389 784.018C565.244 781.293 570.829 772.949 576.078 773.083C577.188 770.459 572.949 772.747 574.564 770.055C578.164 764.874 580.553 768.07 583.784 765.412C583.38 764.167 579.914 763.393 581.663 761.812C584.658 759.389 588.124 753.501 590.311 756.63C589.907 757.841 584.961 762.956 587.619 761.61C590.815 756.193 595.123 754.477 594.551 750.17C598.353 747.781 597.108 753.77 600.304 751.281C601.011 749.867 598.218 748.993 599.53 747.479C601.583 747.479 612.148 741.826 606.058 743.273C609.826 740.547 610.365 739.841 615.076 735.433C614.369 734.458 612.687 733.616 613.528 732.405C628.501 721.672 637.014 708.012 650.035 698.355C649.329 697.077 647.411 698.019 648.319 696.639C653.534 693.241 657.875 690.549 658.514 685.368C659.322 686.108 659.423 686.983 659.457 687.858C661.576 683.686 666.893 680.927 670.594 679.042C670.762 683.416 664.84 685.401 667.7 689.91C672.68 684.291 670.291 677.259 677.491 672.178C677.222 669.823 673.353 672.01 675.17 669.924C678.232 668.309 678.602 667.367 679.207 664.743C681.125 666.728 683.615 664.608 685.937 663.767C689.907 655.557 699.699 653.572 701.886 644.488C715.681 633.855 733.077 615.552 740.681 603.574C742.767 604.28 745.594 599.907 747.411 602.565C749.699 596.104 755.688 597.181 756.26 591.495C755.251 592.37 754.275 593.144 753.569 591.899C754.914 589.577 755.251 589.51 758.38 585.977C759.356 586.784 760.264 588.029 761.644 586.145C760.399 580.022 770.224 577.531 774.497 574.47C773.589 573.124 772.31 574.369 771.233 574.302C773.925 571.038 779.107 565.116 782.774 567.37C781.428 569.927 777.627 567.606 778.367 570.634C779.612 569.726 780.52 571.004 781.631 570.802C786.712 559.228 799.363 548.764 805.285 543.852C807.472 542.035 806.462 539.141 807.404 538.3C809.928 536.046 814.37 536.685 817.566 531.604C816.96 532.547 818.71 530.562 820.628 528.543C821.368 527.769 828.199 518.55 832.539 518.953C834.322 520.064 827.358 525.716 830.42 524.472C832.977 521.511 833.245 519.929 836.577 518.348C833.01 515.993 838.192 511.989 840.816 511.854C839.235 515.118 835.904 518.651 836.779 521.578C840.614 515.925 847.042 504.587 851.55 510.273C850.978 509.701 852.19 508.221 853.098 508.759C851.382 513.301 853.871 513.267 852.525 517.305C857.472 502.534 873.623 502.568 875.372 486.552C876.651 487.461 875.776 488.672 876.92 489.58C879.376 487.259 877.29 485.61 881.159 483.087C882.068 484.332 883.313 483.491 884.222 484.601C886.005 482.38 888.125 480.126 888.461 478.107C885.299 481.741 882.64 482.01 880.217 480.631C886.206 476.391 886.106 471.311 893.676 469.527C890.042 472.017 893.071 473.531 889.437 476.021C891.557 476.627 893.34 479.352 895.965 476.358C895.258 475.382 893.576 474.541 894.451 473.329C896.537 476.425 907.371 467.206 911.745 462.967C910.399 460.039 908.179 463.269 906.766 461.116C908.313 460.847 910.13 459.064 911.947 457.079C911.745 460.073 912.082 459.366 914.639 461.251C917.6 459.299 913.798 458.323 915.985 456.473C918.071 458.727 921.2 453.613 923.455 454.723C924.901 449.474 927.459 450.08 928.434 452.032C929.78 447.557 931.496 446.951 931.698 443.082C934.121 442.947 932.372 443.889 933.987 445.336C936.678 441.466 936.61 442.072 939.941 440.558C940.48 438.741 940.178 437.059 940.716 435.242C943.24 435.04 944.215 432.516 943.206 436.184C952.829 428.916 949.128 419.63 954.545 416.905C950.81 412.228 955.991 410.344 960.298 408.897C960.029 406.542 956.16 408.729 958.011 406.609C961.409 405.768 963.024 403.817 965.48 400.284C967.97 401.428 966.053 403.244 966.827 404.657C967.6 402.033 971.1 400.62 970.864 399.51C969.451 400.283 968.105 400.485 966.827 400.115C968.644 398.332 968.105 396.885 970.864 394.967C971.436 395.539 972.008 396.111 972.58 396.683C975.945 387.094 987.889 380.904 988.125 375.487C990.076 372.526 991.22 375.385 992.936 374.141C992.162 373.333 991.321 373.232 990.446 373.198C991.018 370.002 1004.48 365.359 996.604 367.075C1000.47 363.677 1003.81 364.854 1004.68 361.321C1002.73 362.936 1001.35 361.59 1002.96 359.639C1002.69 361.557 1004.21 362.028 1006.23 359.807C1005.99 358.091 1007.37 356.173 1008.35 354.289C1007.84 357.889 1012.92 351.8 1013.53 350.252C1012.82 350.723 1012.02 351.732 1011.41 351.227C1012.72 349.478 1015.68 344.162 1018.31 344.33C1018.64 345.575 1015.45 347.358 1016.39 348.536C1019.99 346.955 1019.05 344.364 1021.4 341.268C1026.01 343.489 1026.48 331.107 1031.56 334.573C1023.19 338.509 1026.55 349.781 1018.31 348.906C1021.4 352.237 1016.89 352.91 1014.47 357.284C1017.16 358.192 1014.67 359.875 1015.24 361.086C1019.25 358.024 1016.79 358.293 1017.16 356.914C1018.51 356.813 1020.16 354.256 1021.2 356.308C1020.39 357.284 1018.91 358.394 1019.48 359.168C1022.21 355.568 1024.53 354.659 1026.58 355.5C1029.28 350.184 1033.72 348.973 1041.39 339.62C1041.83 337.197 1038.56 338.913 1040.65 335.818C1053.27 328.449 1057.34 314.351 1066.39 307.891C1066.22 304.594 1061.65 306.041 1065.25 302.205C1067.97 301.095 1068.58 302.811 1069.48 304.83C1074.26 295.577 1082.27 294.466 1089.27 286.257C1087.55 278.283 1102.86 272.428 1103.67 263.916C1100.91 268.256 1096.34 272.866 1092.53 272.731C1093.34 267.785 1101.69 258.162 1104.44 263.142C1106.6 256.917 1114.61 257.691 1112.52 252.812C1117.03 255.538 1125.61 246.722 1129.41 240.565C1128.84 241.473 1131.19 240.094 1133.08 238.075C1142.84 227.51 1156.19 215.902 1163.02 203.655C1164 204.463 1164.91 205.741 1166.29 203.824C1164.91 202.276 1163.46 200.762 1165.72 198.676C1167.47 199.416 1165.38 202.646 1168.21 199.618C1167.97 197.936 1168.91 195.546 1171.47 195.21C1172.34 192.687 1169.11 194.773 1170.53 192.754C1172.04 191.408 1173.49 190.567 1174.77 190.836C1175.61 191.812 1173.25 193.225 1174.97 194.066C1176.55 190.029 1177.73 189.86 1180.15 185.486C1178.33 183.4 1177.63 188.111 1174.8 186.26C1184.09 162.64 1206.03 144.808 1222.24 126.471C1224.57 127.077 1218.41 132.123 1221.67 130.475C1227.56 121.558 1227.39 118.194 1235.7 115.368C1238.53 112.541 1236.65 110.422 1237.45 107.932C1241.63 106.653 1245.6 94.7427 1252.43 95.3146C1250.74 92.7912 1256.43 91.7815 1256.09 88.2487C1258.28 90.2675 1259.16 88.4845 1258.95 86.533C1262.62 89.4603 1263.97 83.1012 1267.2 84.0096C1266.49 80.8469 1269.12 79.0969 1272.78 77.3137C1273.66 74.7902 1270.43 76.91 1271.81 74.8575C1276.92 72.4351 1279.58 63.889 1285.64 65.6722C1285.1 60.8945 1296.2 51.5743 1300.81 51.6753C1298.15 47.9069 1307.44 39.8993 1308.89 41.3797C1310.17 37.073 1311.85 32.6989 1314.07 28.224C1314.51 29.4689 1314.37 30.7811 1314.84 32.026C1329.61 18.5675 1337.62 4.09967 1357.88 -10.8392C1356.83 -11.7813 1357 -12.8915 1357.71 -14.0691C1367.3 -14.9775 1371.74 -34.9633 1378.84 -28.2677C1382.74 -32.137 1377.16 -30.5893 1379.04 -34.1558C1388.43 -42.3318 1392.87 -50.5417 1400.17 -52.9306C1403.4 -59.2897 1406.26 -60.9049 1410.94 -68.2061C1412.49 -67.1294 1409.36 -65.3796 1410.37 -64.202C1417.43 -71.8397 1419.79 -77.1559 1428.44 -79.9149C1425.44 -82.3038 1430.56 -85.8701 1429.01 -88.4608C1424.63 -84.4905 1419.25 -79.3093 1414.03 -80.386C1416.26 -84.7936 1420.93 -83.0438 1420.76 -85.9373C1409.39 -82.2699 1409.43 -73.6564 1400 -65.2785C1399.2 -66.0187 1399.1 -66.8939 1399.06 -67.735C1395.02 -65.7835 1393 -60.9719 1390.99 -57.4391C1372.65 -46.5714 1361.61 -22.447 1343.14 -13.2279C1341.22 -6.16223 1332.71 1.87921 1326.05 9.48322C1324.57 5.58026 1334.19 0.0287476 1332.57 -3.87421C1328.74 -0.139465 1315.18 16.7844 1313.36 10.6945C1314.88 12.2085 1317.16 13.6216 1315.28 15.6403C1313.6 18.1302 1312.59 16.0443 1311.04 17.5583C1312.86 22.1679 1298.35 32.9681 1293.74 37.0392C1294.45 36.5682 1295.12 36.6354 1295.66 37.4093C1293.14 37.7458 1291.26 46.0231 1286.44 46.5951C1288.36 45.0137 1289.2 43.5665 1288.36 42.4225C1283.11 43.4993 1288.03 47.3015 1283.95 50.2287C1282.37 49.152 1285.54 47.4022 1284.53 46.2246C1278.81 53.4586 1265.92 63.6873 1261.27 70.5175C1262.18 73.3101 1264.2 68.465 1265.11 71.2576C1263.7 72.0651 1261.81 75.867 1260.7 74.5212C1260.06 73.5454 1261.01 72.3007 1260.53 71.2913C1248.42 82.731 1238.02 95.281 1222.88 108.773C1218.31 108.067 1212.22 120.482 1207.51 124.082C1201.32 128.826 1193.61 139.189 1186.38 147.399C1174.84 160.487 1160.27 171.086 1152.76 184.309C1151.79 183.501 1150.88 182.222 1149.5 184.14C1150.24 185.116 1151.89 185.957 1151.05 187.169C1147.11 190.298 1143.37 191.778 1139.91 191.408C1140.28 193.326 1140.01 195.311 1139.71 197.296C1141.22 196.118 1141.93 191.879 1144.32 192.72C1143.11 194.436 1144.59 195.715 1141.62 197.666C1134.83 197.161 1138.97 197.801 1133.18 201.502C1134.53 200.223 1134.73 199.113 1134.36 198.07C1132.64 203.352 1124.13 205.64 1122.65 210.889C1127.59 207.827 1128.27 206.011 1132.81 204.194C1129.21 208.568 1127.9 209.106 1125.51 213.749C1123.69 213.413 1125.88 209.544 1123.22 211.461C1122.01 217.45 1109.76 217.148 1107.47 224.886C1108.55 222.834 1112.62 221.555 1110.94 223.708C1109.12 225.693 1107.67 225.189 1105.96 226.4C1106.93 233.23 1097.75 235.249 1095.97 240.902C1093.27 242.046 1092.53 241.103 1091.35 240.935C1091.99 244.098 1085.43 251.769 1083.68 253.149C1081.5 251.735 1086.78 249.212 1085.8 247.631C1078.47 255.706 1077.86 260.215 1075.44 264.824C1073.86 266.742 1072.95 264.05 1071.4 265.43C1075.17 266.641 1069.89 272.966 1066.39 277.239C1064.64 274.985 1063.46 274.279 1063.7 273.067C1065.18 272.899 1067.43 269.77 1067.74 267.919C1064.4 268.996 1067.94 263.613 1066.59 262.233C1068.51 260.955 1069.11 261.493 1069.08 263.176C1073.42 256.211 1082 250.625 1086.38 243.694C1086.95 244.468 1086.31 246.352 1088.09 245.377C1084.86 244.569 1090.35 242.449 1088.66 241.372C1085.33 242.449 1087.99 237.2 1088.87 235.484C1088.87 237.167 1089.44 237.705 1091.35 236.427C1089.57 231.211 1097.51 231.043 1097.31 227.073C1099.94 226.131 1097.65 230.37 1100.58 227.241C1099.8 226.501 1099.03 225.727 1098.29 224.987C1100.78 221.959 1108.58 213.749 1110.77 211.428C1112.99 209.779 1105.79 210.755 1110 207.626C1112.05 210.755 1117.4 198.07 1122.11 201.266C1127.36 192.317 1132.98 192.115 1136.51 183.501C1137.79 184.141 1142.94 180.91 1142.47 178.69C1141.66 180.338 1137.99 180.877 1139.81 179.093C1153.7 170.413 1167.3 153.758 1180.52 143.092C1179.55 143.832 1178.67 143.664 1177.86 143.496C1178.87 142.487 1179.92 141.443 1180.93 140.434C1181.77 141.174 1181.83 142.049 1181.87 142.89C1183.11 138.819 1190.65 138.415 1191.46 135.623C1188.6 137.137 1192.03 133.739 1193 134.075C1191.93 131.989 1191.83 132.662 1193 129.499C1191.76 130.542 1190.38 132.527 1189.34 131.989C1193.54 123.106 1205.76 116.175 1212.96 109.581C1214.3 106.149 1208.41 110.253 1210.06 106.754C1214.54 106.451 1213.23 98.1072 1216.96 99.8905C1217.77 101.977 1210 108.706 1215.82 107.865C1217.97 102.75 1216.83 96.5594 1223.72 94.3388C1217.4 89.3928 1230.35 81.6204 1231.03 75.665C1233.99 74.9584 1240.78 71.5938 1242.16 66.8497C1235.97 71.7284 1230.02 75.1603 1224.7 73.9827C1225.51 73.007 1226.99 71.8967 1226.42 71.1229C1221.13 74.5211 1226.21 76.3718 1221.23 79.7028C1223.32 81.9571 1226.58 76.069 1228.74 77.9531C1222.88 84.3796 1217.63 90.2339 1212.02 93.464C1215.01 91.5125 1211.17 90.5366 1213.36 88.6861C1214.57 88.4842 1219.35 85.9946 1218.54 84.6824C1216.59 80.6111 1223.19 69.9117 1230.82 67.8593C1229.85 62.3413 1237.62 61.1636 1238.5 60.2216C1235.91 61.7693 1237.01 57.4962 1237.72 56.4195C1240.31 59.0775 1247.48 50.498 1240.99 52.0121C1244.12 48.8157 1246.2 49.6566 1247.11 50.4641C1248.29 46.7966 1249.84 43.0956 1250 39.6301C1251.35 41.1442 1250.34 42.86 1253.07 41.144C1254.14 38.5196 1252.39 39.5291 1252.86 37.9141C1253.6 37.4431 1254.24 37.5103 1254.78 38.2842C1253.44 31.454 1266.02 30.9832 1265.55 27.5849C1264.54 28.4597 1263.56 29.2335 1262.86 27.9886C1266.63 24.7586 1270.43 21.0573 1273.59 21.8311C1272.18 18.1301 1277.16 20.149 1279.55 17.0536C1276.82 12.2086 1289.44 -1.14923 1291.46 2.92194C1292.63 -1.08191 1292.43 -4.44647 1297.98 -5.85962C1295.93 -9.8299 1292.1 -1.38464 1289.54 -2.02393C1290.31 -5.59045 1298.09 -10.2336 1299.16 -13.8674C1302.66 -14.2039 1305.18 -14.5065 1306.83 -12.3868C1308.52 -14.8093 1307.04 -16.7607 1307.78 -19.0486C1306.77 -18.2411 1305.69 -16.7943 1304.92 -17.3326C1305.59 -22.1777 1312.45 -27.1913 1315.68 -23.4902C1313.26 -22.178 1315.72 -18.4096 1316.46 -19.6882C1315.11 -23.1874 1320.66 -27.6958 1320.12 -31.296C1315.85 -28.7052 1319.45 -27.2922 1315.89 -24.8024C1313.09 -25.6099 1314.3 -27.8641 1310.9 -26.6865C1315.88 -30.9932 1317.9 -33.2811 1320.33 -37.2177C1321.44 -36.0737 1318.95 -34.3914 1321.1 -33.4156C1324.57 -35.67 1320.66 -36.8478 1321.87 -38.7321C1323.96 -39.4722 1326.21 -41.39 1328.03 -40.2796C1331.4 -49.7342 1337.69 -52.7288 1346.3 -61.8806C1344.86 -65.4471 1341.69 -57.3044 1339.94 -58.9867C1345.39 -70.5946 1354.95 -78.8716 1360.91 -90.1094C1361.54 -89.1337 1360.6 -87.8889 1361.11 -86.8795C1363.16 -94.0461 1369.42 -94.5173 1368.01 -98.3193C1382 -106.764 1404.71 -133.513 1418.14 -140.242C1423.93 -146.164 1428.1 -157.301 1436.38 -157.267C1437.12 -162.55 1447.04 -167.53 1447.72 -171.971C1446.4 -170.928 1446.64 -172.778 1447.35 -173.888C1461.95 -183.579 1462.55 -194.951 1478.47 -207.165C1475.1 -209.654 1469.49 -196.532 1466.56 -202.151C1458.55 -194.985 1454.34 -194.615 1447.35 -187.583C1448.15 -188.592 1449.63 -189.669 1449.1 -190.443C1448.35 -189.971 1447.55 -188.928 1446.98 -189.467C1450.85 -192.663 1452.66 -195.523 1452.16 -198.047C1447.11 -192.091 1440.45 -184.42 1433.35 -181.594C1432.24 -185.53 1445.09 -192.663 1444.49 -194.951C1438.7 -191.25 1433.01 -188.39 1427.02 -183.242C1427.7 -187.515 1424.5 -181.156 1423.19 -183.982C1425.14 -188.827 1428.4 -189.366 1430.29 -192.192C1429.55 -191.082 1425.98 -191.183 1427.8 -193.134C1431.03 -194.783 1430.49 -195.557 1433.18 -198.484C1434.05 -197.845 1431.8 -193.673 1434.73 -195.456C1436.28 -199.863 1439.34 -207.972 1444.35 -207.299C1443.41 -208.544 1442.23 -207.669 1441.29 -208.813C1443.24 -210.63 1445.09 -212.413 1445.33 -213.961C1445.9 -213.389 1446.47 -212.817 1447.04 -212.245C1450.54 -218.032 1451.79 -221.229 1452.26 -225.401C1455.35 -227.42 1465.72 -235.461 1464.74 -238.994C1459.9 -235.865 1457.17 -227.487 1450.74 -228.462C1440.58 -217.898 1427.16 -206.862 1421.54 -199.393C1417.94 -194.581 1410.4 -190.241 1407.14 -186.169C1403.84 -182.065 1399.67 -175.033 1394.45 -175.807C1397.98 -176.951 1398.69 -181.964 1402.7 -182.906C1403.57 -185.429 1400.31 -183.31 1401.75 -185.362C1443.31 -219.412 1473.29 -272.472 1517.4 -311.939C1511.88 -316.784 1525.81 -326.508 1531.03 -328.93C1529.82 -334.045 1538.23 -335.491 1536.41 -338.856C1533.25 -338.25 1529.21 -331.521 1526.42 -333.473C1525.84 -334.919 1522.11 -335.861 1523.73 -337.645C1532 -347.974 1542.13 -348.613 1544.08 -355.645C1539.3 -350.733 1531.13 -351.238 1523.93 -343.533C1524.94 -344.71 1520.33 -349.252 1521.03 -346.359C1525.81 -343.263 1518.14 -342.12 1518.54 -338.149C1515.78 -335.66 1513.5 -336.501 1511.24 -337.712C1511.07 -342.456 1517.97 -348.277 1518.75 -353.155C1516.22 -355.41 1512.69 -353.727 1511.07 -350.06C1494.86 -342.86 1480.25 -317.693 1465.92 -306.253C1464.37 -304.739 1463.4 -306.825 1461.71 -304.335C1455.49 -296.966 1447.45 -282.801 1436.54 -280.412C1432.71 -274.726 1428.03 -271.463 1422.72 -266.651C1423.96 -264.868 1422.95 -262.748 1419.82 -260.359C1419.96 -262.748 1419.01 -260.998 1417.53 -262.613C1419.32 -264.834 1421.47 -267.122 1421.77 -269.107C1419.99 -268.939 1417.67 -265.104 1416.39 -268.3C1421.57 -273.414 1420.8 -277.654 1425.04 -282.6C1423.32 -281.388 1422.01 -282.835 1420.06 -279.908C1420.06 -273.38 1411.65 -265.642 1414.47 -259.552C1412.25 -258.307 1408.65 -259.686 1408.92 -261.974C1400.04 -259.114 1393.95 -247.406 1385.87 -243.57C1383.72 -245.656 1386.65 -248.482 1386.24 -250.804C1380.35 -245.588 1385.53 -253.125 1384.16 -254.404C1381.97 -248.415 1374.36 -241.652 1369.55 -235.293C1324.16 -203.8 1286.58 -152.49 1246.23 -119.315C1236.75 -106.966 1225.31 -95.291 1218.58 -87.2159C1216.69 -80.2175 1208.92 -69.7538 1203.2 -67.3649C1202.22 -63.3947 1190.75 -52.022 1187.25 -48.0853C1192.03 -52.8295 1186.21 -48.6238 1184.76 -49.0275C1191.09 -55.5886 1196.47 -59.1889 1194.75 -63.5292C1195.93 -64.1685 1197.11 -64.6732 1198.22 -64.7068C1197.75 -64.0002 1196.71 -63.1927 1197.24 -62.6207C1203.1 -66.8265 1192.43 -65.2451 1196.3 -69.6527C1199.9 -67.1965 1201.11 -75.5406 1204.38 -70.8302C1202.26 -68.1385 1199.87 -69.0472 1201.11 -66.4564C1208.28 -73.0511 1213.9 -80.2849 1216.86 -84.4234C1212.18 -83.8177 1209.49 -75.7762 1205.32 -72.95C1203.77 -72.9163 1202.43 -74.2958 1200.91 -74.2622C1195.46 -71.6378 1193.61 -66.0187 1188.63 -66.5908C1197.24 -79.0062 1198.86 -73.0173 1205.72 -80.184C1205.29 -79.7465 1204.38 -79.7803 1205.15 -80.756C1209.59 -86.1058 1212.76 -87.4178 1216.09 -92.8013C1218.68 -93.7097 1227.59 -95.3249 1223.02 -99.6989C1220.53 -96.2333 1216.99 -92.364 1213.6 -93.7434C1205.89 -88.2591 1206.56 -80.083 1200.14 -78.0642C1203.23 -81.5634 1204.81 -84.8271 1204.18 -87.788C1200.51 -84.8608 1204.04 -82.9767 1199.77 -79.9486C1199.13 -80.9243 1200.07 -82.1691 1199.57 -83.1785C1197.04 -78.5353 1191.39 -70.9986 1187.45 -72.2772C1192.84 -79.6457 1198.29 -85.6345 1202.06 -91.388C1202.8 -90.5132 1204.41 -89.3693 1203.97 -91.0179C1203.57 -91.388 1203.2 -91.7921 1202.83 -92.1622C1193.44 -87.7545 1195.19 -80.0157 1186.51 -79.3428C1190.31 -82.4046 1191.52 -87.4178 1195.73 -88.5281C1193.95 -92.9358 1200.95 -101.011 1205.92 -104.376C1191.22 -97.8821 1189.84 -82.7411 1180.96 -72.6809C1178.23 -74.0604 1184.32 -80.083 1179.24 -78.939C1172.01 -65.1105 1152.36 -56.0597 1142.94 -46.2014C1150.04 -57.3046 1157.17 -66.1536 1165.82 -72.3782C1168.37 -74.5988 1162.18 -72.0753 1164.84 -74.8343C1173.15 -78.9391 1183.89 -93.3734 1192.13 -104.275C1192.67 -103.164 1192.2 -102.424 1193.85 -102.559C1194.32 -111.34 1206.36 -116.858 1210 -123.184C1209.29 -122.713 1208.48 -121.703 1207.88 -122.242C1220.6 -132.302 1236.04 -147.544 1243.81 -161.44C1244.59 -160.666 1245.36 -159.925 1246.1 -159.185C1255.79 -173.148 1270.9 -193.168 1287.42 -203.733C1286.04 -204.843 1286.21 -206.155 1287.99 -207.737C1322.95 -239.465 1355.52 -283.643 1388.66 -312.545C1387.39 -311.401 1386.07 -309.819 1385.2 -311.367C1402.76 -322.47 1413.87 -336.198 1426.89 -349.454C1429.41 -350.228 1431.7 -349.387 1434.16 -349.858C1431.67 -352.314 1431.7 -350.06 1428.6 -352.281C1437.08 -355.679 1445.23 -364.158 1450.48 -371.829C1451.05 -371.257 1451.62 -370.685 1452.22 -370.113C1454.81 -377.112 1460.4 -384.177 1466.42 -386.566C1465.45 -385.759 1464.67 -386.633 1463.93 -387.508C1467.43 -391.949 1470.49 -395.55 1472.78 -394.036C1474.33 -396.626 1477.39 -399.015 1480.66 -398.443C1483.08 -401.875 1477.76 -401.135 1478.74 -403.389C1510.54 -429.835 1549.77 -470.413 1580.72 -503.823C1553.67 -478.387 1526.08 -453.354 1500.81 -424.25C1499.33 -425.999 1496.47 -418.564 1495.26 -422.13C1482.34 -405.374 1458.21 -390.806 1446.84 -373.915C1446.03 -374.454 1445.33 -375.665 1444.35 -374.857C1447.18 -373.309 1444.92 -371.021 1444.15 -368.969C1440.01 -369.911 1437.02 -361.802 1430.52 -361.096C1432 -357.563 1420.02 -350.767 1417.67 -349.421C1417.67 -347.907 1419.08 -346.595 1417.67 -344.845C1415.11 -346.494 1414.14 -340.874 1410.57 -341.211C1410.87 -336.433 1405.25 -333.943 1402.29 -329.569C1398.19 -332.362 1395.33 -325.969 1391.36 -322.1C1390.48 -319.577 1393.71 -321.696 1392.33 -319.644C1371.24 -301.61 1353.74 -281.354 1330.08 -262.243C1330.56 -262.95 1331.6 -263.757 1331.06 -264.329C1328.27 -262.412 1331.16 -261.301 1328.37 -259.384C1326.85 -260.999 1325.91 -259.249 1326.08 -261.638C1323.59 -256.86 1317.47 -253.394 1313.19 -249.962C1314.14 -247.304 1315.78 -249.761 1317.03 -249.222C1314.94 -247.607 1316.42 -246.531 1313.77 -244.815C1312.62 -245.959 1315.14 -247.641 1313.02 -248.617C1308.68 -245.791 1312.35 -244.176 1308.01 -241.349C1305.72 -244.512 1303.5 -238.119 1299.57 -237.48C1300.17 -233.88 1299.87 -233.51 1301.48 -232.534C1298.86 -230.986 1296.94 -229.842 1297.45 -227.386C1296.87 -227.958 1296.3 -228.53 1295.73 -229.068C1294.72 -227.083 1290.82 -218.806 1287.29 -220.657C1291.32 -223.281 1291.56 -229.573 1298.05 -231.39C1293.07 -235.663 1283.82 -215.374 1276.92 -217.191C1293.24 -234.855 1307.2 -246.834 1325.14 -264.06C1324.47 -265.339 1322.51 -264.363 1323.42 -265.776C1325.1 -266.786 1327.26 -270.958 1328.6 -269.814C1329.14 -267.526 1323.99 -267.997 1326.69 -265.608C1330.79 -269.174 1337.62 -276.779 1339.17 -279.168C1337.59 -277.687 1332.64 -275.803 1333.99 -279.706C1350.31 -290.54 1364.94 -308.877 1377.39 -320.653C1395.46 -337.712 1414.61 -353.963 1434.83 -372.132C1435.2 -371.762 1435.6 -371.358 1435.97 -370.988C1440.48 -380.779 1450.71 -383.134 1453.47 -391.815C1456.13 -393.396 1458.75 -394.978 1460.97 -393.565C1461.98 -395.247 1466.19 -397.367 1465.01 -398.713C1461.85 -395.146 1459.09 -394.238 1456.77 -396.189C1460.8 -400.698 1472.48 -411.666 1478.67 -415.737C1483.68 -425.024 1496.67 -434.175 1500.95 -442.486C1494.79 -439.761 1488.43 -425.764 1482.14 -430.575C1488.33 -434.075 1488.16 -441.645 1495.39 -444.909C1493.24 -446.692 1494.99 -448.374 1498.86 -450.628C1497.85 -458.737 1514.2 -465.736 1517.5 -474.921C1520.63 -475.325 1523.96 -477.108 1527.29 -478.959C1525.91 -481.247 1523.73 -476.973 1524.23 -480.439C1522.55 -479.43 1520.43 -475.258 1519.05 -476.435C1534.59 -493.998 1545.19 -507.322 1559.19 -522.126C1553.7 -527.342 1566.46 -531.413 1567.64 -535.114C1561.54 -534.307 1573.52 -541.944 1576.28 -544.871C1583.08 -552.004 1589.03 -561.291 1591.86 -566.069C1585.64 -565.295 1585.2 -557.321 1578.97 -554.393C1577.9 -555.975 1577.29 -557.623 1578.4 -559.508C1579.98 -559.171 1583.62 -564.588 1581.3 -565.799C1577.8 -560.82 1574.73 -559.575 1570.16 -556.984C1572.95 -563.108 1575.31 -572.428 1583.82 -573.975C1584.59 -579.796 1591.29 -584.136 1596.88 -591.539C1592.4 -593.322 1600.54 -599.547 1605.32 -604.526C1606.53 -610.885 1601.59 -608.564 1606.87 -615.192C1603.77 -614.351 1603.94 -611.087 1601.69 -611.154C1600.51 -615.327 1599.13 -619.465 1604.95 -624.68C1605.59 -623.704 1604.65 -622.459 1605.15 -621.45C1608.82 -625.723 1611.85 -631.746 1611.48 -633.462C1616.42 -635.548 1614.07 -636.456 1616.29 -639.384C1619.82 -644.027 1628.2 -648.165 1626.85 -653.313C1622.72 -651.765 1621.07 -645.776 1616.86 -647.93C1618.24 -652.371 1623.49 -651.429 1621.67 -653.851C1617.87 -653.246 1612.69 -643.354 1609.39 -646.18C1610.94 -647.728 1612.45 -649.242 1614 -650.79C1612.35 -652.573 1608.38 -648.401 1609.02 -652.674C1608.21 -651.261 1604.38 -649.377 1605.76 -648.266C1607.34 -650.049 1608.69 -650.251 1609.8 -648.872C1607.88 -646.853 1603.34 -643.085 1600 -640.258C1601.96 -649.107 1614.88 -661.691 1621.71 -667.579C1621.24 -669.261 1620.36 -670.876 1621.14 -672.727C1617.5 -669.228 1613.93 -665.728 1619.22 -668.521C1616.56 -665.392 1614.51 -666.233 1612.32 -666.2C1615.15 -674.443 1617.33 -669.833 1621.54 -675.385C1618.38 -673.03 1616.29 -672.929 1617.13 -676.664L1616.52 -677ZM1419.65 -80.8904C1421.07 -78.2996 1417.64 -77.5593 1415.82 -77.0546C1414.67 -78.5687 1418.88 -80.7558 1419.65 -80.8904ZM1302.46 42.6583C1301.65 43.9368 1299.16 48.0078 1297.28 51.2379C1297.24 50.363 1297.14 49.5219 1296.34 48.748C1298.66 46.662 1300.1 44.7107 1299.8 43.0284C1300.78 42.3554 1301.45 43.634 1302.49 42.6246L1302.46 42.6583ZM1023.89 354.256C1022.95 353.246 1021.84 353.347 1020.63 354.087C1019.48 352.741 1021.3 350.958 1023.32 349.141C1023.15 351.631 1025 349.68 1024.83 352.17C1026.55 350.958 1028.7 346.786 1029.81 349.478C1028.03 349.68 1025.91 352.237 1023.86 354.289L1023.89 354.256ZM484.692 727.122C486.004 728.771 482.572 727.661 481.596 730.184C481.024 729.612 480.452 729.04 479.88 728.502C481.226 726.651 482.303 726.853 483.548 726.012C483.581 726.988 483.649 727.964 484.692 727.156V727.122ZM192.564 579.281C187.887 581.805 186.374 589.711 182.773 587.895C183.85 585.035 189.031 576.859 192.564 579.281ZM964.875 -118.036C961.611 -113.628 958.212 -109.793 952.593 -105.789C955.251 -111.105 959.861 -114.806 964.875 -118.036ZM1611.55 -665.156C1612.66 -664.013 1610.17 -662.33 1612.32 -661.354C1610.17 -658.663 1608.58 -659.672 1606.36 -656.577C1605.83 -657.351 1607.27 -658.461 1608.08 -659.437C1607.54 -660.211 1606.87 -660.278 1606.16 -659.807C1605.42 -661.489 1610.37 -665.056 1611.55 -665.156ZM1598.05 -612.971C1598.49 -611.087 1596.34 -608.799 1593.81 -606.478C1592.53 -608.463 1595.09 -611.02 1596.13 -613.341C1596.67 -612.568 1597.35 -612.5 1598.05 -612.971ZM1575.34 -556.177C1575.78 -554.091 1570.83 -545.982 1568.41 -549.279C1572.11 -551.836 1571.47 -552.442 1575.34 -556.177ZM1430.22 -525.626C1434.09 -527.678 1426.42 -517.012 1424.84 -520.276C1426.18 -521.319 1429.78 -523.91 1430.22 -525.626ZM1407.37 -508.567C1409.22 -508.063 1404.61 -503.554 1407.57 -505.337C1407.74 -504.025 1401.52 -496.421 1400.07 -499.012C1404.48 -502.477 1405.29 -505.438 1407.37 -508.567ZM1441.59 -168.808C1443.27 -167.025 1437.92 -162.482 1436.01 -162.112C1435.06 -165.342 1440.28 -167.765 1441.59 -168.808ZM1305.99 -240.037C1308.72 -237.917 1303.17 -236.235 1301.95 -234.889C1300.41 -236.437 1304.21 -239.835 1305.99 -240.037ZM1217.8 -148.822C1214.84 -150.336 1221.44 -153.263 1220.7 -155.114C1219.38 -155.35 1218.91 -152.793 1216.29 -151.851C1214.3 -138.257 1195.53 -127.625 1184.76 -115.916C1175.94 -106.327 1170.63 -95.8968 1163.26 -89.9414C1162.18 -90.0087 1160.9 -88.7635 1160 -90.1094C1158.92 -85.9036 1153.87 -84.7261 1150.78 -80.9241C1147.85 -81.7316 1150.2 -83.2458 1146.57 -79.0064C1146.91 -81.5298 1145.22 -80.5204 1143.71 -81.8326C1145.39 -84.2888 1146.37 -82.1356 1147.75 -82.4384C1147.95 -84.4235 1148.76 -86.5095 1147.95 -88.3264C1149.87 -89.4704 1151.45 -88.3264 1153.33 -89.1339C1154.71 -90.8499 1153.27 -92.1618 1154.68 -93.8777C1151.25 -94.2142 1147.28 -86.9133 1142.6 -87.519C1146.03 -91.6238 1148.76 -90.6815 1152.19 -94.8199C1149.43 -93.9115 1146.44 -91.2874 1143.54 -89.6387C1138.97 -81.0253 1145.33 -76.4827 1138.53 -68.6768C1140.35 -67.7347 1142.7 -70.3258 1144.85 -71.5707C1141.96 -63.0919 1132.91 -60.8373 1131.8 -54.0071C1130.22 -53.5697 1128.4 -51.6859 1127.02 -52.6279C1125.24 -50.1044 1122.82 -43.1058 1119.92 -44.418C1118.54 -42.9039 1121.3 -41.9957 1119.35 -40.4144C1110.53 -39.0349 1105.39 -23.4565 1097.45 -20.8994C1096.23 -14.5739 1086.51 -5.9942 1082.47 -3.70624C1082.78 4.70532 1066.79 17.02 1058.65 20.0145C1052.96 26.1718 1055.08 27.0127 1049.63 32.4297C1051.45 30.9493 1056.53 29.8053 1056.16 28.1903C1058.18 30.4109 1054.17 33.7419 1048.69 39.058C1048.82 38.957 1048.83 37.5775 1049.67 36.9719C1040.92 43.7348 1031.66 65.7396 1015.68 67.4219C1018.95 64.36 1021.47 61.3656 1022.21 58.6403C1021.34 61.332 1009.93 67.2875 1012.42 71.8297C1010.3 74.5214 1008.55 74.2518 1006.87 73.949C1005.79 72.3676 1004.65 70.7864 1007.64 68.5994C1006.56 66.9507 1004.48 72.4016 1003.64 69.2052C1008.52 64.1583 1012.89 62.6778 1017.84 57.328C1014.91 57.8663 1011.17 60.6251 1006.13 65.5712C1014.27 51.4061 1021.03 43.7688 1034.56 32.6992C1031.87 30.1757 1028.03 35.4579 1025.17 34.0784C1034.56 27.1809 1036.54 18.1973 1043.21 13.8233C1043.61 14.1934 1043.98 14.5638 1044.35 14.9676C1045.93 15.8087 1044.35 17.1546 1043.21 18.3995C1046.27 18.736 1046.97 13.9916 1043.98 13.0832C1046.5 10.5261 1046.84 8.30554 1050.31 5.61383C1051.45 6.95972 1049.6 8.74286 1047.61 10.5598C1052.36 10.6943 1054.78 2.31628 1057.41 -2.59607C1059.26 -6.19617 1059.83 -1.14899 1061.44 -3.20142C1063.33 -7.3399 1079.51 -24.0958 1085.06 -25.5762C1086.31 -28.3016 1086.28 -29.1425 1083.72 -29.95C1086.14 -33.0454 1088.26 -34.0552 1090.04 -32.8439C1090.14 -38.631 1097.21 -41.02 1102.12 -43.7453C1104.78 -46.5043 1098.59 -43.9807 1101.18 -46.2014C1103.1 -48.1865 1102.53 -46.7061 1103.1 -45.8314C1106.03 -48.6576 1102.96 -50.5753 1107.54 -53.637C1108.35 -51.5846 1109.63 -49.5995 1111.95 -47.7827C1113.56 -49.5322 1109.83 -50.5079 1109.26 -51.9547C1112.01 -55.7904 1113.83 -53.3005 1116.36 -55.6221C1112.72 -56.9679 1113.87 -65.9182 1120.19 -64.0003C1118 -60.9049 1116.32 -61.4095 1114.44 -60.5347C1115.95 -59.2225 1117.67 -60.1979 1117.3 -57.7081C1119.42 -62.9569 1121.07 -61.8806 1125.58 -64.8078C1124.53 -66.4229 1124.7 -69.989 1120.39 -69.9217C1123.69 -71.4694 1127.12 -73.9932 1130.39 -75.3054C1131.77 -73.7577 1128.94 -71.6041 1126.92 -69.5853C1125.71 -68.1049 1130.22 -68.6095 1131.33 -68.2731C1132.74 -70.3254 1129.51 -68.2394 1130.39 -70.7628C1132.37 -72.3779 1134.19 -72.7481 1136.34 -75.5408C1138.76 -75.6754 1137.01 -74.7667 1138.66 -73.2863C1141.83 -79.8137 1135.6 -81.4625 1141.19 -86.0383C1140.14 -86.4084 1139.03 -86.2403 1137.72 -84.8608C1141.39 -98.1174 1160.67 -103.703 1163.66 -114.133C1167.33 -115.31 1166.46 -113.326 1168.07 -117.397C1172.55 -115.95 1170.19 -111.744 1168.64 -107.707C1167.13 -108.581 1167.63 -109.725 1167.1 -110.734C1162.96 -107.471 1154.55 -104.106 1152.49 -96.1995C1159.22 -103.198 1165.88 -105.25 1171.71 -110.768C1172.65 -108.144 1172.88 -108.918 1175.34 -108.716C1177.43 -111.879 1169.99 -109.927 1172.08 -113.46C1174.84 -113.023 1177.43 -120.93 1183.21 -122.275C1184.09 -123.554 1182.27 -123.318 1181.3 -122.645C1181.09 -125.337 1185.8 -123.722 1187.82 -126.851C1186.75 -126.851 1185.57 -126.313 1184.36 -125.707C1183.15 -127.894 1186.54 -126.784 1187.42 -128.769C1186.85 -129.274 1186.04 -128.264 1185.3 -127.793C1184.05 -129.577 1188.7 -132.201 1188.19 -134.085C1190.55 -134.152 1194.99 -135.229 1194.15 -138.863C1206.8 -146.299 1218 -157.133 1228.54 -167.395C1229.11 -166.823 1229.68 -166.251 1230.25 -165.679C1235.5 -175.201 1243.51 -180.618 1250.61 -188.222C1249.4 -178.565 1236.91 -172.442 1229.28 -163.559C1225.1 -158.647 1223.66 -152.658 1217.94 -148.856L1217.8 -148.822ZM1273.52 -211.135C1272.65 -201.714 1258.62 -195.254 1252.19 -186.472C1253.64 -194.884 1267.63 -204.911 1273.52 -211.135ZM1137.69 -262.782C1137.65 -257.903 1133.15 -256.389 1129.41 -251.14C1130.02 -254.471 1133.15 -260.931 1137.69 -262.782ZM1153.44 -81.2941C1155.18 -80.0156 1154.28 -78.3672 1152.09 -76.5503C1151.52 -77.1223 1150.94 -77.6943 1150.34 -78.2663C1151.35 -79.2756 1152.39 -80.2848 1153.4 -81.3278L1153.44 -81.2941ZM1029.58 -192.73C1029.48 -189.467 1024.03 -187.347 1021.87 -185.059C1021.87 -187.818 1027.56 -191.384 1029.58 -192.73ZM1137.52 -80.2513C1135.27 -78.0306 1132.47 -81.6306 1132.74 -83.4475C1136.17 -85.8364 1135.6 -81.7318 1137.52 -80.2513ZM1134.66 -78.5353C1135.2 -77.7615 1133.75 -76.6512 1132.94 -75.6755C1131.93 -77.9297 1130.39 -76.0792 1129.31 -77.7278C1131.36 -79.7466 1132.88 -78.0979 1134.69 -78.5353H1134.66ZM1033.82 -176.412C1034.49 -174.528 1030.55 -169.414 1028.64 -172.408C1030.55 -175.167 1032.04 -174.629 1033.82 -176.412ZM1003.67 -158.95C1001.62 -157.469 998.589 -156.157 998.286 -153.6C995.763 -152.355 1000.68 -162.987 1003.67 -158.95ZM1127.53 -33.8194C1129.07 -31.4642 1124.7 -29.2772 1122.71 -27.8976C1121.23 -30.7576 1125.37 -31.3969 1127.53 -33.8194ZM995.427 -160.968C997.883 -158.714 989.505 -154.878 990.211 -152.389C987.351 -149.865 989.067 -156.292 987.149 -153.903C988.663 -156.124 992.533 -158.613 995.427 -161.002V-160.968ZM1220.29 88.0806C1221.23 89.4601 1219.35 91.277 1220.29 92.6565C1218.85 93.5986 1217.84 91.5123 1216.05 94.5742C1214.51 92.8582 1218.21 90.335 1220.29 88.0806ZM1211.44 94.6078C1208.31 98.1407 1206.56 102.111 1202.02 105.139C1200.88 101.64 1208.65 97.064 1211.44 94.6078ZM1223.52 111.061C1220.33 111.801 1219.69 115.94 1217.57 115.839C1214.98 114.224 1222.65 107.764 1223.52 111.061ZM1210.1 99.3521C1211.04 101.135 1209.53 104.668 1206.63 105.072C1206.97 103.12 1207.81 99.6548 1210.1 99.3521ZM1197.24 111.027C1196.84 113.82 1195.66 116.747 1192.23 118.295C1190.85 117.185 1194.69 115.334 1195.49 113.921C1194.38 112.575 1192.5 116.377 1191.09 117.185C1191.42 113.383 1194.15 113.281 1197.24 111.061V111.027ZM1175.34 139.66C1177.46 143.193 1169.01 145.716 1168.81 148.442C1168.31 144.471 1172.92 143.832 1175.34 139.66ZM1169.96 140.468C1170.26 142.453 1164.67 147.029 1163.06 147.365C1161.38 146.289 1166.86 144.202 1163.63 143.361C1165.65 142.991 1167.84 141.578 1169.96 140.468ZM1056.67 33.3383C1052.86 41.9517 1049.83 45.0472 1043.98 52.8195C1043.17 51.4064 1047.45 49.2531 1043.98 48.2437C1049.9 43.0286 1051.89 38.3852 1056.67 33.3383ZM1166.89 148.072C1166.12 150.393 1162.08 159.545 1156.9 158.031C1161.07 156.786 1163.7 151.234 1166.89 148.072ZM1158.45 147.365C1159.59 149.115 1158.45 152.58 1156.33 152.883C1156.03 151.201 1155.76 149.485 1158.45 147.365ZM1156.9 153.455C1155.15 156.988 1149.67 161.194 1145.93 165.501C1144.55 161.059 1154.24 158.401 1150.74 155.003C1152.12 153.152 1153.17 153.388 1154.41 152.513C1153.67 154.33 1153.84 157.291 1156.9 153.455ZM904.175 -62.1497C906.9 -61.0393 902.694 -58.886 901.483 -57.2037C898.959 -58.6169 902.122 -61.9141 904.175 -62.1497ZM1137.12 172.028C1132.27 178.993 1123.52 186.058 1115.78 196.691C1118.85 198.508 1118.98 192.451 1122.31 192.451C1123.96 194.605 1118.78 197.767 1116.56 200.459C1112.92 199.921 1114.84 196.556 1111.38 195.345C1121.07 186.26 1125.98 178.219 1137.12 171.994V172.028ZM1003.27 70.5511C1005.92 73.4111 1000.84 77.4147 997.109 81.2167C994.754 77.7848 1000.2 73.3438 1003.27 70.5511ZM997.849 85.0187C1000.64 87.9124 985.837 97.098 995.36 88.6528C995.595 87.5424 996.47 86.3309 997.849 85.0187ZM1105.39 209.274C1108.21 210.822 1102.49 213.614 1101.15 215.768C1100.64 213.009 1102.53 213.11 1105.39 209.274ZM1097.51 213.682C1098.76 215.465 1097.45 217.618 1095.97 219.772C1096.07 218.661 1095.49 217.686 1094.42 216.744C1095.43 215.734 1096.47 214.691 1097.48 213.682H1097.51ZM1085.4 238.277C1085.7 239.018 1084.46 243.021 1082.91 241.911C1082.17 242.685 1083.01 243.19 1083.28 243.795C1080.55 245.545 1081.56 243.795 1080.22 242.281C1082.17 239.522 1083.48 241.003 1085.4 238.244V238.277ZM1077.16 245.377C1077.19 246.352 1077.26 247.328 1078.3 246.52C1079.68 247.631 1075.84 249.482 1075.04 250.928C1074.73 249.246 1074.46 247.53 1077.16 245.41V245.377ZM1063.9 268.828C1065.21 271.452 1060.67 271.755 1059.66 275.322C1056.87 273.774 1062.55 270.981 1063.9 268.828ZM1081.16 290.395C1077.53 292.717 1073.89 295.038 1071.17 291.203C1074.43 291.337 1078.13 288.376 1081.16 290.395ZM1062.96 275.49C1062.76 277.509 1059.66 282.488 1064.5 278.518C1065.92 282.017 1059.9 283.632 1057.41 286.728C1058.04 282.253 1059.63 280.907 1062.99 275.49H1062.96ZM806.059 29.8726C805.891 32.3624 807.741 30.411 807.573 32.9008C801.449 36.5683 800.137 37.8467 795.662 42.4899C795.291 38.8561 802.425 34.1121 806.025 29.8726H806.059ZM1070.26 293.322C1073.62 294.836 1066.46 302.003 1064.87 298.672C1068.11 296.384 1067.3 293.693 1070.26 293.322ZM1054.92 281.244C1056.63 283.027 1051.25 287.569 1049.36 287.939C1050.24 284.978 1052.36 285.046 1054.92 281.244ZM793.575 43.4658C796.401 44.8453 790.581 48.5128 789.537 48.6138C789.1 46.8978 791.354 43.7349 793.575 43.4658ZM1048.39 299.177C1050.27 300.691 1047.68 303.887 1045.7 304.123C1045.49 302.642 1046.4 300.96 1048.39 299.177ZM1037.62 318.994C1032.14 323.739 1030.39 330.266 1025.71 333.126C1023.39 331.948 1025.34 330.131 1023.02 328.954C1025.24 328.819 1028.17 323.604 1029.95 326.632C1028.97 323.503 1034.79 321.552 1037.62 318.994ZM1035.5 319.97C1033.25 320.307 1031.5 317.245 1034.93 314.856C1036.04 320.542 1038.06 311.121 1041.66 313.846C1038.06 316.505 1038.93 316.404 1035.5 319.97ZM1037.96 339.148C1037.59 342.85 1035.47 342.614 1032.57 344.498C1032.94 340.763 1035.06 341.033 1037.96 339.148ZM710.803 111.061C711.947 111.767 711.038 112.743 711.745 113.517C709.39 116.108 707.472 115.771 705.015 119.069C703.535 116.949 708.245 111.734 710.769 111.061H710.803ZM971.166 382.889C971.335 386.657 966.019 387.431 967.331 391.266C962.99 394.799 960.265 395.035 958.885 399.678C957.91 398.736 956.967 397.794 955.991 396.852C960.971 393.386 965.076 386.556 971.166 382.889ZM698.32 124.62C694.618 126.471 694.686 128.423 691.59 130.172C689.975 128.019 696.637 122.097 698.32 124.62ZM956.934 399.308C957.304 404.658 950.877 410.546 945.965 411.353C945.729 416.938 944.854 421.75 936.745 425.115C937.082 421.515 944.585 418.251 941.153 412.733C948.488 407.248 952.761 401.192 956.9 399.342L956.934 399.308ZM947.916 393.487C949.565 395.136 944.956 399.14 943.105 399.409C942.028 397.39 942.97 395.068 945.426 392.545C946.167 393.42 946.907 394.295 947.916 393.487ZM939.875 399.24C941.456 401.831 936.678 402.168 934.289 405.936C933.347 404.826 932.136 405.667 931.227 404.422C934.155 402.403 937.116 400.149 939.875 399.24ZM659.76 136.834C659.12 139.492 657.236 141.343 654.948 142.756C653.501 139.795 657.505 140.03 659.76 136.834ZM948.32 422.759C949.498 424.105 945.292 426.259 944.282 427.941C944.686 425.047 942.869 426.931 940.85 429.085C939.47 425.888 945.897 424.711 948.353 422.759H948.32ZM935.837 418.082C936.409 418.654 936.981 419.226 937.553 419.798C936.274 421.077 934.996 422.355 933.717 423.634C931.698 422.187 935.029 419.967 935.837 418.116V418.082ZM651.684 142.587C651.987 144.27 650.54 146.221 648.218 148.307C647.276 146.558 648.79 142.991 651.684 142.587ZM658.01 153.388C659.019 154.532 654.679 155.777 653.602 156.652C652.155 153.556 656.26 153.253 658.01 153.388ZM654.14 161.766C655.52 163.314 652.693 165.467 650.674 167.486C648.622 165.871 651.953 162.069 654.14 161.766ZM644.719 167.721C645.694 166.947 645.729 167.856 645.291 168.293C646.57 170.009 648.723 165.77 649.901 168.293C647.814 169.908 649.295 170.985 646.637 172.701C645.796 172.533 644.954 172.364 643.945 173.105C642.532 171.557 646.132 169.302 644.719 167.755V167.721ZM922.512 450.652C921.705 450.114 920.629 451.561 919.619 452.368C917.802 452.032 919.989 448.196 917.331 450.114C917.196 448.465 922.277 448.835 924.06 449.104C921.536 451.998 923.757 452.536 920.022 454.286C919.484 453.276 921.469 451.897 922.512 450.652ZM625.91 161.362C627.996 163.044 624.261 168.125 622.074 165.198C622.343 163.482 624.161 161.631 625.91 161.362ZM637.215 174.046C639.369 175.46 636.677 177.613 637.788 179.161C636.375 179.8 635.129 179.363 633.952 178.421C634.355 177.075 635.264 175.628 637.215 174.013V174.046ZM904.847 459.131C904.915 460.006 904.982 460.847 905.79 461.621C904.713 462.294 902.828 462.563 903.872 461.251C902.795 461.15 901.516 462.428 900.608 461.082C901.651 460.746 902.694 460.41 902.155 459.568C903.131 458.862 903.804 460.174 904.847 459.165V459.131ZM901.786 466.768C899.094 465.052 898.791 465.086 898.522 462.024C900.877 462.024 904.915 463.505 901.786 466.768ZM610.904 187.707C611.442 188.481 612.114 188.548 612.821 188.077C612.283 190.971 610.163 188.279 608.212 192.653C607.505 191.408 606.529 192.182 605.52 193.057C605.621 190.129 610.062 191.913 610.904 187.707ZM869.148 460.51C866.086 469.023 850.944 481.977 846.671 488.605C845.325 482.784 861.745 468.922 869.148 460.51ZM864.706 472.892C865.278 473.464 865.85 474.036 866.422 474.608C864.605 476.56 862.788 478.376 861.24 478.612C859.861 477.064 862.654 474.945 864.706 472.892ZM861.072 479.958C861.644 480.53 862.216 481.068 862.788 481.64C861.072 482.851 859.255 484.736 857.977 483.02C858.986 482.01 860.029 480.967 861.038 479.958H861.072ZM866.422 492.844C866.927 493.652 865.951 493.921 865.648 493.618C865.648 498.867 863.529 492.71 861.409 495.536C860.87 494.526 862.856 493.147 863.899 491.902C864.639 492.777 865.413 493.652 866.389 492.844H866.422ZM839.74 495.469C841.591 497.588 836.543 500.718 835.332 503.308C833.717 499.708 838.428 499.035 839.74 495.469ZM519.483 237.705C519.281 239.623 517.161 243.257 514.672 243.627C513.729 242.012 518.238 239.623 519.483 237.705ZM724.665 590.687C714.369 593.043 716.186 586.28 725.843 578.137C724.329 577.936 722.546 579.786 720.863 580.829C718.676 579.416 723.958 576.892 722.983 575.311C724.194 574.436 725.069 576.119 726.045 576.825C732.943 568.817 733.212 567.976 741.052 559.632C744.282 560.776 744.955 555.763 748.723 556.536C750.305 553.946 745.09 557.579 746.436 554.282C752.29 549.37 753.333 551.456 758.346 544.693C756.832 542.943 754.006 550.379 752.795 546.813C757.236 544.188 759.524 540.891 761.442 537.055C763.024 538.132 763.528 539.343 763.562 540.656C765.749 538.805 765.278 537.358 763.562 536.08C766.859 531.571 769.349 532.412 772.007 532.244C772.209 540.521 753.972 549.942 751.852 558.05C741.253 565.722 733.38 574.335 723.218 583.117C724.396 584.059 726.179 580.862 727.458 581.199C729.14 583.083 723.858 586.953 722.276 585.237C721.267 588.534 721.603 589.173 724.766 590.755L724.665 590.687ZM477.996 251.635C478.736 253.452 476.314 257.119 474.53 257.354C474.228 255.672 475.674 253.721 477.996 251.635ZM471.67 249.952C474.496 251.534 470.223 255.807 468.608 253.014C469.651 252.005 470.661 250.962 471.67 249.952ZM514.234 291.909C513.831 294.365 507.168 301.599 505.587 297.091C509.557 296.216 511.173 294.13 514.234 291.909ZM473.79 258.129C472.141 265.026 462.249 269.03 458.985 274.01C459.557 271.957 459.187 270.073 457.841 268.323C461.812 264.555 466.858 263.815 468.978 259.508C470.492 259.676 471.839 261.089 473.79 258.129ZM749.867 539.377C750.607 541.228 745.796 543.885 744.315 546.073C742.902 541.9 746.536 542.338 749.867 539.377ZM490.075 286.357C490.008 287.468 490.546 288.444 491.623 289.386C489.671 292.178 488.561 289.319 486.609 292.078C485.23 290.53 488.056 288.376 490.075 286.357ZM492.969 293.76C493.541 294.332 494.113 294.904 494.685 295.476C492.263 300.523 488.561 300.758 483.548 304.291C485.264 299.782 490.378 298.639 492.969 293.793V293.76ZM484.119 304.83C479.375 312.972 470.896 314.721 464.907 323.974C464.267 321.821 463.931 322.494 462.249 319.802C467.666 318.086 476.212 311.862 475.102 308.127C476.616 306.916 477.828 307.353 478.938 308.867C480.688 306.142 478.938 307.151 477.39 305.839C479.88 303.887 481.663 306.478 484.119 304.83ZM728.569 550.346C731.227 552.836 725.978 552.398 724.531 555.494C724.195 553.004 726.18 551.86 728.569 550.346ZM704.78 542.136C698.689 553.205 683.447 564.982 674.632 573.326C673.286 575.816 677.794 575.21 679.241 573.326C680.082 575.681 675.809 576.421 674.632 577.902C673.521 576.96 674.363 575.782 673.084 574.873C671.469 573.931 669.08 578.406 667.128 579.651C672.007 563.737 686.913 557.411 702.29 541.227C703.03 542.102 703.804 542.943 704.78 542.169V542.136ZM736.61 576.556C736.812 578.272 733.985 580.425 733.144 582.276C732.202 581.166 730.991 582.006 730.083 580.761C732.573 577.161 734.12 580.156 736.61 576.556ZM460.499 322.695C462.652 324.983 459.254 328.079 456.663 331.073C455.553 330.165 456.394 328.953 455.116 328.045C458.144 327.641 457.908 324.849 460.499 322.695ZM713.394 587.154C714.504 588.736 714.336 590.485 716.657 591.899C711.98 595.701 708.885 596.273 703.03 599.772C703.097 594.725 709.659 592.74 713.394 587.154ZM699.935 621.07C701.213 619.791 702.492 618.513 703.77 617.234C693.037 631.467 676.987 649.097 659.221 661.613C658.514 662.589 659.827 663.262 658.851 664.272C656.866 665.853 654.981 666.728 653.097 667.737C651.482 665.819 655.958 662.993 658.111 660.469C657.337 659.595 656.596 658.754 655.62 659.527C661.98 650.88 676.92 639.037 685.029 624.569C688.158 622.685 691.22 621.103 694.046 621.272C695.796 618.546 691.724 619.892 691.186 618.446C692.7 616.057 696.973 617.133 696.368 614.441C699.093 612.692 698.084 614.442 699.429 615.922C702.458 611.212 704.578 607.679 707.505 605.593C706.361 602.901 704.208 607.107 702.526 608.284C702.929 603.91 709.12 599.267 712.519 598.325C715.278 599.906 712.687 605.626 717.296 601.521C715.917 606.871 703.198 611.75 704.04 615.855C711.24 611.447 719.619 599.099 726.112 599.57C720.426 610.236 710.231 613.735 702.29 623.29C701.516 622.516 700.742 621.776 700.002 621.003L699.935 621.07ZM699.598 578.104C701.112 579.685 700.608 582.578 698.252 582.848C696.503 581.603 698.387 579.786 699.598 578.104ZM695.358 589.173C695.055 588.568 695.561 587.828 694.989 587.289C685.164 596.946 684.894 598.796 677.491 608.116C668.474 605.323 687.721 588.971 691.523 583.891C696.267 582.208 699.228 583.891 695.358 589.207V589.173ZM699.396 602.261C700.203 604.078 698.387 606.299 699.195 608.15C696.435 607.477 692.566 614.677 689.975 612.759C695.022 611.077 694.18 604.92 699.396 602.261ZM645.46 606.938C644.888 606.4 644.08 607.443 643.339 607.914C642.7 606.938 645.426 605.424 644.484 604.482C642.364 604.011 639.437 609.092 636.98 610.808C637.552 604.92 646.233 597.921 647.343 593.648C649.766 593.648 651.011 596.205 650.809 597.047C653.434 598.258 652.592 595.398 655.049 595.129C656.462 592.269 651.448 596.373 650.641 593.816C656.529 587.895 658.582 587.323 659.49 582.747C662.788 581.166 660.298 583.79 664.672 578.709C669.046 582.276 660.567 584.429 660.062 587.861C665.042 587.693 667.902 575.782 671.771 579.618C661.576 588.534 653.736 604.751 638.931 611.178C639.402 608.419 642.936 610.168 645.46 606.938ZM685.937 608.789C688.797 606.266 686.139 612.826 688.999 610.303C690.009 612.793 686.139 612.625 685.365 612.793C683.784 611.716 686.946 609.933 685.937 608.789ZM685.163 614.139C680.89 621.171 667.027 633.115 667.498 627.16C673.756 625.747 676.516 618.008 685.163 614.139ZM626.079 581.771C627.492 580.762 626.448 583.453 627.996 582.141C629.073 586.212 621.569 588.769 618.777 591.327C616.724 587.424 626.348 585.102 626.079 581.771ZM618.407 589.443C617.128 590.721 615.849 592 614.571 593.278C614.571 592.302 614.47 591.327 613.427 592.134C612.754 591.158 615.513 589.645 614.571 588.702C616.051 587.491 617.297 587.928 618.407 589.443ZM667.498 631.736C663.898 638.263 651.011 647.953 643.306 658.115C644.181 648.391 656.193 642.805 663.292 633.654C664.268 636.143 666.018 632.947 667.532 631.736H667.498ZM591.321 608.419C588.494 609.126 585.668 615.821 581.899 614.374C580.721 616.494 580.755 618.445 577.659 620.868C576.044 620.128 573.622 621.238 574.025 618.816C575.607 616.864 576.549 619.589 578.064 618.21C579.679 616.258 578.299 614.879 576.348 616.494C583.144 607.678 586.778 603.742 594.786 598.123C593.575 600.344 593.676 604.079 590.547 604.617C594.046 608.217 595.628 602.564 596.502 599.839C597.411 600.344 601.717 599.2 600.338 600.579C602.256 602.261 596.569 604.415 595.358 607.847C599.127 607.41 603.838 598.729 605.924 598.459C604.04 597.585 601.415 597.08 604.577 594.086C608.11 598.493 612.72 595.364 617.431 591.529C617.33 592.639 617.902 593.648 618.979 594.557C608.683 600.882 595.291 621.911 582.673 631.837C581.529 630.928 582.404 629.717 581.125 628.808C578.938 631.534 580.621 633.653 578.064 636.446C577.29 635.706 576.515 634.932 575.775 634.192C574.328 635.47 574.867 636.514 573.285 637.792C571.872 639.844 575.102 637.758 574.227 640.248C572.949 641.527 571.671 642.805 570.392 644.084C569.854 643.31 569.18 643.243 568.474 643.714C568.709 641.056 567.532 638.633 570.964 635.538C569.853 635.639 568.844 635.067 567.902 634.024C570.829 633.351 571.166 628.674 574.632 628.472C575.271 627.059 574.833 625.848 573.858 624.67C580.89 619.051 584.86 615.72 591.321 608.419ZM644.046 666.492C641.556 665.315 643.474 663.531 642.7 662.118C647.714 658.484 648.353 657.004 653.265 652.731C646.166 654.312 661.038 641.258 663.999 642.031C659.12 651.688 646.233 658.586 644.012 666.492H644.046ZM649.43 665.685C650.574 667.199 646.367 669.386 645.594 669.52C644.18 666.929 647.613 666.19 649.43 665.685ZM639.638 665.18C642.296 666.761 640.95 668.915 638.09 671.27C635.97 670.26 638.46 668.612 637.316 667.468C629.51 671.909 624.968 679.883 618.676 678.033C624.968 673.592 625.641 670.16 628.467 664.844C630.083 664.406 631.529 664.877 633.279 663.498C633.481 665.954 632.27 666.223 630.015 667.872C632.875 669.386 636.072 668.41 639.605 665.146L639.638 665.18ZM615.614 690.246C616.32 692.164 611.408 695.529 610.634 692.938C610.87 691.828 611.745 690.616 613.124 689.304C613.864 690.179 614.638 691.054 615.614 690.246ZM297.881 410.579C298.352 414.785 293.44 413.978 290.378 416.905C288.426 415.66 295.021 413.17 293.069 411.959C294.92 409.772 295.896 413.54 297.881 410.613V410.579ZM280.183 441.87C276.616 447.119 270.088 449.138 268.271 456.002C265.68 458.828 264.065 454.858 261.373 458.323C259.556 457.987 261.744 454.151 259.052 456.069C261.441 450.719 264.065 448.229 268.069 443.653C269.819 443.418 271.165 444.764 270.963 446.48C274.059 444.764 277.289 442.173 280.183 441.87ZM546.468 731.732C547.646 733.078 543.44 735.231 542.431 736.88C540.883 735.332 544.685 731.934 546.468 731.732ZM554.308 745.561C555.25 747.142 550.742 749.565 549.497 751.483C546.536 747.916 551.785 748.892 554.308 745.561ZM518.205 767.835C521.468 766.556 518.574 771.637 516.084 773.353C512.518 771.3 519.046 768.777 518.205 767.835ZM241.32 542.136C239.637 545.399 236.07 548.798 239.57 549.572C234.455 555.965 225.337 551.12 227.861 544.121C232.47 542.607 237.45 538.367 241.286 542.136H241.32ZM405.587 760.365C407.74 761.778 405.788 763.797 403.466 765.883C402.524 764.773 401.313 765.614 400.405 764.369C402.222 762.417 404.005 760.6 405.587 760.331V760.365ZM167.362 626.05C170.761 628.169 166.79 631.332 166.218 634.024C170.424 638.869 174.63 637.119 174.058 643.31C171.4 646.439 169.314 645.766 166.958 646.944C161.306 642.805 161.643 642.401 159.287 636.345C160.768 633.754 165.579 630.625 162.383 628.707C163.964 628.304 165.781 626.453 167.362 626.016V626.05ZM275.876 743.643C276.818 745.224 272.241 748.151 271.265 748.252C270.996 746.974 271.838 745.561 273.184 744.047C273.89 745.292 274.866 744.518 275.876 743.643ZM159.657 647.381C158.345 648.828 157.335 648.29 156.023 649.871C153.768 648.895 155.619 647.314 153.903 646.271C155.855 646.271 158.008 645.161 159.657 647.381ZM344.684 835.8C347.376 837.381 340.276 842.967 339.503 839.804C339.839 837.045 342.699 836.944 344.684 835.8ZM303.971 858.107C303.467 858.612 302.928 859.116 302.423 859.621C300.673 857.636 297.847 858.679 301.077 855.247C302.457 857.502 304.308 855.55 303.971 858.073V858.107Z" fill="#E0C4EE"/>
</svg>
