<svg width="36" height="32" viewBox="0 0 36 32" fill="none" xmlns="http://www.w3.org/2000/svg">
<path d="M11 32C12.6569 32 14 30.6569 14 29C14 27.3431 12.6569 26 11 26C9.34315 26 8 27.3431 8 29C8 30.6569 9.34315 32 11 32Z" fill="white"/>
<path d="M29 32C30.6569 32 32 30.6569 32 29C32 27.3431 30.6569 26 29 26C27.3431 26 26 27.3431 26 29C26 30.6569 27.3431 32 29 32Z" fill="white"/>
<path d="M2 2H6L7.2 8M7.2 8L10 22H30L34 8H7.2Z" stroke="white" stroke-width="2.4" stroke-linecap="round" stroke-linejoin="round"/>
</svg>
