<?xml version="1.0" encoding="utf-8"?>
<!-- Generator: Adobe Illustrator 25.2.1, SVG Export Plug-In . SVG Version: 6.00 Build 0)  -->
<svg version="1.1" id="圖層_1" xmlns="http://www.w3.org/2000/svg" xmlns:xlink="http://www.w3.org/1999/xlink" x="0px" y="0px"
	 viewBox="0 0 213.4 40" style="enable-background:new 0 0 213.4 40;" xml:space="preserve">
<style type="text/css">
	.st0{fill-rule:evenodd;clip-rule:evenodd;fill:#FFFFFF;}
	.st1{fill:#61D9D5;}
	.st2{fill:#FC79D0;}
	.st3{fill:#FF974B;}
	.st4{fill:#51D26D;}
	.st5{fill:#FCD34D;}
</style>
<path class="st0" d="M143.6,26.2c1.7,1.6,4.4,2.4,8.1,2.4c3.7,0,6.4-0.8,8.1-2.4s2.6-3.8,2.6-6.7c0-2.8-0.9-5.1-2.6-6.7
	c-1.7-1.6-4.4-2.4-8.1-2.4c-3.7,0-6.4,0.8-8.1,2.4c-1.7,1.6-2.6,3.8-2.6,6.7C141.1,22.4,141.9,24.6,143.6,26.2z M155.6,22.7
	c-0.8,0.7-2.1,1-3.8,1c-1.8,0-3-0.3-3.8-1c-0.8-0.7-1.2-1.7-1.2-3.2c0-1.4,0.4-2.5,1.2-3.1c0.8-0.7,2.1-1,3.8-1c1.8,0,3.1,0.3,3.8,1
	c0.8,0.7,1.2,1.7,1.2,3.1C156.7,20.9,156.4,22,155.6,22.7z M72.4,10.8l1.9,17.4h-6.2l-0.4-12.4l-2.4,12.4H59l-2.4-12.3l-0.4,12.3H50
	l1.9-17.4H60l2.1,11.4l1.8-11.4H72.4z M81.9,23.8c6.1,0,10.5-0.1,13.2-0.3c-0.1,0.7-0.2,1.3-0.2,2c0,0.7,0,1.6,0,2.6H76.3
	c0.1-3.1,0.2-6,0.2-8.7s-0.1-5.6-0.2-8.7h18.6v4.3h-13v2.3c0.8,0,1.9,0,3.4,0c2.5,0,5.2,0,7.9-0.1v4.1c-2.7-0.1-5.4-0.1-7.9-0.1
	c-1.5,0-2.6,0-3.4,0V23.8z M110.5,15.7c2.4,0,4.8,0.1,7.3,0.1v-5H97.2v5c2.5-0.1,4.9-0.1,7.3-0.1v12.5h6V15.7z M139.1,16.6
	c0,1.4-0.3,2.6-1,3.5c-0.7,1-1.8,1.7-3.5,2.1c0.2,0.3,0.3,0.5,0.4,0.6l3.9,5.4h-6.5c-0.7-1.3-1.8-3.2-3.3-5.6h-3.5v5.6h-5.7
	c0.1-3.1,0.2-6,0.2-8.7s-0.1-5.6-0.2-8.7h5.7v0h4.9c3.2,0,5.5,0.5,6.8,1.6S139.1,14.8,139.1,16.6z M125.4,15.4v2.7h3.2
	c1.4,0,2.4,0,3.1-0.1c0.7-0.1,1.2-0.2,1.5-0.4s0.4-0.5,0.4-0.8c0-0.4-0.1-0.6-0.4-0.8c-0.3-0.2-0.7-0.3-1.4-0.4
	c-0.7-0.1-1.7-0.1-3.1-0.1H125.4z M174.3,18.4h10.2v9.9h-4.2l-0.5-4.2c-0.5,1.5-1.3,2.6-2.6,3.4c-1.2,0.7-2.7,1.1-4.5,1.1
	c-1.6,0-3.1-0.4-4.3-1.1c-1.2-0.7-2.2-1.8-3-3.1c-0.7-1.3-1.1-2.9-1.1-4.7c0-2.9,0.9-5.1,2.6-6.8s4.4-2.5,8-2.5c2.1,0,3.9,0.3,5.4,1
	c1.6,0.7,2.9,1.7,4,3.1c-0.7,0.4-2.1,1.1-4.2,2.2l-0.6,0.3c-0.6-0.6-1.4-1.1-2.2-1.4c-0.8-0.3-1.7-0.5-2.6-0.5
	c-1.5,0-2.7,0.4-3.4,1.2c-0.8,0.8-1.1,1.8-1.1,3c0,1.3,0.4,2.3,1.2,3.1c0.8,0.8,2.1,1.2,3.7,1.2c0.7,0,1.4-0.1,2.1-0.3
	c0.7-0.2,1.3-0.6,1.7-1.1h-4.7V18.4z M189.2,26.2c1.7,1.6,4.4,2.4,8.1,2.4c3.7,0,6.4-0.8,8.1-2.4c1.7-1.6,2.6-3.8,2.6-6.7
	c0-2.8-0.9-5.1-2.6-6.7c-1.7-1.6-4.4-2.4-8.1-2.4c-3.7,0-6.4,0.8-8.1,2.4c-1.7,1.6-2.6,3.8-2.6,6.7
	C186.6,22.4,187.4,24.6,189.2,26.2z M201.1,22.7c-0.8,0.7-2.1,1-3.8,1c-1.8,0-3-0.3-3.8-1s-1.2-1.7-1.2-3.2c0-1.4,0.4-2.5,1.2-3.1
	s2.1-1,3.8-1c1.8,0,3.1,0.3,3.8,1c0.8,0.7,1.2,1.7,1.2,3.1C202.3,20.9,201.9,22,201.1,22.7z"/>
<circle class="st1" cx="10" cy="28.2" r="3.3"/>
<circle class="st2" cx="40.6" cy="28.2" r="3.3"/>
<circle class="st1" cx="10" cy="19.8" r="3.3"/>
<circle class="st2" cx="40.6" cy="19.8" r="3.3"/>
<circle class="st3" cx="10" cy="10.8" r="3.3"/>
<circle class="st4" cx="40.6" cy="10.8" r="3.3"/>
<circle class="st3" cx="19" cy="17.4" r="3.3"/>
<circle class="st4" cx="31.6" cy="17.4" r="3.3"/>
<circle class="st5" cx="25" cy="24" r="3.3"/>
</svg>
